<svg width="314" height="258" viewBox="0 0 314 258" fill="none" xmlns="http://www.w3.org/2000/svg">
<rect width="314" height="258" rx="5" fill="#1E283B"/>
<path d="M245.764 92H246.784V90.2H247.972V89.348H246.784V83.42H245.392L241.468 89.864V90.2H245.764V92ZM242.788 89.348L245.764 84.212V89.348H242.788ZM252.476 91.244C251.048 91.244 250.136 90.116 250.136 87.944V87.464C250.136 85.352 251 84.152 252.452 84.152C253.904 84.152 254.744 85.448 254.744 87.44V87.92C254.744 90.092 253.976 91.244 252.476 91.244ZM252.476 92.108C254.588 92.108 255.8 90.428 255.8 87.932V87.452C255.8 85.004 254.564 83.312 252.452 83.312C250.352 83.312 249.068 84.944 249.068 87.476V87.956C249.068 90.452 250.424 92.108 252.476 92.108ZM256.744 92H262.492V91.148H258.352L260.716 88.844C261.772 87.812 262.444 86.78 262.444 85.724C262.444 84.248 261.436 83.312 259.852 83.312C258.22 83.312 257.2 84.38 257.068 86.06H258.04C258.208 84.716 258.856 84.152 259.852 84.152C260.824 84.152 261.388 84.728 261.388 85.688C261.388 86.564 260.932 87.344 260.152 88.172L256.744 91.76V92ZM264.168 92H265.164V88.196C265.164 87.068 265.992 86.48 266.916 86.48C267.924 86.48 268.392 86.972 268.392 88.076V92H269.388V88.148C269.388 86.324 268.476 85.616 267.18 85.616C266.148 85.616 265.452 86.132 265.164 86.72V82.724H264.168V92Z" fill="white"/>
<path d="M242.228 119H247.976V118.148H243.836L246.2 115.844C247.256 114.812 247.928 113.78 247.928 112.724C247.928 111.248 246.92 110.312 245.336 110.312C243.704 110.312 242.684 111.38 242.552 113.06H243.524C243.692 111.716 244.34 111.152 245.336 111.152C246.308 111.152 246.872 111.728 246.872 112.688C246.872 113.564 246.416 114.344 245.636 115.172L242.228 118.76V119ZM252.017 119.108C253.649 119.108 254.957 118.004 254.957 116.192C254.957 114.44 253.829 113.348 252.293 113.348C251.477 113.348 250.889 113.612 250.541 113.936V111.32H254.501V110.42H249.677V115.016H250.061C250.517 114.5 251.093 114.188 252.089 114.188C253.181 114.188 253.889 114.98 253.889 116.192C253.889 117.488 253.169 118.268 252.005 118.268C250.697 118.268 250.325 117.62 250.157 116.684H249.161C249.281 118.088 250.169 119.108 252.017 119.108ZM259.374 119.108C261.186 119.108 262.338 117.956 262.338 116.24C262.338 114.668 261.234 113.432 259.53 113.432C258.534 113.432 257.73 113.9 257.322 114.596C257.37 112.328 258.282 111.164 259.578 111.164C260.538 111.164 260.97 111.596 261.162 112.388H262.158C261.93 111.008 260.982 110.312 259.65 110.312C257.682 110.312 256.29 111.92 256.29 115.004V115.208C256.29 117.356 257.034 119.108 259.374 119.108ZM259.374 118.292C258.222 118.292 257.394 117.548 257.394 116.144C257.394 115.028 258.21 114.248 259.362 114.248C260.526 114.248 261.27 115.052 261.27 116.288C261.27 117.5 260.502 118.292 259.374 118.292ZM264.008 119H265.004V115.196C265.004 114.068 265.832 113.48 266.756 113.48C267.764 113.48 268.232 113.972 268.232 115.076V119H269.228V115.148C269.228 113.324 268.316 112.616 267.02 112.616C265.988 112.616 265.292 113.132 265.004 113.72V109.724H264.008V119Z" fill="white"/>
<path d="M245.316 147H246.36V138.42H245.388L243.396 139.86V140.832L245.316 139.452V147ZM251.921 146.244C250.493 146.244 249.581 145.116 249.581 142.944V142.464C249.581 140.352 250.445 139.152 251.897 139.152C253.349 139.152 254.189 140.448 254.189 142.44V142.92C254.189 145.092 253.421 146.244 251.921 146.244ZM251.921 147.108C254.033 147.108 255.245 145.428 255.245 142.932V142.452C255.245 140.004 254.009 138.312 251.897 138.312C249.797 138.312 248.513 139.944 248.513 142.476V142.956C248.513 145.452 249.869 147.108 251.921 147.108ZM260.42 147H261.44V145.2H262.628V144.348H261.44V138.42H260.048L256.124 144.864V145.2H260.42V147ZM257.444 144.348L260.42 139.212V144.348H257.444ZM264.071 147H265.067V143.196C265.067 142.068 265.895 141.48 266.819 141.48C267.827 141.48 268.295 141.972 268.295 143.076V147H269.291V143.148C269.291 141.324 268.379 140.616 267.083 140.616C266.051 140.616 265.355 141.132 265.067 141.72V137.724H264.071V147Z" fill="white"/>
<path d="M243.752 179H244.82L248.036 170.564V170.42H242.384V171.26H246.74L243.752 179ZM251.718 179.108C253.17 179.108 254.67 178.256 254.67 176.54C254.67 175.436 254.022 174.692 253.026 174.332C253.818 173.984 254.346 173.384 254.346 172.52C254.346 171.176 253.05 170.312 251.718 170.312C250.398 170.312 249.078 171.152 249.078 172.544C249.078 173.384 249.558 174.032 250.374 174.344C249.462 174.668 248.754 175.412 248.754 176.564C248.754 178.268 250.314 179.108 251.718 179.108ZM251.718 178.256C250.722 178.256 249.822 177.656 249.822 176.528C249.822 175.388 250.722 174.8 251.742 174.8C252.762 174.8 253.602 175.376 253.602 176.504C253.602 177.644 252.774 178.256 251.718 178.256ZM251.754 173.972C250.878 173.972 250.134 173.456 250.134 172.556C250.134 171.668 250.83 171.128 251.718 171.128C252.606 171.128 253.29 171.704 253.29 172.532C253.29 173.444 252.666 173.972 251.754 173.972ZM259.37 178.244C257.942 178.244 257.03 177.116 257.03 174.944V174.464C257.03 172.352 257.894 171.152 259.346 171.152C260.798 171.152 261.638 172.448 261.638 174.44V174.92C261.638 177.092 260.87 178.244 259.37 178.244ZM259.37 179.108C261.482 179.108 262.694 177.428 262.694 174.932V174.452C262.694 172.004 261.458 170.312 259.346 170.312C257.246 170.312 255.962 171.944 255.962 174.476V174.956C255.962 177.452 257.318 179.108 259.37 179.108ZM264.418 179H265.414V175.196C265.414 174.068 266.242 173.48 267.166 173.48C268.174 173.48 268.642 173.972 268.642 175.076V179H269.638V175.148C269.638 173.324 268.726 172.616 267.43 172.616C266.398 172.616 265.702 173.132 265.414 173.72V169.724H264.418V179Z" fill="white"/>
<path d="M244.228 209H249.976V208.148H245.836L248.2 205.844C249.256 204.812 249.928 203.78 249.928 202.724C249.928 201.248 248.92 200.312 247.336 200.312C245.704 200.312 244.684 201.38 244.552 203.06H245.524C245.692 201.716 246.34 201.152 247.336 201.152C248.308 201.152 248.872 201.728 248.872 202.688C248.872 203.564 248.416 204.344 247.636 205.172L244.228 208.76V209ZM252.961 209H254.005V200.42H253.033L251.041 201.86V202.832L252.961 201.452V209ZM259.566 208.244C258.138 208.244 257.226 207.116 257.226 204.944V204.464C257.226 202.352 258.09 201.152 259.542 201.152C260.994 201.152 261.834 202.448 261.834 204.44V204.92C261.834 207.092 261.066 208.244 259.566 208.244ZM259.566 209.108C261.678 209.108 262.89 207.428 262.89 204.932V204.452C262.89 202.004 261.654 200.312 259.542 200.312C257.442 200.312 256.158 201.944 256.158 204.476V204.956C256.158 207.452 257.514 209.108 259.566 209.108ZM264.613 209H265.609V205.196C265.609 204.068 266.437 203.48 267.361 203.48C268.369 203.48 268.837 203.972 268.837 205.076V209H269.833V205.148C269.833 203.324 268.921 202.616 267.625 202.616C266.593 202.616 265.897 203.132 265.609 203.72V199.724H264.613V209Z" fill="white"/>
<path d="M37.432 49H39.432L40.328 46.168H44.696L45.608 49H47.816L44.04 37.56H41.256L37.432 49ZM42.52 39.304L44.2 44.616H40.824L42.52 39.304ZM49.402 51.864H51.338V47.688C51.786 48.504 52.746 49.16 54.074 49.16C56.234 49.16 57.786 47.528 57.786 44.84V44.712C57.786 42.008 56.17 40.456 54.074 40.456C52.842 40.456 51.802 41.176 51.338 41.976V40.632H49.402V51.864ZM53.594 47.624C52.186 47.624 51.274 46.744 51.274 44.872V44.744C51.274 42.888 52.234 41.976 53.578 41.976C54.842 41.976 55.802 42.888 55.802 44.744V44.872C55.802 46.664 55.018 47.624 53.594 47.624ZM59.527 51.864H61.463V47.688C61.911 48.504 62.871 49.16 64.199 49.16C66.359 49.16 67.911 47.528 67.911 44.84V44.712C67.911 42.008 66.295 40.456 64.199 40.456C62.967 40.456 61.927 41.176 61.463 41.976V40.632H59.527V51.864ZM63.719 47.624C62.311 47.624 61.399 46.744 61.399 44.872V44.744C61.399 42.888 62.359 41.976 63.703 41.976C64.967 41.976 65.927 42.888 65.927 44.744V44.872C65.927 46.664 65.143 47.624 63.719 47.624ZM69.7 49H71.636V36.76H69.7V49ZM74.0438 49H75.9798V40.632H74.0438V49ZM74.9878 39.256C75.6278 39.256 76.1398 38.776 76.1398 38.152C76.1398 37.512 75.6278 37.032 74.9878 37.032C74.3478 37.032 73.8358 37.512 73.8358 38.152C73.8358 38.776 74.3478 39.256 74.9878 39.256ZM82.0035 49.16C84.2755 49.16 85.7315 47.8 85.8755 45.88H84.0995C83.9875 47.064 83.1075 47.672 82.0835 47.672C80.6595 47.672 79.7635 46.712 79.7635 44.888V44.76C79.7635 43.032 80.7075 42.008 82.0355 42.008C83.0595 42.008 83.7955 42.472 83.9555 43.592H85.8275C85.6035 41.288 83.8595 40.456 82.0035 40.456C79.6675 40.456 77.7795 42.136 77.7795 44.792V44.92C77.7795 47.592 79.6035 49.16 82.0035 49.16ZM89.7346 49.16C91.0146 49.16 91.7506 48.696 92.2946 47.976V49H94.1986V43.512C94.1986 41.224 92.7266 40.456 90.8546 40.456C88.9826 40.456 87.4306 41.272 87.2706 43.224H89.1426C89.2386 42.392 89.7346 41.912 90.7426 41.912C91.8786 41.912 92.2626 42.472 92.2626 43.592V44.024H91.2226C88.8226 44.024 86.9346 44.728 86.9346 46.68C86.9346 48.424 88.1986 49.16 89.7346 49.16ZM90.1986 47.768C89.2386 47.768 88.8546 47.304 88.8546 46.6C88.8546 45.576 89.7986 45.24 91.2706 45.24H92.2626V46.072C92.2626 47.144 91.3826 47.768 90.1986 47.768ZM99.2656 49.144C99.8576 49.144 100.274 49.048 100.578 48.936V47.4C100.306 47.512 100.018 47.56 99.6336 47.56C99.0256 47.56 98.6736 47.224 98.6736 46.488V42.088H100.514V40.632H98.6736V38.792H96.7376V40.632H95.6176V42.088H96.7376V46.664C96.7376 48.248 97.6016 49.144 99.2656 49.144ZM102.372 49H104.308V40.632H102.372V49ZM103.316 39.256C103.956 39.256 104.468 38.776 104.468 38.152C104.468 37.512 103.956 37.032 103.316 37.032C102.676 37.032 102.164 37.512 102.164 38.152C102.164 38.776 102.676 39.256 103.316 39.256ZM110.412 47.656C108.94 47.656 108.092 46.584 108.092 44.872V44.744C108.092 43.016 108.972 41.976 110.412 41.976C111.852 41.976 112.716 43.032 112.716 44.76V44.872C112.716 46.584 111.852 47.656 110.412 47.656ZM110.396 49.16C112.86 49.16 114.7 47.464 114.7 44.856V44.728C114.7 42.168 112.86 40.456 110.412 40.456C107.948 40.456 106.108 42.184 106.108 44.776V44.904C106.108 47.448 107.932 49.16 110.396 49.16ZM116.449 49H118.385V44.072C118.385 42.744 119.265 42.072 120.353 42.072C121.505 42.072 122.017 42.648 122.017 43.912V49H123.953V43.736C123.953 41.432 122.769 40.456 121.089 40.456C119.713 40.456 118.785 41.144 118.385 41.96V40.632H116.449V49ZM132.444 49H134.588V39.24H137.772V37.56H129.26V39.24H132.444V49ZM138.761 49H140.697V44.648C140.697 42.872 141.721 42.328 143.417 42.312V40.504C142.009 40.52 141.225 41.144 140.697 42.2V40.632H138.761V49ZM147.157 49.16C148.437 49.16 149.173 48.696 149.717 47.976V49H151.621V43.512C151.621 41.224 150.149 40.456 148.277 40.456C146.405 40.456 144.853 41.272 144.693 43.224H146.565C146.661 42.392 147.157 41.912 148.165 41.912C149.301 41.912 149.685 42.472 149.685 43.592V44.024H148.645C146.245 44.024 144.357 44.728 144.357 46.68C144.357 48.424 145.621 49.16 147.157 49.16ZM147.621 47.768C146.661 47.768 146.277 47.304 146.277 46.6C146.277 45.576 147.221 45.24 148.693 45.24H149.685V46.072C149.685 47.144 148.805 47.768 147.621 47.768ZM157.504 49.16C159.776 49.16 161.232 47.8 161.376 45.88H159.6C159.488 47.064 158.608 47.672 157.584 47.672C156.16 47.672 155.264 46.712 155.264 44.888V44.76C155.264 43.032 156.208 42.008 157.536 42.008C158.56 42.008 159.296 42.472 159.456 43.592H161.328C161.104 41.288 159.36 40.456 157.504 40.456C155.168 40.456 153.28 42.136 153.28 44.792V44.92C153.28 47.592 155.104 49.16 157.504 49.16ZM163.043 49H164.979V44.888L168.115 49H170.355L166.835 44.472L170.083 40.632H167.971L164.979 44.312V36.76H163.043V49Z" fill="#FFF4D7"/>
<path d="M37.432 89H38.416L39.244 86.528H42.784L43.624 89H44.656L41.752 80.42H40.384L37.432 89ZM41.02 81.284L42.508 85.7H39.532L41.02 81.284ZM48.5222 89.108C50.0342 89.108 51.1262 88.1 51.2582 86.744H50.3342C50.2262 87.764 49.4222 88.28 48.5342 88.28C47.3222 88.28 46.4822 87.464 46.4822 85.928V85.832C46.4822 84.356 47.3582 83.444 48.4982 83.444C49.3622 83.444 50.0822 83.816 50.2382 84.812H51.2222C51.0302 83.216 49.8062 82.616 48.4982 82.616C46.8182 82.616 45.4502 83.912 45.4502 85.832V85.928C45.4502 87.872 46.7702 89.108 48.5222 89.108ZM55.3659 89.108C56.8779 89.108 57.9699 88.1 58.1019 86.744H57.1779C57.0699 87.764 56.2659 88.28 55.3779 88.28C54.1659 88.28 53.3259 87.464 53.3259 85.928V85.832C53.3259 84.356 54.2019 83.444 55.3419 83.444C56.2059 83.444 56.9259 83.816 57.0819 84.812H58.0659C57.8739 83.216 56.6499 82.616 55.3419 82.616C53.6619 82.616 52.2939 83.912 52.2939 85.832V85.928C52.2939 87.872 53.6139 89.108 55.3659 89.108ZM62.2217 88.28C60.9497 88.28 60.1697 87.344 60.1697 85.916V85.82C60.1697 84.38 60.9617 83.444 62.2217 83.444C63.4697 83.444 64.2737 84.38 64.2737 85.832V85.916C64.2737 87.332 63.4817 88.28 62.2217 88.28ZM62.2097 89.108C63.9977 89.108 65.3057 87.8 65.3057 85.904V85.808C65.3057 83.924 63.9977 82.616 62.2217 82.616C60.4457 82.616 59.1377 83.936 59.1377 85.82V85.916C59.1377 87.752 60.4217 89.108 62.2097 89.108ZM68.9718 89.108C69.9798 89.108 70.6758 88.592 70.9638 88.004V89H71.9598V82.724H70.9638V86.528C70.9638 87.656 70.1238 88.244 69.2358 88.244C68.2518 88.244 67.7838 87.752 67.7838 86.648V82.724H66.7878V86.696C66.7878 88.424 67.7238 89.108 68.9718 89.108ZM73.9728 89H74.9688V85.196C74.9688 84.068 75.7968 83.48 76.7208 83.48C77.7288 83.48 78.1968 83.972 78.1968 85.076V89H79.1928V85.148C79.1928 83.324 78.2808 82.616 76.9848 82.616C75.9528 82.616 75.2568 83.132 74.9688 83.72V82.724H73.9728V89ZM83.0527 89.084C83.4607 89.084 83.7007 89.024 83.9047 88.952V88.112C83.6887 88.196 83.4487 88.244 83.1367 88.244C82.6327 88.244 82.3567 87.944 82.3567 87.332V83.564H83.8207V82.724H82.3567V81.296H81.3607V82.724H80.4607V83.564H81.3607V87.428C81.3607 88.412 81.9127 89.084 83.0527 89.084ZM85.4343 89H86.4303V82.724H85.4343V89ZM85.9143 81.416C86.2743 81.416 86.5743 81.116 86.5743 80.756C86.5743 80.396 86.2743 80.096 85.9143 80.096C85.5543 80.096 85.2543 80.396 85.2543 80.756C85.2543 81.116 85.5543 81.416 85.9143 81.416ZM88.4689 89H89.4649V85.196C89.4649 84.068 90.2929 83.48 91.2169 83.48C92.2249 83.48 92.6929 83.972 92.6929 85.076V89H93.6889V85.148C93.6889 83.324 92.7769 82.616 91.4809 82.616C90.4489 82.616 89.7529 83.132 89.4649 83.72V82.724H88.4689V89ZM98.1488 91.292C99.9008 91.292 101.137 90.404 101.149 88.58V82.724H100.153V83.732C99.7928 83.12 99.1448 82.616 98.1008 82.616C96.3728 82.616 95.1728 84.032 95.1728 85.736V85.82C95.1728 87.548 96.3848 88.796 98.0288 88.796C98.9408 88.796 99.7928 88.22 100.153 87.608V88.52C100.153 89.864 99.3728 90.452 98.1368 90.452C97.0688 90.452 96.4688 90.08 96.3248 89.36H95.3048C95.4728 90.416 96.2888 91.292 98.1488 91.292ZM98.1368 87.968C97.0808 87.968 96.2048 87.152 96.2048 85.784V85.688C96.2048 84.368 96.9488 83.444 98.1968 83.444C99.4208 83.444 100.189 84.26 100.189 85.664V85.748C100.189 87.152 99.3008 87.968 98.1368 87.968ZM109.184 89.108C110.888 89.108 112.148 88.016 112.148 86.576C112.148 84.956 111.14 84.38 109.232 84.08C107.48 83.816 107.168 83.384 107.168 82.544C107.168 81.74 107.78 81.152 108.956 81.152C110.144 81.152 110.768 81.596 110.972 82.676H111.908C111.74 81.152 110.672 80.312 108.956 80.312C107.336 80.312 106.196 81.32 106.196 82.64C106.196 84.164 107.264 84.728 109.064 85.004C110.696 85.268 111.14 85.676 111.14 86.648C111.14 87.62 110.288 88.268 109.184 88.268C107.456 88.268 107.048 87.404 106.916 86.384H105.908C106.064 87.848 106.892 89.108 109.184 89.108ZM116.479 88.28C115.207 88.28 114.427 87.344 114.427 85.916V85.82C114.427 84.38 115.219 83.444 116.479 83.444C117.727 83.444 118.531 84.38 118.531 85.832V85.916C118.531 87.332 117.739 88.28 116.479 88.28ZM116.467 89.108C118.255 89.108 119.563 87.8 119.563 85.904V85.808C119.563 83.924 118.255 82.616 116.479 82.616C114.703 82.616 113.395 83.936 113.395 85.82V85.916C113.395 87.752 114.679 89.108 116.467 89.108ZM121.322 89H122.318V83.564H123.854V82.724H122.318V81.596C122.318 80.96 122.582 80.516 123.23 80.516C123.506 80.516 123.758 80.576 123.938 80.648V79.808C123.686 79.724 123.518 79.688 123.194 79.688C121.946 79.688 121.322 80.432 121.322 81.704V82.724H120.422V83.564H121.322V89ZM127.221 89.084C127.629 89.084 127.869 89.024 128.073 88.952V88.112C127.857 88.196 127.617 88.244 127.305 88.244C126.801 88.244 126.525 87.944 126.525 87.332V83.564H127.989V82.724H126.525V81.296H125.529V82.724H124.629V83.564H125.529V87.428C125.529 88.412 126.081 89.084 127.221 89.084ZM130.838 89H131.93L133.394 84.296L134.702 89H135.806L137.762 82.724H136.742L135.266 87.776L133.838 82.724H132.974L131.45 87.776L129.986 82.724H128.906L130.838 89ZM140.56 89.108C141.484 89.108 142.048 88.796 142.516 88.208V89H143.512V84.86C143.512 83.108 142.42 82.616 141.22 82.616C140.008 82.616 138.868 83.144 138.736 84.572H139.732C139.828 83.804 140.308 83.444 141.172 83.444C142.132 83.444 142.516 83.864 142.516 84.86V85.316H141.616C140.008 85.316 138.472 85.808 138.472 87.26C138.472 88.544 139.396 89.108 140.56 89.108ZM140.656 88.316C139.78 88.316 139.468 87.908 139.468 87.26C139.468 86.336 140.392 86.024 141.652 86.024H142.516V86.804C142.516 87.776 141.712 88.316 140.656 88.316ZM145.469 89H146.465V85.556C146.465 84.008 147.269 83.612 148.529 83.552V82.616C147.401 82.652 146.861 83.144 146.465 83.852V82.724H145.469V89ZM152.373 89.108C153.789 89.108 154.833 88.448 155.049 87.188H154.053C153.921 87.92 153.357 88.28 152.385 88.28C151.101 88.28 150.417 87.488 150.369 86.06H155.097V85.736C155.097 83.492 153.729 82.616 152.277 82.616C150.549 82.616 149.337 83.936 149.337 85.832V85.928C149.337 87.86 150.597 89.108 152.373 89.108ZM150.405 85.256C150.573 84.14 151.257 83.444 152.277 83.444C153.309 83.444 153.981 83.96 154.077 85.256H150.405Z" fill="white"/>
<path d="M37.336 149H43.564V148.112H38.908L43.636 140.576V140.42H37.768V141.272H42.196L37.336 148.832V149ZM47.5369 149.108C48.9529 149.108 49.9969 148.448 50.2129 147.188H49.2169C49.0849 147.92 48.5209 148.28 47.5489 148.28C46.2649 148.28 45.5809 147.488 45.5329 146.06H50.2609V145.736C50.2609 143.492 48.8929 142.616 47.4409 142.616C45.7129 142.616 44.5009 143.936 44.5009 145.832V145.928C44.5009 147.86 45.7609 149.108 47.5369 149.108ZM45.5689 145.256C45.7369 144.14 46.4209 143.444 47.4409 143.444C48.4729 143.444 49.1449 143.96 49.2409 145.256H45.5689ZM51.7893 149H52.7853V145.196C52.7853 144.068 53.6133 143.48 54.5373 143.48C55.5453 143.48 56.0133 143.972 56.0133 145.076V149H57.0093V145.148C57.0093 143.324 56.0973 142.616 54.8013 142.616C53.7693 142.616 53.0733 143.132 52.7853 143.72V142.724H51.7893V149ZM61.3251 149.108C62.2371 149.108 63.1131 148.532 63.4731 147.92V149H64.4691V139.724H63.4731V143.732C63.1131 143.12 62.4651 142.616 61.4211 142.616C59.6931 142.616 58.4931 143.972 58.4931 145.892V145.988C58.4931 147.944 59.6811 149.108 61.3251 149.108ZM61.4331 148.28C60.3771 148.28 59.5251 147.524 59.5251 145.94V145.844C59.5251 144.32 60.2691 143.444 61.5171 143.444C62.7411 143.444 63.5091 144.2 63.5091 145.808V145.904C63.5091 147.512 62.5971 148.28 61.4331 148.28ZM69.0526 149.108C70.4686 149.108 71.5126 148.448 71.7286 147.188H70.7326C70.6006 147.92 70.0366 148.28 69.0646 148.28C67.7806 148.28 67.0966 147.488 67.0486 146.06H71.7766V145.736C71.7766 143.492 70.4086 142.616 68.9566 142.616C67.2286 142.616 66.0166 143.936 66.0166 145.832V145.928C66.0166 147.86 67.2766 149.108 69.0526 149.108ZM67.0846 145.256C67.2526 144.14 67.9366 143.444 68.9566 143.444C69.9886 143.444 70.6606 143.96 70.7566 145.256H67.0846ZM75.3075 149.108C76.8315 149.108 77.6115 148.34 77.6115 147.2C77.6115 145.868 76.6995 145.58 75.4035 145.34C74.2515 145.136 73.9395 144.908 73.9395 144.344C73.9395 143.804 74.4075 143.444 75.1275 143.444C75.9195 143.444 76.3035 143.744 76.4475 144.428H77.4075C77.2395 143.072 76.2675 142.616 75.1395 142.616C74.1555 142.616 73.0155 143.216 73.0155 144.38C73.0155 145.472 73.5675 145.928 75.1995 146.228C76.1715 146.408 76.6635 146.624 76.6635 147.284C76.6635 147.956 76.2435 148.28 75.2955 148.28C74.2875 148.28 73.8915 147.812 73.8195 147.068H72.8475C72.9075 148.352 73.8075 149.108 75.3075 149.108ZM79.1291 149H80.1251V145.748L82.9091 149H84.1211L81.2051 145.64L83.8931 142.724H82.7291L80.1251 145.616V139.724H79.1291V149Z" fill="white"/>
<path d="M41.812 209.108C44.008 209.108 45.532 207.788 45.532 205.304V204.668H42.004V205.532H44.512C44.476 207.056 43.672 208.268 41.812 208.268C39.796 208.268 38.74 206.876 38.74 204.752V204.656C38.74 202.556 39.868 201.116 41.836 201.116C43.084 201.116 44.02 201.644 44.26 203.012H45.304C45.04 201.08 43.516 200.288 41.812 200.288C39.352 200.288 37.66 202.16 37.66 204.668V204.764C37.66 207.272 39.172 209.108 41.812 209.108ZM49.8232 208.28C48.5512 208.28 47.7712 207.344 47.7712 205.916V205.82C47.7712 204.38 48.5632 203.444 49.8232 203.444C51.0712 203.444 51.8752 204.38 51.8752 205.832V205.916C51.8752 207.332 51.0832 208.28 49.8232 208.28ZM49.8112 209.108C51.5992 209.108 52.9072 207.8 52.9072 205.904V205.808C52.9072 203.924 51.5992 202.616 49.8232 202.616C48.0472 202.616 46.7392 203.936 46.7392 205.82V205.916C46.7392 207.752 48.0232 209.108 49.8112 209.108ZM57.0654 208.28C55.7934 208.28 55.0134 207.344 55.0134 205.916V205.82C55.0134 204.38 55.8054 203.444 57.0654 203.444C58.3134 203.444 59.1174 204.38 59.1174 205.832V205.916C59.1174 207.332 58.3254 208.28 57.0654 208.28ZM57.0534 209.108C58.8414 209.108 60.1494 207.8 60.1494 205.904V205.808C60.1494 203.924 58.8414 202.616 57.0654 202.616C55.2894 202.616 53.9814 203.936 53.9814 205.82V205.916C53.9814 207.752 55.2654 209.108 57.0534 209.108ZM64.1996 211.292C65.9516 211.292 67.1876 210.404 67.1996 208.58V202.724H66.2036V203.732C65.8436 203.12 65.1956 202.616 64.1516 202.616C62.4236 202.616 61.2236 204.032 61.2236 205.736V205.82C61.2236 207.548 62.4356 208.796 64.0796 208.796C64.9916 208.796 65.8436 208.22 66.2036 207.608V208.52C66.2036 209.864 65.4236 210.452 64.1876 210.452C63.1196 210.452 62.5196 210.08 62.3756 209.36H61.3556C61.5236 210.416 62.3396 211.292 64.1996 211.292ZM64.1876 207.968C63.1316 207.968 62.2556 207.152 62.2556 205.784V205.688C62.2556 204.368 62.9996 203.444 64.2476 203.444C65.4716 203.444 66.2396 204.26 66.2396 205.664V205.748C66.2396 207.152 65.3516 207.968 64.1876 207.968ZM69.239 209H70.247V199.724H69.239V209ZM74.8533 209.108C76.2693 209.108 77.3133 208.448 77.5293 207.188H76.5333C76.4013 207.92 75.8373 208.28 74.8653 208.28C73.5813 208.28 72.8973 207.488 72.8493 206.06H77.5773V205.736C77.5773 203.492 76.2093 202.616 74.7573 202.616C73.0293 202.616 71.8173 203.936 71.8173 205.832V205.928C71.8173 207.86 73.0773 209.108 74.8533 209.108ZM72.8853 205.256C73.0533 204.14 73.7373 203.444 74.7573 203.444C75.7893 203.444 76.4613 203.96 76.5573 205.256H72.8853ZM81.7054 209H82.6894L83.5174 206.528H87.0574L87.8974 209H88.9294L86.0254 200.42H84.6574L81.7054 209ZM85.2934 201.284L86.7814 205.7H83.8054L85.2934 201.284ZM90.3674 209H91.3634V205.196C91.3634 204.068 92.1914 203.48 93.1154 203.48C94.1234 203.48 94.5914 203.972 94.5914 205.076V209H95.5874V205.148C95.5874 203.324 94.6754 202.616 93.3794 202.616C92.3474 202.616 91.6514 203.132 91.3634 203.72V202.724H90.3674V209ZM99.1113 209.108C100.035 209.108 100.599 208.796 101.067 208.208V209H102.063V204.86C102.063 203.108 100.971 202.616 99.7713 202.616C98.5593 202.616 97.4193 203.144 97.2873 204.572H98.2833C98.3793 203.804 98.8593 203.444 99.7233 203.444C100.683 203.444 101.067 203.864 101.067 204.86V205.316H100.167C98.5593 205.316 97.0233 205.808 97.0233 207.26C97.0233 208.544 97.9473 209.108 99.1113 209.108ZM99.2073 208.316C98.3313 208.316 98.0193 207.908 98.0193 207.26C98.0193 206.336 98.9433 206.024 100.203 206.024H101.067V206.804C101.067 207.776 100.263 208.316 99.2073 208.316ZM104.044 209H105.052V199.724H104.044V209ZM107.654 211.184H108.662L112.13 202.724H111.11L109.37 207.224L107.45 202.724H106.382L108.842 208.352L107.654 211.184ZM115.467 209.084C115.875 209.084 116.115 209.024 116.319 208.952V208.112C116.103 208.196 115.863 208.244 115.551 208.244C115.047 208.244 114.771 207.944 114.771 207.332V203.564H116.235V202.724H114.771V201.296H113.775V202.724H112.875V203.564H113.775V207.428C113.775 208.412 114.327 209.084 115.467 209.084ZM117.848 209H118.844V202.724H117.848V209ZM118.328 201.416C118.688 201.416 118.988 201.116 118.988 200.756C118.988 200.396 118.688 200.096 118.328 200.096C117.968 200.096 117.668 200.396 117.668 200.756C117.668 201.116 117.968 201.416 118.328 201.416ZM123.487 209.108C124.999 209.108 126.091 208.1 126.223 206.744H125.299C125.191 207.764 124.387 208.28 123.499 208.28C122.287 208.28 121.447 207.464 121.447 205.928V205.832C121.447 204.356 122.323 203.444 123.463 203.444C124.327 203.444 125.047 203.816 125.203 204.812H126.187C125.995 203.216 124.771 202.616 123.463 202.616C121.783 202.616 120.415 203.912 120.415 205.832V205.928C120.415 207.872 121.735 209.108 123.487 209.108ZM129.671 209.108C131.195 209.108 131.975 208.34 131.975 207.2C131.975 205.868 131.063 205.58 129.767 205.34C128.615 205.136 128.303 204.908 128.303 204.344C128.303 203.804 128.771 203.444 129.491 203.444C130.283 203.444 130.667 203.744 130.811 204.428H131.771C131.603 203.072 130.631 202.616 129.503 202.616C128.519 202.616 127.379 203.216 127.379 204.38C127.379 205.472 127.931 205.928 129.563 206.228C130.535 206.408 131.027 206.624 131.027 207.284C131.027 207.956 130.607 208.28 129.659 208.28C128.651 208.28 128.255 207.812 128.183 207.068H127.211C127.271 208.352 128.171 209.108 129.671 209.108Z" fill="white"/>
<path d="M40.852 179.108C42.556 179.108 43.816 178.016 43.816 176.576C43.816 174.956 42.808 174.38 40.9 174.08C39.148 173.816 38.836 173.384 38.836 172.544C38.836 171.74 39.448 171.152 40.624 171.152C41.812 171.152 42.436 171.596 42.64 172.676H43.576C43.408 171.152 42.34 170.312 40.624 170.312C39.004 170.312 37.864 171.32 37.864 172.64C37.864 174.164 38.932 174.728 40.732 175.004C42.364 175.268 42.808 175.676 42.808 176.648C42.808 177.62 41.956 178.268 40.852 178.268C39.124 178.268 38.716 177.404 38.584 176.384H37.576C37.732 177.848 38.56 179.108 40.852 179.108ZM45.5554 179H46.5634V169.724H45.5554V179ZM50.1738 179.108C51.0978 179.108 51.6618 178.796 52.1298 178.208V179H53.1258V174.86C53.1258 173.108 52.0338 172.616 50.8338 172.616C49.6218 172.616 48.4818 173.144 48.3498 174.572H49.3458C49.4418 173.804 49.9218 173.444 50.7858 173.444C51.7458 173.444 52.1298 173.864 52.1298 174.86V175.316H51.2298C49.6218 175.316 48.0858 175.808 48.0858 177.26C48.0858 178.544 49.0098 179.108 50.1738 179.108ZM50.2698 178.316C49.3938 178.316 49.0818 177.908 49.0818 177.26C49.0818 176.336 50.0058 176.024 51.2658 176.024H52.1298V176.804C52.1298 177.776 51.3258 178.316 50.2698 178.316ZM57.6862 179.108C59.1982 179.108 60.2902 178.1 60.4222 176.744H59.4982C59.3902 177.764 58.5862 178.28 57.6982 178.28C56.4862 178.28 55.6462 177.464 55.6462 175.928V175.832C55.6462 174.356 56.5222 173.444 57.6622 173.444C58.5262 173.444 59.2462 173.816 59.4022 174.812H60.3862C60.1942 173.216 58.9702 172.616 57.6622 172.616C55.9822 172.616 54.6142 173.912 54.6142 175.832V175.928C54.6142 177.872 55.9342 179.108 57.6862 179.108ZM61.926 179H62.922V175.748L65.706 179H66.918L64.002 175.64L66.69 172.724H65.526L62.922 175.616V169.724H61.926V179Z" fill="white"/>
<path d="M37.336 119H43.564V118.112H38.908L43.636 110.576V110.42H37.768V111.272H42.196L37.336 118.832V119ZM47.5849 118.28C46.3129 118.28 45.5329 117.344 45.5329 115.916V115.82C45.5329 114.38 46.3249 113.444 47.5849 113.444C48.8329 113.444 49.6369 114.38 49.6369 115.832V115.916C49.6369 117.332 48.8449 118.28 47.5849 118.28ZM47.5729 119.108C49.3609 119.108 50.6689 117.8 50.6689 115.904V115.808C50.6689 113.924 49.3609 112.616 47.5849 112.616C45.8089 112.616 44.5009 113.936 44.5009 115.82V115.916C44.5009 117.752 45.7849 119.108 47.5729 119.108ZM54.8271 118.28C53.5551 118.28 52.7751 117.344 52.7751 115.916V115.82C52.7751 114.38 53.5671 113.444 54.8271 113.444C56.0751 113.444 56.8791 114.38 56.8791 115.832V115.916C56.8791 117.332 56.0871 118.28 54.8271 118.28ZM54.8151 119.108C56.6031 119.108 57.9111 117.8 57.9111 115.904V115.808C57.9111 113.924 56.6031 112.616 54.8271 112.616C53.0511 112.616 51.7431 113.936 51.7431 115.82V115.916C51.7431 117.752 53.0271 119.108 54.8151 119.108ZM59.4533 119H60.4493V115.16C60.4493 114.032 61.2893 113.48 62.1053 113.48C62.9693 113.48 63.4373 113.936 63.4373 115.04V119H64.4333V115.16C64.4333 114.032 65.2733 113.48 66.0893 113.48C66.9533 113.48 67.4213 113.936 67.4213 115.04V119H68.4173V115.112C68.4173 113.288 67.4333 112.616 66.3053 112.616C65.5253 112.616 64.5893 112.976 64.1573 113.792C63.8333 112.952 63.1253 112.616 62.3213 112.616C61.4213 112.616 60.7373 113.096 60.4493 113.684V112.724H59.4533V119Z" fill="white"/>
</svg>
