<svg width="429" height="290" viewBox="0 0 429 290" fill="none" xmlns="http://www.w3.org/2000/svg">
<path d="M2.81787 12.7827H6.93387C9.24387 12.7827 10.4479 11.8167 10.4479 9.98271V9.92671C10.4479 8.58271 9.74787 7.84071 8.44587 7.57471C9.56587 7.25271 10.0699 6.48271 10.0699 5.43271V5.37671C10.0699 3.66871 8.93587 2.77271 6.75187 2.77271H2.81787V12.7827ZM5.02987 11.2147V8.34471H6.47187C7.70387 8.34471 8.20787 8.82071 8.20787 9.74471V9.80071C8.20787 10.7107 7.70387 11.2147 6.58387 11.2147H5.02987ZM5.02987 6.88871V4.32671H6.37387C7.43787 4.32671 7.91387 4.70471 7.91387 5.54471V5.60071C7.91387 6.49671 7.47987 6.88871 6.38787 6.88871H5.02987ZM11.8644 12.7827H13.8944V9.11471C13.8944 7.71471 14.7624 7.22471 16.2604 7.23871V5.34871C15.0704 5.36271 14.3564 5.88071 13.8944 6.86071V5.46071H11.8644V12.7827ZM20.8302 12.9367C22.8322 12.9367 24.0922 12.0547 24.3302 10.4727H22.4122C22.2862 11.0887 21.8242 11.4947 20.8862 11.4947C19.7802 11.4947 19.1222 10.7947 19.0662 9.57671H24.3442V9.01671C24.3442 6.39871 22.6642 5.29271 20.7742 5.29271C18.6462 5.29271 17.0082 6.79071 17.0082 9.10071V9.21271C17.0082 11.5507 18.6182 12.9367 20.8302 12.9367ZM19.0942 8.33071C19.2482 7.29471 19.8642 6.69271 20.7742 6.69271C21.7402 6.69271 22.3002 7.22471 22.3702 8.33071H19.0942ZM27.7153 12.9367C28.8633 12.9367 29.5073 12.4887 29.9273 11.9007V12.7827H31.9013V8.00871C31.9013 6.02071 30.6273 5.29271 28.8353 5.29271C27.0433 5.29271 25.6713 6.06271 25.5453 7.79871H27.4633C27.5473 7.16871 27.9113 6.76271 28.7093 6.76271C29.6333 6.76271 29.8993 7.23871 29.8993 8.10671V8.40071H29.0733C26.8333 8.40071 25.2653 9.04471 25.2653 10.7527C25.2653 12.2927 26.3853 12.9367 27.7153 12.9367ZM28.3173 11.5227C27.5753 11.5227 27.2533 11.1727 27.2533 10.6407C27.2533 9.85671 27.9393 9.60471 29.1153 9.60471H29.8993V10.2207C29.8993 11.0327 29.2133 11.5227 28.3173 11.5227ZM33.6437 12.7827H35.6737V9.32471L38.0957 12.7827H40.3917L37.5217 8.79271L40.1817 5.46071H38.0257L35.6737 8.55471V2.14271H33.6437V12.7827ZM43.8799 12.9367C44.9579 12.9367 45.8539 12.3067 46.2319 11.5647V12.7827H48.2479V2.14271H46.2319V6.55271C45.8259 5.81071 45.0979 5.29271 43.9219 5.29271C42.0879 5.29271 40.7019 6.70671 40.7019 9.11471V9.22671C40.7019 11.6627 42.1019 12.9367 43.8799 12.9367ZM44.4819 11.3547C43.4739 11.3547 42.7739 10.6407 42.7739 9.18471V9.07271C42.7739 7.61671 43.4039 6.84671 44.5379 6.84671C45.6439 6.84671 46.2879 7.58871 46.2879 9.04471V9.15671C46.2879 10.6407 45.5459 11.3547 44.4819 11.3547ZM53.4659 11.3967C52.3179 11.3967 51.6739 10.5567 51.6739 9.15671V9.04471C51.6739 7.64471 52.3459 6.83271 53.4659 6.83271C54.5999 6.83271 55.2579 7.67271 55.2579 9.07271V9.17071C55.2579 10.5567 54.5999 11.3967 53.4659 11.3967ZM53.4519 12.9367C55.6499 12.9367 57.3159 11.4667 57.3159 9.15671V9.04471C57.3159 6.76271 55.6639 5.29271 53.4659 5.29271C51.2679 5.29271 49.6019 6.79071 49.6019 9.08671V9.19871C49.6019 11.4807 51.2679 12.9367 53.4519 12.9367ZM60.0258 12.7827H62.0418L63.3858 8.19071L64.6318 12.7827H66.6198L68.9298 5.46071H66.9838L65.5978 10.3887L64.3098 5.46071H62.6438L61.2298 10.3887L59.9278 5.46071H57.7998L60.0258 12.7827ZM70.0382 12.7827H72.0682V8.55471C72.0682 7.47671 72.7262 6.94471 73.5942 6.94471C74.4902 6.94471 74.8822 7.42071 74.8822 8.41471V12.7827H76.9122V8.12071C76.9122 6.16071 75.8902 5.29271 74.4482 5.29271C73.2302 5.29271 72.4322 5.89471 72.0682 6.62271V5.46071H70.0382V12.7827ZM85.171 11.3967C84.023 11.3967 83.379 10.5567 83.379 9.15671V9.04471C83.379 7.64471 84.051 6.83271 85.171 6.83271C86.305 6.83271 86.963 7.67271 86.963 9.07271V9.17071C86.963 10.5567 86.305 11.3967 85.171 11.3967ZM85.157 12.9367C87.355 12.9367 89.021 11.4667 89.021 9.15671V9.04471C89.021 6.76271 87.369 5.29271 85.171 5.29271C82.973 5.29271 81.307 6.79071 81.307 9.08671V9.19871C81.307 11.4807 82.973 12.9367 85.157 12.9367ZM90.718 12.7827H92.734V6.90271H94.33V5.46071H92.734V4.56471C92.734 4.00471 93 3.59871 93.644 3.59871C93.938 3.59871 94.19 3.65471 94.386 3.72471V2.19871C94.064 2.10071 93.77 2.05871 93.336 2.05871C91.712 2.05871 90.718 2.91271 90.718 4.62071V5.46071H89.752V6.90271H90.718V12.7827ZM98.8628 12.7827H101.131V8.65271H105.149V12.7827H107.417V2.77271H105.149V6.86071H101.131V2.77271H98.8628V12.7827ZM112.678 12.9367C114.68 12.9367 115.94 12.0547 116.178 10.4727H114.26C114.134 11.0887 113.672 11.4947 112.734 11.4947C111.628 11.4947 110.97 10.7947 110.914 9.57671H116.192V9.01671C116.192 6.39871 114.512 5.29271 112.622 5.29271C110.494 5.29271 108.856 6.79071 108.856 9.10071V9.21271C108.856 11.5507 110.466 12.9367 112.678 12.9367ZM110.942 8.33071C111.096 7.29471 111.712 6.69271 112.622 6.69271C113.588 6.69271 114.148 7.22471 114.218 8.33071H110.942ZM119.563 12.9367C120.711 12.9367 121.355 12.4887 121.775 11.9007V12.7827H123.749V8.00871C123.749 6.02071 122.475 5.29271 120.683 5.29271C118.891 5.29271 117.519 6.06271 117.393 7.79871H119.311C119.395 7.16871 119.759 6.76271 120.557 6.76271C121.481 6.76271 121.747 7.23871 121.747 8.10671V8.40071H120.921C118.681 8.40071 117.113 9.04471 117.113 10.7527C117.113 12.2927 118.233 12.9367 119.563 12.9367ZM120.165 11.5227C119.423 11.5227 119.101 11.1727 119.101 10.6407C119.101 9.85671 119.787 9.60471 120.963 9.60471H121.747V10.2207C121.747 11.0327 121.061 11.5227 120.165 11.5227ZM128.235 12.9367C129.313 12.9367 130.209 12.3067 130.587 11.5647V12.7827H132.603V2.14271H130.587V6.55271C130.181 5.81071 129.453 5.29271 128.277 5.29271C126.443 5.29271 125.057 6.70671 125.057 9.11471V9.22671C125.057 11.6627 126.457 12.9367 128.235 12.9367ZM128.837 11.3547C127.829 11.3547 127.129 10.6407 127.129 9.18471V9.07271C127.129 7.61671 127.759 6.84671 128.893 6.84671C129.999 6.84671 130.643 7.58871 130.643 9.04471V9.15671C130.643 10.6407 129.901 11.3547 128.837 11.3547ZM137.723 12.9367C139.851 12.9367 141.111 11.7327 141.223 9.99671H139.389C139.291 10.9347 138.633 11.4107 137.821 11.4107C136.687 11.4107 136.029 10.6547 136.029 9.18471V9.07271C136.029 7.67271 136.729 6.88871 137.779 6.88871C138.605 6.88871 139.123 7.28071 139.263 8.13471H141.181C140.999 6.03471 139.431 5.29271 137.737 5.29271C135.651 5.29271 133.957 6.73471 133.957 9.10071V9.21271C133.957 11.6067 135.581 12.9367 137.723 12.9367ZM145.915 11.3967C144.767 11.3967 144.123 10.5567 144.123 9.15671V9.04471C144.123 7.64471 144.795 6.83271 145.915 6.83271C147.049 6.83271 147.707 7.67271 147.707 9.07271V9.17071C147.707 10.5567 147.049 11.3967 145.915 11.3967ZM145.901 12.9367C148.099 12.9367 149.765 11.4667 149.765 9.15671V9.04471C149.765 6.76271 148.113 5.29271 145.915 5.29271C143.717 5.29271 142.051 6.79071 142.051 9.08671V9.19871C142.051 11.4807 143.717 12.9367 145.901 12.9367ZM153.562 12.9367C154.766 12.9367 155.508 12.3767 155.886 11.6347V12.7827H157.902V5.46071H155.886V9.75871C155.886 10.8367 155.214 11.3687 154.36 11.3687C153.492 11.3687 153.086 10.8927 153.086 9.89871V5.46071H151.07V10.1787C151.07 12.0967 152.134 12.9367 153.562 12.9367ZM159.698 12.7827H161.728V8.55471C161.728 7.47671 162.386 6.94471 163.254 6.94471C164.15 6.94471 164.542 7.42071 164.542 8.41471V12.7827H166.572V8.12071C166.572 6.16071 165.55 5.29271 164.108 5.29271C162.89 5.29271 162.092 5.89471 161.728 6.62271V5.46071H159.698V12.7827ZM170.986 12.9227C171.532 12.9227 171.938 12.8247 172.218 12.7267V11.1587C171.98 11.2567 171.756 11.2987 171.448 11.2987C170.93 11.2987 170.636 11.0187 170.636 10.4307V6.90271H172.176V5.46071H170.636V3.87871H168.62V5.46071H167.682V6.90271H168.62V10.6127C168.62 12.1387 169.446 12.9227 170.986 12.9227ZM181.061 12.9367C182.881 12.9367 184.253 11.5787 184.253 9.15671V9.04471C184.253 6.62271 182.853 5.29271 181.061 5.29271C179.983 5.29271 179.129 5.90871 178.723 6.60871V2.14271H176.693V12.7827H178.723V11.6207C179.101 12.3767 179.927 12.9367 181.061 12.9367ZM180.459 11.3547C179.353 11.3547 178.653 10.6407 178.653 9.17071V9.05871C178.653 7.58871 179.381 6.84671 180.445 6.84671C181.467 6.84671 182.195 7.57471 182.195 9.05871V9.17071C182.195 10.5987 181.579 11.3547 180.459 11.3547ZM186.325 15.2747H188.285L192.247 5.46071H190.301L188.663 9.85671L186.885 5.46071H184.701L187.613 12.0407L186.325 15.2747ZM201.292 11.1307C199.654 11.1307 198.478 9.87071 198.478 7.82671V7.71471C198.478 5.69871 199.528 4.42471 201.264 4.42471C203.014 4.42471 204.05 5.75471 204.05 7.70071V7.81271C204.05 9.82871 202.986 11.1307 201.292 11.1307ZM201.25 12.9367C204.372 12.9367 206.416 10.7667 206.416 7.78471V7.67271C206.416 4.66271 204.274 2.63271 201.264 2.63271C198.296 2.63271 196.112 4.74671 196.112 7.72871V7.84071C196.112 10.7667 198.114 12.9367 201.25 12.9367ZM207.878 12.7827H209.908V9.11471C209.908 7.71471 210.776 7.22471 212.274 7.23871V5.34871C211.084 5.36271 210.37 5.88071 209.908 6.86071V5.46071H207.878V12.7827ZM216.718 15.4847C219.126 15.4847 220.568 14.3787 220.582 12.2087V5.46071H218.566V6.55271C218.146 5.81071 217.432 5.29271 216.242 5.29271C214.422 5.29271 213.022 6.76271 213.022 8.86271V8.96071C213.022 11.1307 214.436 12.4607 216.214 12.4607C217.292 12.4607 218.16 11.8167 218.566 11.1027V12.2087C218.566 13.3567 217.95 14.0007 216.718 14.0007C215.682 14.0007 215.22 13.5807 215.094 12.9367H213.078C213.274 14.4487 214.352 15.4847 216.718 15.4847ZM216.816 10.9347C215.808 10.9347 215.094 10.1787 215.094 8.96071V8.84871C215.094 7.64471 215.724 6.83271 216.858 6.83271C217.964 6.83271 218.622 7.58871 218.622 8.83471V8.93271C218.622 10.1787 217.88 10.9347 216.816 10.9347ZM224.344 12.9367C225.492 12.9367 226.136 12.4887 226.556 11.9007V12.7827H228.53V8.00871C228.53 6.02071 227.256 5.29271 225.464 5.29271C223.672 5.29271 222.3 6.06271 222.174 7.79871H224.092C224.176 7.16871 224.54 6.76271 225.338 6.76271C226.262 6.76271 226.528 7.23871 226.528 8.10671V8.40071H225.702C223.462 8.40071 221.894 9.04471 221.894 10.7527C221.894 12.2927 223.014 12.9367 224.344 12.9367ZM224.946 11.5227C224.204 11.5227 223.882 11.1727 223.882 10.6407C223.882 9.85671 224.568 9.60471 225.744 9.60471H226.528V10.2207C226.528 11.0327 225.842 11.5227 224.946 11.5227ZM230.273 12.7827H232.303V8.55471C232.303 7.47671 232.961 6.94471 233.829 6.94471C234.725 6.94471 235.117 7.42071 235.117 8.41471V12.7827H237.147V8.12071C237.147 6.16071 236.125 5.29271 234.683 5.29271C233.465 5.29271 232.667 5.89471 232.303 6.62271V5.46071H230.273V12.7827ZM238.942 12.7827H240.958V5.46071H238.942V12.7827ZM239.936 4.46671C240.594 4.46671 241.098 3.99071 241.098 3.36071C241.098 2.73071 240.594 2.25471 239.936 2.25471C239.292 2.25471 238.788 2.73071 238.788 3.36071C238.788 3.99071 239.292 4.46671 239.936 4.46671ZM242.123 12.7827H248.535V11.2147H245.035L248.675 5.71271V5.46071H242.487V7.02871H245.735L242.123 12.5587V12.7827ZM251.852 12.9367C253 12.9367 253.644 12.4887 254.064 11.9007V12.7827H256.038V8.00871C256.038 6.02071 254.764 5.29271 252.972 5.29271C251.18 5.29271 249.808 6.06271 249.682 7.79871H251.6C251.684 7.16871 252.048 6.76271 252.846 6.76271C253.77 6.76271 254.036 7.23871 254.036 8.10671V8.40071H253.21C250.97 8.40071 249.402 9.04471 249.402 10.7527C249.402 12.2927 250.522 12.9367 251.852 12.9367ZM252.454 11.5227C251.712 11.5227 251.39 11.1727 251.39 10.6407C251.39 9.85671 252.076 9.60471 253.252 9.60471H254.036V10.2207C254.036 11.0327 253.35 11.5227 252.454 11.5227ZM260.454 12.9227C261 12.9227 261.406 12.8247 261.686 12.7267V11.1587C261.448 11.2567 261.224 11.2987 260.916 11.2987C260.398 11.2987 260.104 11.0187 260.104 10.4307V6.90271H261.644V5.46071H260.104V3.87871H258.088V5.46071H257.15V6.90271H258.088V10.6127C258.088 12.1387 258.914 12.9227 260.454 12.9227ZM263.114 12.7827H265.13V5.46071H263.114V12.7827ZM264.108 4.46671C264.766 4.46671 265.27 3.99071 265.27 3.36071C265.27 2.73071 264.766 2.25471 264.108 2.25471C263.464 2.25471 262.96 2.73071 262.96 3.36071C262.96 3.99071 263.464 4.46671 264.108 4.46671ZM270.411 11.3967C269.263 11.3967 268.619 10.5567 268.619 9.15671V9.04471C268.619 7.64471 269.291 6.83271 270.411 6.83271C271.545 6.83271 272.203 7.67271 272.203 9.07271V9.17071C272.203 10.5567 271.545 11.3967 270.411 11.3967ZM270.397 12.9367C272.595 12.9367 274.261 11.4667 274.261 9.15671V9.04471C274.261 6.76271 272.609 5.29271 270.411 5.29271C268.213 5.29271 266.547 6.79071 266.547 9.08671V9.19871C266.547 11.4807 268.213 12.9367 270.397 12.9367ZM275.622 12.7827H277.652V8.55471C277.652 7.47671 278.31 6.94471 279.178 6.94471C280.074 6.94471 280.466 7.42071 280.466 8.41471V12.7827H282.496V8.12071C282.496 6.16071 281.474 5.29271 280.032 5.29271C278.814 5.29271 278.016 5.89471 277.652 6.62271V5.46071H275.622V12.7827ZM287.521 12.7827H289.789V8.65271H293.807V12.7827H296.075V2.77271H293.807V6.86071H289.789V2.77271H287.521V12.7827ZM298.086 12.7827H300.102V5.46071H298.086V12.7827ZM299.08 4.46671C299.738 4.46671 300.242 3.99071 300.242 3.36071C300.242 2.73071 299.738 2.25471 299.08 2.25471C298.436 2.25471 297.932 2.73071 297.932 3.36071C297.932 3.99071 298.436 4.46671 299.08 4.46671ZM305.342 12.9367C307.344 12.9367 308.604 12.0547 308.842 10.4727H306.924C306.798 11.0887 306.336 11.4947 305.398 11.4947C304.292 11.4947 303.634 10.7947 303.578 9.57671H308.856V9.01671C308.856 6.39871 307.176 5.29271 305.286 5.29271C303.158 5.29271 301.52 6.79071 301.52 9.10071V9.21271C301.52 11.5507 303.13 12.9367 305.342 12.9367ZM303.606 8.33071C303.76 7.29471 304.376 6.69271 305.286 6.69271C306.252 6.69271 306.812 7.22471 306.882 8.33071H303.606ZM310.185 12.7827H312.215V9.11471C312.215 7.71471 313.083 7.22471 314.581 7.23871V5.34871C313.391 5.36271 312.677 5.88071 312.215 6.86071V5.46071H310.185V12.7827ZM317.75 12.9367C318.898 12.9367 319.542 12.4887 319.962 11.9007V12.7827H321.936V8.00871C321.936 6.02071 320.662 5.29271 318.87 5.29271C317.078 5.29271 315.706 6.06271 315.58 7.79871H317.498C317.582 7.16871 317.946 6.76271 318.744 6.76271C319.668 6.76271 319.934 7.23871 319.934 8.10671V8.40071H319.108C316.868 8.40071 315.3 9.04471 315.3 10.7527C315.3 12.2927 316.42 12.9367 317.75 12.9367ZM318.352 11.5227C317.61 11.5227 317.288 11.1727 317.288 10.6407C317.288 9.85671 317.974 9.60471 319.15 9.60471H319.934V10.2207C319.934 11.0327 319.248 11.5227 318.352 11.5227ZM323.679 12.7827H325.709V9.11471C325.709 7.71471 326.577 7.22471 328.075 7.23871V5.34871C326.885 5.36271 326.171 5.88071 325.709 6.86071V5.46071H323.679V12.7827ZM332.589 12.9367C334.717 12.9367 335.977 11.7327 336.089 9.99671H334.255C334.157 10.9347 333.499 11.4107 332.687 11.4107C331.553 11.4107 330.895 10.6547 330.895 9.18471V9.07271C330.895 7.67271 331.595 6.88871 332.645 6.88871C333.471 6.88871 333.989 7.28071 334.129 8.13471H336.047C335.865 6.03471 334.297 5.29271 332.603 5.29271C330.517 5.29271 328.823 6.73471 328.823 9.10071V9.21271C328.823 11.6067 330.447 12.9367 332.589 12.9367ZM337.364 12.7827H339.394V8.55471C339.394 7.47671 340.052 6.94471 340.92 6.94471C341.816 6.94471 342.208 7.42071 342.208 8.41471V12.7827H344.238V8.12071C344.238 6.16071 343.216 5.29271 341.774 5.29271C340.556 5.29271 339.758 5.89471 339.394 6.62271V2.14271H337.364V12.7827ZM346.697 15.2747H348.657L352.619 5.46071H350.673L349.035 9.85671L347.257 5.46071H345.073L347.985 12.0407L346.697 15.2747Z" fill="black"/>
<path d="M2.48491 30.7827H3.52891V26.9427H6.62491V26.0907H3.52891V23.0547H7.50091V22.2027H2.48491V30.7827ZM11.1684 30.8907C12.5844 30.8907 13.6284 30.2307 13.8444 28.9707H12.8484C12.7164 29.7027 12.1524 30.0627 11.1804 30.0627C9.89641 30.0627 9.21241 29.2707 9.16441 27.8427H13.8924V27.5187C13.8924 25.2747 12.5244 24.3987 11.0724 24.3987C9.34441 24.3987 8.13241 25.7187 8.13241 27.6147V27.7107C8.13241 29.6427 9.39241 30.8907 11.1684 30.8907ZM9.20041 27.0387C9.36841 25.9227 10.0524 25.2267 11.0724 25.2267C12.1044 25.2267 12.7764 25.7427 12.8724 27.0387H9.20041ZM18.5407 30.8907C20.2687 30.8907 21.3967 29.5707 21.3967 27.6507V27.5547C21.3967 25.5987 20.1847 24.3987 18.5407 24.3987C17.6287 24.3987 16.7767 24.9507 16.4167 25.5627V21.5067H15.4207V30.7827H16.4167V29.7507C16.7767 30.3747 17.5207 30.8907 18.5407 30.8907ZM18.4447 30.0627C17.2207 30.0627 16.3807 29.3067 16.3807 27.6987V27.6027C16.3807 25.9947 17.2687 25.2267 18.4327 25.2267C19.4887 25.2267 20.3647 26.0187 20.3647 27.6027V27.6987C20.3647 29.2227 19.6927 30.0627 18.4447 30.0627ZM25.3399 30.7827H31.0879V29.9307H26.9479L29.3119 27.6267C30.3679 26.5947 31.0399 25.5627 31.0399 24.5067C31.0399 23.0307 30.0319 22.0947 28.4479 22.0947C26.8159 22.0947 25.7959 23.1627 25.6639 24.8427H26.6359C26.8039 23.4987 27.4519 22.9347 28.4479 22.9347C29.4199 22.9347 29.9839 23.5107 29.9839 24.4707C29.9839 25.3467 29.5279 26.1267 28.7479 26.9547L25.3399 30.5427V30.7827ZM35.8259 30.0267C34.3979 30.0267 33.4859 28.8987 33.4859 26.7267V26.2467C33.4859 24.1347 34.3499 22.9347 35.8019 22.9347C37.2539 22.9347 38.0939 24.2307 38.0939 26.2227V26.7027C38.0939 28.8747 37.3259 30.0267 35.8259 30.0267ZM35.8259 30.8907C37.9379 30.8907 39.1499 29.2107 39.1499 26.7147V26.2347C39.1499 23.7867 37.9139 22.0947 35.8019 22.0947C33.7019 22.0947 32.4179 23.7267 32.4179 26.2587V26.7387C32.4179 29.2347 33.7739 30.8907 35.8259 30.8907ZM40.0938 30.7827H45.8418V29.9307H41.7018L44.0658 27.6267C45.1218 26.5947 45.7938 25.5627 45.7938 24.5067C45.7938 23.0307 44.7858 22.0947 43.2018 22.0947C41.5698 22.0947 40.5498 23.1627 40.4178 24.8427H41.3898C41.5578 23.4987 42.2058 22.9347 43.2018 22.9347C44.1738 22.9347 44.7378 23.5107 44.7378 24.4707C44.7378 25.3467 44.2818 26.1267 43.5018 26.9547L40.0938 30.5427V30.7827ZM46.7384 30.7827H52.4864V29.9307H48.3464L50.7104 27.6267C51.7664 26.5947 52.4384 25.5627 52.4384 24.5067C52.4384 23.0307 51.4304 22.0947 49.8464 22.0947C48.2144 22.0947 47.1944 23.1627 47.0624 24.8427H48.0344C48.2024 23.4987 48.8504 22.9347 49.8464 22.9347C50.8184 22.9347 51.3824 23.5107 51.3824 24.4707C51.3824 25.3467 50.9264 26.1267 50.1464 26.9547L46.7384 30.5427V30.7827Z" fill="black"/>
<path d="M1.27994 264.867H428" stroke="#CCCCCC"/>
<path d="M1.27994 211.19H428" stroke="#CCCCCC"/>
<path d="M1.27994 157.513H428" stroke="#CCCCCC"/>
<path d="M1.27994 103.836H428" stroke="#CCCCCC"/>
<path d="M1.27991 50.1586H428" stroke="#CCCCCC"/>
<path d="M43.9519 50.1586V264.867" stroke="#CCCCCC"/>
<path d="M129.296 50.1586V264.867" stroke="#CCCCCC"/>
<path d="M214.64 50.1586V264.867" stroke="#CCCCCC"/>
<path d="M299.984 50.1586V264.867" stroke="#CCCCCC"/>
<path d="M385.328 50.1586V264.867" stroke="#CCCCCC"/>
<path d="M1.27991 50.1586V264.867" stroke="#CCCCCC"/>
<path d="M428 50.1586V264.867" stroke="#CCCCCC"/>
<path d="M1.27994 264.867H428" stroke="black"/>
<path d="M43.952 269.149V264.867" stroke="black"/>
<path d="M24.9099 284.229H26.2399V281.299H28.6799V280.269H26.2399V278.139H29.3399V277.079H24.9099V284.229ZM30.3282 284.229H31.5382V278.999H30.3282V284.229ZM30.9182 278.139C31.3182 278.139 31.6382 277.839 31.6382 277.449C31.6382 277.049 31.3182 276.749 30.9182 276.749C30.5182 276.749 30.1982 277.049 30.1982 277.449C30.1982 277.839 30.5182 278.139 30.9182 278.139ZM33.013 284.229H34.223V281.149C34.223 280.319 34.773 279.899 35.453 279.899C36.173 279.899 36.493 280.259 36.493 281.049V284.229H37.703V280.939C37.703 279.499 36.963 278.889 35.913 278.889C35.053 278.889 34.473 279.319 34.223 279.829V278.999H33.013V284.229ZM40.467 284.329C41.267 284.329 41.727 284.039 42.067 283.589V284.229H43.257V280.799C43.257 279.369 42.337 278.889 41.167 278.889C39.997 278.889 39.027 279.399 38.927 280.619H40.097C40.157 280.099 40.467 279.799 41.097 279.799C41.807 279.799 42.047 280.149 42.047 280.849V281.119H41.397C39.897 281.119 38.717 281.559 38.717 282.779C38.717 283.869 39.507 284.329 40.467 284.329ZM40.757 283.459C40.157 283.459 39.917 283.169 39.917 282.729C39.917 282.089 40.507 281.879 41.427 281.879H42.047V282.399C42.047 283.069 41.497 283.459 40.757 283.459ZM44.6439 284.229H45.8539V281.149C45.8539 280.319 46.4039 279.899 47.0839 279.899C47.8039 279.899 48.1239 280.259 48.1239 281.049V284.229H49.3339V280.939C49.3339 279.499 48.5939 278.889 47.5439 278.889C46.6839 278.889 46.1039 279.319 45.8539 279.829V278.999H44.6439V284.229ZM53.0178 284.329C54.4378 284.329 55.3478 283.479 55.4378 282.279H54.3278C54.2578 283.019 53.7078 283.399 53.0678 283.399C52.1778 283.399 51.6178 282.799 51.6178 281.659V281.579C51.6178 280.499 52.2078 279.859 53.0378 279.859C53.6778 279.859 54.1378 280.149 54.2378 280.849H55.4078C55.2678 279.409 54.1778 278.889 53.0178 278.889C51.5578 278.889 50.3778 279.939 50.3778 281.599V281.679C50.3778 283.349 51.5178 284.329 53.0178 284.329ZM58.7798 284.329C60.1198 284.329 61.0098 283.729 61.1798 282.629H60.0098C59.9198 283.139 59.5398 283.429 58.8098 283.429C57.9098 283.429 57.4098 282.869 57.3698 281.879H61.1998V281.529C61.1998 279.659 60.0298 278.889 58.7298 278.889C57.2398 278.889 56.1298 279.969 56.1298 281.589V281.669C56.1298 283.319 57.2398 284.329 58.7798 284.329ZM57.3898 281.069C57.5098 280.259 57.9998 279.769 58.7298 279.769C59.4798 279.769 59.9398 280.169 59.9998 281.069H57.3898Z" fill="black"/>
<path d="M129.296 269.149V264.867" stroke="black"/>
<path d="M123.085 284.229H124.415V281.189H127.625V284.229H128.965V277.079H127.625V280.119H124.415V277.079H123.085V284.229ZM130.594 284.229H131.924V281.339H132.774L134.644 284.229H136.084L134.074 281.139C134.964 280.909 135.664 280.339 135.664 279.219V279.179C135.664 277.719 134.564 277.079 132.994 277.079H130.594V284.229ZM131.924 280.389V278.109H132.994C133.844 278.109 134.354 278.389 134.354 279.209V279.249C134.354 280.009 133.884 280.389 132.994 280.389H131.924Z" fill="black"/>
<path d="M214.64 269.149V264.867" stroke="black"/>
<path d="M206.05 283.883C207.63 283.883 208.68 282.913 208.68 281.673C208.68 280.243 207.81 279.763 206.13 279.533C204.89 279.353 204.65 279.063 204.65 278.483C204.65 277.933 205.07 277.543 205.88 277.543C206.7 277.543 207.13 277.863 207.26 278.613H208.48C208.34 277.243 207.42 276.543 205.88 276.543C204.39 276.543 203.39 277.423 203.39 278.593C203.39 279.933 204.2 280.453 205.91 280.683C207.07 280.873 207.4 281.123 207.4 281.783C207.4 282.443 206.84 282.883 206.05 282.883C204.84 282.883 204.55 282.283 204.46 281.563H203.18C203.28 282.913 204.1 283.883 206.05 283.883ZM211.237 283.883C212.037 283.883 212.497 283.593 212.837 283.143V283.783H214.027V280.353C214.027 278.923 213.107 278.443 211.937 278.443C210.767 278.443 209.797 278.953 209.697 280.173H210.867C210.927 279.653 211.237 279.353 211.867 279.353C212.577 279.353 212.817 279.703 212.817 280.403V280.673H212.167C210.667 280.673 209.487 281.113 209.487 282.333C209.487 283.423 210.277 283.883 211.237 283.883ZM211.527 283.013C210.927 283.013 210.687 282.723 210.687 282.283C210.687 281.643 211.277 281.433 212.197 281.433H212.817V281.953C212.817 282.623 212.267 283.013 211.527 283.013ZM215.444 283.783H216.654V276.133H215.444V283.783ZM220.429 283.883C221.769 283.883 222.659 283.283 222.829 282.183H221.659C221.569 282.693 221.189 282.983 220.459 282.983C219.559 282.983 219.059 282.423 219.019 281.433H222.849V281.083C222.849 279.213 221.679 278.443 220.379 278.443C218.889 278.443 217.779 279.523 217.779 281.143V281.223C217.779 282.873 218.889 283.883 220.429 283.883ZM219.039 280.623C219.159 279.813 219.649 279.323 220.379 279.323C221.129 279.323 221.589 279.723 221.649 280.623H219.039ZM225.769 283.883C227.109 283.883 227.859 283.273 227.859 282.213C227.859 281.103 227.129 280.803 225.899 280.613C225.069 280.473 224.819 280.323 224.819 279.943C224.819 279.573 225.129 279.323 225.649 279.323C226.209 279.323 226.479 279.543 226.579 280.023H227.699C227.569 278.843 226.719 278.443 225.649 278.443C224.669 278.443 223.689 278.963 223.689 280.013C223.689 280.993 224.199 281.383 225.579 281.603C226.349 281.733 226.699 281.893 226.699 282.323C226.699 282.763 226.409 282.993 225.759 282.993C225.049 282.993 224.779 282.683 224.719 282.153H223.579C223.629 283.263 224.419 283.883 225.769 283.883Z" fill="black"/>
<path d="M299.984 269.149V264.867" stroke="black"/>
<path d="M266.469 284.229H271.109V283.179H267.799V281.089H270.319V280.089H267.799V278.129H270.939V277.079H266.469V284.229ZM271.853 281.939H274.253V280.939H271.853V281.939ZM277.829 284.329C279.249 284.329 280.159 283.479 280.249 282.279H279.139C279.069 283.019 278.519 283.399 277.879 283.399C276.989 283.399 276.429 282.799 276.429 281.659V281.579C276.429 280.499 277.019 279.859 277.849 279.859C278.489 279.859 278.949 280.149 279.049 280.849H280.219C280.079 279.409 278.989 278.889 277.829 278.889C276.369 278.889 275.189 279.939 275.189 281.599V281.679C275.189 283.349 276.329 284.329 277.829 284.329ZM283.631 283.389C282.711 283.389 282.181 282.719 282.181 281.649V281.569C282.181 280.489 282.731 279.839 283.631 279.839C284.531 279.839 285.071 280.499 285.071 281.579V281.649C285.071 282.719 284.531 283.389 283.631 283.389ZM283.621 284.329C285.161 284.329 286.311 283.269 286.311 281.639V281.559C286.311 279.959 285.161 278.889 283.631 278.889C282.091 278.889 280.941 279.969 280.941 281.589V281.669C280.941 283.259 282.081 284.329 283.621 284.329ZM287.404 284.229H288.614V281.099C288.614 280.299 289.164 279.899 289.764 279.899C290.354 279.899 290.694 280.229 290.694 280.999V284.229H291.904V281.099C291.904 280.299 292.454 279.899 293.054 279.899C293.654 279.899 293.984 280.229 293.984 280.999V284.229H295.194V280.919C295.194 279.479 294.414 278.889 293.454 278.889C292.804 278.889 292.084 279.179 291.684 279.829C291.424 279.179 290.884 278.889 290.204 278.889C289.434 278.889 288.864 279.309 288.614 279.799V278.999H287.404V284.229ZM296.584 284.229H297.794V281.099C297.794 280.299 298.344 279.899 298.944 279.899C299.534 279.899 299.874 280.229 299.874 280.999V284.229H301.084V281.099C301.084 280.299 301.634 279.899 302.234 279.899C302.834 279.899 303.164 280.229 303.164 280.999V284.229H304.374V280.919C304.374 279.479 303.594 278.889 302.634 278.889C301.984 278.889 301.264 279.179 300.864 279.829C300.604 279.179 300.064 278.889 299.384 278.889C298.614 278.889 298.044 279.309 297.794 279.799V278.999H296.584V284.229ZM308.063 284.329C309.403 284.329 310.293 283.729 310.463 282.629H309.293C309.203 283.139 308.823 283.429 308.093 283.429C307.193 283.429 306.693 282.869 306.653 281.879H310.483V281.529C310.483 279.659 309.313 278.889 308.013 278.889C306.523 278.889 305.413 279.969 305.413 281.589V281.669C305.413 283.319 306.523 284.329 308.063 284.329ZM306.673 281.069C306.793 280.259 307.283 279.769 308.013 279.769C308.763 279.769 309.223 280.169 309.283 281.069H306.673ZM311.564 284.229H312.774V281.509C312.774 280.399 313.414 280.059 314.474 280.049V278.919C313.594 278.929 313.104 279.319 312.774 279.979V278.999H311.564V284.229ZM317.731 284.329C319.151 284.329 320.061 283.479 320.151 282.279H319.041C318.971 283.019 318.421 283.399 317.781 283.399C316.891 283.399 316.331 282.799 316.331 281.659V281.579C316.331 280.499 316.921 279.859 317.751 279.859C318.391 279.859 318.851 280.149 318.951 280.849H320.121C319.981 279.409 318.891 278.889 317.731 278.889C316.271 278.889 315.091 279.939 315.091 281.599V281.679C315.091 283.349 316.231 284.329 317.731 284.329ZM323.493 284.329C324.833 284.329 325.723 283.729 325.893 282.629H324.723C324.633 283.139 324.253 283.429 323.523 283.429C322.623 283.429 322.123 282.869 322.083 281.879H325.913V281.529C325.913 279.659 324.743 278.889 323.443 278.889C321.953 278.889 320.843 279.969 320.843 281.589V281.669C320.843 283.319 321.953 284.329 323.493 284.329ZM322.103 281.069C322.223 280.259 322.713 279.769 323.443 279.769C324.193 279.769 324.653 280.169 324.713 281.069H322.103Z" fill="black"/>
<path d="M385.328 269.149V264.867" stroke="black"/>
<path d="M385.115 284.229H386.445V281.509H387.445C388.975 281.509 390.065 280.839 390.065 279.329V279.289C390.065 277.789 389.015 277.079 387.415 277.079H385.115V284.229ZM386.445 280.549V278.109H387.415C388.265 278.109 388.765 278.439 388.765 279.289V279.329C388.765 280.119 388.295 280.549 387.415 280.549H386.445ZM391.109 284.229H392.319V281.509C392.319 280.399 392.959 280.059 394.019 280.049V278.919C393.139 278.929 392.649 279.319 392.319 279.979V278.999H391.109V284.229ZM397.326 283.389C396.406 283.389 395.876 282.719 395.876 281.649V281.569C395.876 280.489 396.426 279.839 397.326 279.839C398.226 279.839 398.766 280.499 398.766 281.579V281.649C398.766 282.719 398.226 283.389 397.326 283.389ZM397.316 284.329C398.856 284.329 400.006 283.269 400.006 281.639V281.559C400.006 279.959 398.856 278.889 397.326 278.889C395.786 278.889 394.636 279.969 394.636 281.589V281.669C394.636 283.259 395.776 284.329 397.316 284.329ZM403.059 284.329C403.829 284.329 404.499 283.869 404.779 283.349V284.229H405.989V276.579H404.779V279.799C404.489 279.279 403.959 278.889 403.109 278.889C401.749 278.889 400.759 279.949 400.759 281.619V281.699C400.759 283.399 401.749 284.329 403.059 284.329ZM403.359 283.369C402.579 283.369 401.999 282.819 401.999 281.669V281.589C401.999 280.459 402.519 279.839 403.409 279.839C404.289 279.839 404.819 280.409 404.819 281.559V281.639C404.819 282.809 404.199 283.369 403.359 283.369ZM409.177 284.329C410.027 284.329 410.577 283.919 410.837 283.409V284.229H412.047V278.999H410.837V282.109C410.837 282.939 410.267 283.359 409.617 283.359C408.917 283.359 408.587 282.999 408.587 282.209V278.999H407.377V282.349C407.377 283.739 408.147 284.329 409.177 284.329ZM415.772 284.329C417.192 284.329 418.102 283.479 418.192 282.279H417.082C417.012 283.019 416.462 283.399 415.822 283.399C414.932 283.399 414.372 282.799 414.372 281.659V281.579C414.372 280.499 414.962 279.859 415.792 279.859C416.432 279.859 416.892 280.149 416.992 280.849H418.162C418.022 279.409 416.932 278.889 415.772 278.889C414.312 278.889 413.132 279.939 413.132 281.599V281.679C413.132 283.349 414.272 284.329 415.772 284.329ZM421.014 284.319C421.384 284.319 421.644 284.259 421.834 284.189V283.229C421.664 283.299 421.484 283.329 421.244 283.329C420.864 283.329 420.644 283.119 420.644 282.659V279.909H421.794V278.999H420.644V277.849H419.434V278.999H418.734V279.909H419.434V282.769C419.434 283.759 419.974 284.319 421.014 284.319Z" fill="black"/>
<path d="M361.874 284.229H363.214V277.079H361.874V284.229ZM366.33 284.229H367.67V278.129H369.66V277.079H364.34V278.129H366.33V284.229Z" fill="black"/>
<path d="M394.173 189.638H399.343V188.608H396.303L397.893 187.058C398.743 186.238 399.293 185.428 399.293 184.498C399.293 183.238 398.413 182.388 396.933 182.388C395.423 182.388 394.483 183.288 394.393 184.848H395.613C395.733 183.838 396.183 183.428 396.893 183.428C397.583 183.428 397.963 183.848 397.963 184.518C397.963 185.198 397.553 185.828 396.873 186.548L394.173 189.398V189.638ZM401.634 189.638H402.974V182.488H401.784L400.124 183.668V184.838L401.634 183.808V189.638ZM407.303 189.738C408.923 189.738 409.943 188.758 409.943 187.308C409.943 185.918 408.963 184.978 407.593 184.978C406.743 184.978 406.153 185.348 405.823 185.898C405.863 184.268 406.493 183.418 407.453 183.418C408.143 183.418 408.423 183.738 408.553 184.278H409.793C409.623 183.028 408.763 182.388 407.463 182.388C405.753 182.388 404.503 183.738 404.503 186.218V186.388C404.503 188.278 405.223 189.738 407.303 189.738ZM407.283 188.758C406.473 188.758 405.903 188.208 405.903 187.258C405.903 186.468 406.473 185.898 407.283 185.898C408.103 185.898 408.623 186.478 408.623 187.338C408.623 188.188 408.083 188.758 407.283 188.758Z" fill="#45999E"/>
<path d="M360.111 233.441H361.451V226.291H360.261L358.601 227.471V228.641L360.111 227.611V233.441ZM365.61 233.541C367.05 233.541 368.27 232.791 368.27 231.381C368.27 230.511 367.78 229.891 366.94 229.591C367.58 229.311 368 228.821 368 228.091C368 226.911 366.89 226.191 365.61 226.191C364.37 226.191 363.21 226.901 363.21 228.111C363.21 228.821 363.61 229.341 364.27 229.601C363.47 229.881 362.93 230.511 362.93 231.421C362.93 232.821 364.19 233.541 365.61 233.541ZM365.61 232.541C364.89 232.541 364.27 232.111 364.27 231.311C364.27 230.511 364.89 230.081 365.62 230.081C366.36 230.081 366.94 230.511 366.94 231.301C366.94 232.101 366.37 232.541 365.61 232.541ZM365.63 229.211C365.01 229.211 364.48 228.831 364.48 228.181C364.48 227.541 364.98 227.151 365.61 227.151C366.25 227.151 366.74 227.561 366.74 228.171C366.74 228.821 366.28 229.211 365.63 229.211ZM371.903 233.541C373.523 233.541 374.543 232.561 374.543 231.111C374.543 229.721 373.563 228.781 372.193 228.781C371.343 228.781 370.753 229.151 370.423 229.701C370.463 228.071 371.093 227.221 372.053 227.221C372.743 227.221 373.023 227.541 373.153 228.081H374.393C374.223 226.831 373.363 226.191 372.063 226.191C370.353 226.191 369.103 227.541 369.103 230.021V230.191C369.103 232.081 369.823 233.541 371.903 233.541ZM371.883 232.561C371.073 232.561 370.503 232.011 370.503 231.061C370.503 230.271 371.073 229.701 371.883 229.701C372.703 229.701 373.223 230.281 373.223 231.141C373.223 231.991 372.683 232.561 371.883 232.561Z" fill="#45999E"/>
<path d="M190.224 233.441H191.564V226.291H190.374L188.714 227.471V228.641L190.224 227.611V233.441ZM192.733 233.441H197.903V232.411H194.863L196.453 230.861C197.303 230.041 197.853 229.231 197.853 228.301C197.853 227.041 196.973 226.191 195.493 226.191C193.983 226.191 193.043 227.091 192.953 228.651H194.173C194.293 227.641 194.743 227.231 195.453 227.231C196.143 227.231 196.523 227.651 196.523 228.321C196.523 229.001 196.113 229.631 195.433 230.351L192.733 233.201V233.441ZM201.625 233.541C203.245 233.541 204.265 232.561 204.265 231.111C204.265 229.721 203.285 228.781 201.915 228.781C201.065 228.781 200.475 229.151 200.145 229.701C200.185 228.071 200.815 227.221 201.775 227.221C202.465 227.221 202.745 227.541 202.875 228.081H204.115C203.945 226.831 203.085 226.191 201.785 226.191C200.075 226.191 198.825 227.541 198.825 230.021V230.191C198.825 232.081 199.545 233.541 201.625 233.541ZM201.605 232.561C200.795 232.561 200.225 232.011 200.225 231.061C200.225 230.271 200.795 229.701 201.605 229.701C202.425 229.701 202.945 230.281 202.945 231.141C202.945 231.991 202.405 232.561 201.605 232.561Z" fill="#45999E"/>
<path d="M139.895 204.021H141.235V196.871H140.045L138.385 198.051V199.221L139.895 198.191V204.021ZM145.958 204.021H147.248V202.571H148.208V201.581H147.248V196.871H145.578L142.418 202.101V202.571H145.958V204.021ZM143.838 201.581L145.978 197.881V201.581H143.838ZM151.824 204.121C153.444 204.121 154.464 203.141 154.464 201.691C154.464 200.301 153.484 199.361 152.114 199.361C151.264 199.361 150.674 199.731 150.344 200.281C150.384 198.651 151.014 197.801 151.974 197.801C152.664 197.801 152.944 198.121 153.074 198.661H154.314C154.144 197.411 153.284 196.771 151.984 196.771C150.274 196.771 149.024 198.121 149.024 200.601V200.771C149.024 202.661 149.744 204.121 151.824 204.121ZM151.804 203.141C150.994 203.141 150.424 202.591 150.424 201.641C150.424 200.851 150.994 200.281 151.804 200.281C152.624 200.281 153.144 200.861 153.144 201.721C153.144 202.571 152.604 203.141 151.804 203.141Z" fill="#45999E"/>
<path d="M104.777 196.682H106.117V189.532H104.927L103.267 190.712V191.882L104.777 190.852V196.682ZM110.047 196.782C111.587 196.782 112.677 195.832 112.677 194.322C112.677 192.822 111.767 191.922 110.477 191.922C109.717 191.922 109.217 192.202 108.937 192.522L108.947 190.582H112.267V189.532H107.927L107.867 193.512H108.547C108.867 193.142 109.307 192.892 110.037 192.892C110.827 192.892 111.327 193.442 111.327 194.302C111.327 195.182 110.857 195.752 110.037 195.752C109.117 195.752 108.847 195.292 108.737 194.632H107.497C107.577 195.862 108.367 196.782 110.047 196.782ZM116.384 196.782C118.004 196.782 119.024 195.802 119.024 194.352C119.024 192.962 118.044 192.022 116.674 192.022C115.824 192.022 115.234 192.392 114.904 192.942C114.944 191.312 115.574 190.462 116.534 190.462C117.224 190.462 117.504 190.782 117.634 191.322H118.874C118.704 190.072 117.844 189.432 116.544 189.432C114.834 189.432 113.584 190.782 113.584 193.262V193.432C113.584 195.322 114.304 196.782 116.384 196.782ZM116.364 195.802C115.554 195.802 114.984 195.252 114.984 194.302C114.984 193.512 115.554 192.942 116.364 192.942C117.184 192.942 117.704 193.522 117.704 194.382C117.704 195.232 117.164 195.802 116.364 195.802Z" fill="#45999E"/>
<path d="M52.882 149.247H54.252L56.852 142.257V142.097H51.852V143.177H55.182L52.882 149.247ZM60.1259 149.347C61.7459 149.347 62.7659 148.367 62.7659 146.917C62.7659 145.527 61.7859 144.587 60.4159 144.587C59.5659 144.587 58.9759 144.957 58.6459 145.507C58.6859 143.877 59.3159 143.027 60.2759 143.027C60.9659 143.027 61.2459 143.347 61.3759 143.887H62.6159C62.4459 142.637 61.5859 141.997 60.2859 141.997C58.5759 141.997 57.3259 143.347 57.3259 145.827V145.997C57.3259 147.887 58.0459 149.347 60.1259 149.347ZM60.1059 148.367C59.2959 148.367 58.7259 147.817 58.7259 146.867C58.7259 146.077 59.2959 145.507 60.1059 145.507C60.9259 145.507 61.4459 146.087 61.4459 146.947C61.4459 147.797 60.9059 148.367 60.1059 148.367ZM66.7133 148.287C65.6433 148.287 65.0233 147.467 65.0233 145.847V145.487C65.0233 143.897 65.6133 143.037 66.6933 143.037C67.7633 143.037 68.3433 143.957 68.3433 145.477V145.827C68.3433 147.447 67.8133 148.287 66.7133 148.287ZM66.6833 149.347C68.5533 149.347 69.6733 147.977 69.6733 145.827V145.467C69.6733 143.317 68.4933 141.997 66.6833 141.997C64.8833 141.997 63.6833 143.327 63.6833 145.497V145.857C63.6833 148.007 64.8633 149.347 66.6833 149.347Z" fill="#45999E"/>
<path d="M19.5273 114.786C20.9673 114.786 22.1873 114.036 22.1873 112.626C22.1873 111.756 21.6973 111.136 20.8573 110.836C21.4973 110.556 21.9173 110.066 21.9173 109.336C21.9173 108.156 20.8073 107.436 19.5273 107.436C18.2873 107.436 17.1273 108.146 17.1273 109.356C17.1273 110.066 17.5273 110.586 18.1873 110.846C17.3873 111.126 16.8473 111.756 16.8473 112.666C16.8473 114.066 18.1073 114.786 19.5273 114.786ZM19.5273 113.786C18.8073 113.786 18.1873 113.356 18.1873 112.556C18.1873 111.756 18.8073 111.326 19.5373 111.326C20.2773 111.326 20.8573 111.756 20.8573 112.546C20.8573 113.346 20.2873 113.786 19.5273 113.786ZM19.5473 110.456C18.9273 110.456 18.3973 110.076 18.3973 109.426C18.3973 108.786 18.8973 108.396 19.5273 108.396C20.1673 108.396 20.6573 108.806 20.6573 109.416C20.6573 110.066 20.1973 110.456 19.5473 110.456ZM22.758 114.686H27.928V113.656H24.888L26.478 112.106C27.328 111.286 27.878 110.476 27.878 109.546C27.878 108.286 26.998 107.436 25.518 107.436C24.008 107.436 23.068 108.336 22.978 109.896H24.198C24.318 108.886 24.768 108.476 25.478 108.476C26.168 108.476 26.548 108.896 26.548 109.566C26.548 110.246 26.138 110.876 25.458 111.596L22.758 114.446V114.686ZM31.8805 113.726C30.8105 113.726 30.1905 112.906 30.1905 111.286V110.926C30.1905 109.336 30.7805 108.476 31.8605 108.476C32.9305 108.476 33.5105 109.396 33.5105 110.916V111.266C33.5105 112.886 32.9805 113.726 31.8805 113.726ZM31.8505 114.786C33.7205 114.786 34.8405 113.416 34.8405 111.266V110.906C34.8405 108.756 33.6605 107.436 31.8505 107.436C30.0505 107.436 28.8505 108.766 28.8505 110.936V111.296C28.8505 113.446 30.0305 114.786 31.8505 114.786Z" fill="#45999E"/>
<path d="M225.95 73.2843C227.79 73.2843 228.83 71.9743 228.83 69.6243V69.2543C228.83 67.1943 227.91 65.9343 226.04 65.9343C224.41 65.9343 223.39 66.9243 223.39 68.3843C223.39 69.7943 224.38 70.7043 225.76 70.7043C226.61 70.7043 227.19 70.3443 227.52 69.8043C227.5 71.4343 226.95 72.2543 225.93 72.2543C225.16 72.2543 224.83 71.8943 224.7 71.3343H223.45C223.62 72.5643 224.49 73.2843 225.95 73.2843ZM226.04 69.7743C225.22 69.7743 224.7 69.2043 224.7 68.3443C224.7 67.4943 225.23 66.9243 226.03 66.9243C226.85 66.9243 227.42 67.4843 227.42 68.4443C227.42 69.2343 226.85 69.7743 226.04 69.7743ZM232.288 73.2943C233.928 73.2943 234.968 72.4743 234.968 71.1543C234.968 70.2043 234.418 69.6143 233.588 69.4243C234.278 69.1643 234.748 68.6743 234.748 67.8643C234.748 66.8043 233.878 65.9443 232.388 65.9443C230.858 65.9443 229.928 66.8943 229.858 68.1343H231.038C231.118 67.4143 231.608 66.9543 232.368 66.9543C233.108 66.9543 233.478 67.3843 233.478 67.9643C233.478 68.6343 233.108 69.0143 232.288 69.0143H231.778V69.9643H232.328C233.198 69.9643 233.618 70.3543 233.618 71.1343C233.618 71.8443 233.188 72.2943 232.258 72.2943C231.298 72.2943 230.878 71.7343 230.808 70.9843H229.598C229.658 72.3543 230.588 73.2943 232.288 73.2943ZM236.604 73.1943H237.974L240.574 66.2043V66.0443H235.574V67.1243H238.904L236.604 73.1943Z" fill="#45999E"/>
<path d="M309.794 99.5962H311.164L313.764 92.6062V92.4462H308.764V93.5262H312.094L309.794 99.5962ZM316.816 99.6962C318.456 99.6962 319.496 98.8762 319.496 97.5562C319.496 96.6062 318.946 96.0162 318.116 95.8262C318.806 95.5662 319.276 95.0762 319.276 94.2662C319.276 93.2062 318.406 92.3462 316.916 92.3462C315.386 92.3462 314.456 93.2962 314.386 94.5362H315.566C315.646 93.8162 316.136 93.3562 316.896 93.3562C317.636 93.3562 318.006 93.7862 318.006 94.3662C318.006 95.0362 317.636 95.4162 316.816 95.4162H316.306V96.3662H316.856C317.726 96.3662 318.146 96.7562 318.146 97.5362C318.146 98.2462 317.716 98.6962 316.786 98.6962C315.826 98.6962 315.406 98.1362 315.336 97.3862H314.126C314.186 98.7562 315.116 99.6962 316.816 99.6962ZM321.131 99.5962H322.501L325.101 92.6062V92.4462H320.101V93.5262H323.431L321.131 99.5962Z" fill="#45999E"/>
<path d="M276.267 129.251C277.887 129.251 278.907 128.271 278.907 126.821C278.907 125.431 277.927 124.491 276.557 124.491C275.707 124.491 275.117 124.861 274.787 125.411C274.827 123.781 275.457 122.931 276.417 122.931C277.107 122.931 277.387 123.251 277.517 123.791H278.757C278.587 122.541 277.727 121.901 276.427 121.901C274.717 121.901 273.467 123.251 273.467 125.731V125.901C273.467 127.791 274.187 129.251 276.267 129.251ZM276.247 128.271C275.437 128.271 274.867 127.721 274.867 126.771C274.867 125.981 275.437 125.411 276.247 125.411C277.067 125.411 277.587 125.991 277.587 126.851C277.587 127.701 277.047 128.271 276.247 128.271ZM282.403 129.251C284.043 129.251 285.083 128.431 285.083 127.111C285.083 126.161 284.533 125.571 283.703 125.381C284.393 125.121 284.863 124.631 284.863 123.821C284.863 122.761 283.993 121.901 282.503 121.901C280.973 121.901 280.043 122.851 279.973 124.091H281.153C281.233 123.371 281.723 122.911 282.483 122.911C283.223 122.911 283.593 123.341 283.593 123.921C283.593 124.591 283.223 124.971 282.403 124.971H281.893V125.921H282.443C283.313 125.921 283.733 126.311 283.733 127.091C283.733 127.801 283.303 128.251 282.373 128.251C281.413 128.251 280.993 127.691 280.923 126.941H279.713C279.773 128.311 280.703 129.251 282.403 129.251ZM286.718 129.151H288.088L290.688 122.161V122.001H285.688V123.081H289.018L286.718 129.151Z" fill="#45999E"/>
<path d="M9.81427 120.051H41.9253V264.867H9.81427V120.051Z" fill="#D3ECED"/>
<path d="M95.1584 202.015H127.269V264.867H95.1584V202.015Z" fill="#D3ECED"/>
<path d="M180.502 244.179H212.613V264.867H180.502V244.179Z" fill="#D3ECED"/>
<path d="M265.846 134.829H297.957V264.867H265.846V134.829Z" fill="#D3ECED"/>
<path d="M351.19 238.466H383.301V264.867H351.19V238.466Z" fill="#D3ECED"/>
<path d="M44.7797 154.925H76.8907V264.867H44.7797V154.925Z" fill="#45999E"/>
<path d="M130.124 209.699H162.235V264.867H130.124V209.699Z" fill="#45999E"/>
<path d="M215.468 78.8723H247.579V264.867H215.468V78.8723Z" fill="#45999E"/>
<path d="M300.812 105.274H332.923V264.867H300.812V105.274Z" fill="#45999E"/>
<path d="M386.156 195.316H418.267V264.867H386.156V195.316Z" fill="#45999E"/>
</svg>
