<svg width="315" height="90" viewBox="0 0 315 90" fill="none" xmlns="http://www.w3.org/2000/svg">
<rect x="0.126465" width="314" height="90" rx="5" fill="#1E293B"/>
<g clip-path="url(#clip0_100_1631)">
<path d="M89.3846 35.5551L88.7005 36.2845L89.3846 36.9261L90.0687 36.2845L89.3846 35.5551ZM90.3846 24.7227C90.3846 24.1704 89.9369 23.7227 89.3846 23.7227C88.8323 23.7227 88.3846 24.1704 88.3846 24.7227L90.3846 24.7227ZM82.2839 30.2665L88.7005 36.2845L90.0687 34.8257L83.652 28.8077L82.2839 30.2665ZM90.0687 36.2845L96.4854 30.2665L95.1172 28.8077L88.7005 34.8257L90.0687 36.2845ZM90.3846 35.5551L90.3846 24.7227L88.3846 24.7227L88.3846 35.5551L90.3846 35.5551Z" fill="#FFF4D7"/>
<path d="M80.4013 37.9623L80.4013 39.1659C80.4013 40.4953 81.5504 41.5731 82.9679 41.5731L95.8013 41.5731C97.2188 41.5731 98.3679 40.4953 98.3679 39.1659V37.9623" stroke="#FFF4D7" stroke-width="2"/>
<rect x="72.6345" y="18.75" width="33.5" height="29.5" rx="4.25" stroke="#FFF4D7" stroke-width="1.5"/>
<path d="M58.8625 68.006V59.97H60.2205C62.9785 59.97 64.0985 61.594 64.0985 63.904V64.016C64.0985 66.466 62.8105 68.006 60.2345 68.006H58.8625ZM57.6445 69H60.2625C63.7625 69 65.3585 66.802 65.3585 64.03V63.904C65.3585 61.118 63.7345 58.99 60.2905 58.99H57.6445V69ZM70.3606 68.16C68.8766 68.16 67.9666 67.068 67.9666 65.402V65.29C67.9666 63.61 68.8906 62.518 70.3606 62.518C71.8166 62.518 72.7546 63.61 72.7546 65.304V65.402C72.7546 67.054 71.8306 68.16 70.3606 68.16ZM70.3466 69.126C72.4326 69.126 73.9586 67.6 73.9586 65.388V65.276C73.9586 63.078 72.4326 61.552 70.3606 61.552C68.2886 61.552 66.7626 63.092 66.7626 65.29V65.402C66.7626 67.544 68.2606 69.126 70.3466 69.126ZM77.0911 69H78.3651L80.0731 63.512L81.5991 69H82.8871L85.1691 61.678H83.9791L82.2571 67.572L80.5911 61.678H79.5831L77.8051 67.572L76.0971 61.678H74.8371L77.0911 69ZM86.7363 69H87.8983V64.562C87.8983 63.246 88.8643 62.56 89.9423 62.56C91.1183 62.56 91.6643 63.134 91.6643 64.422V69H92.8263V64.506C92.8263 62.378 91.7623 61.552 90.2503 61.552C89.0463 61.552 88.2343 62.154 87.8983 62.84V61.678H86.7363V69ZM95.1315 69H96.3075V58.178H95.1315V69ZM101.738 68.16C100.254 68.16 99.3435 67.068 99.3435 65.402V65.29C99.3435 63.61 100.268 62.518 101.738 62.518C103.194 62.518 104.132 63.61 104.132 65.304V65.402C104.132 67.054 103.208 68.16 101.738 68.16ZM101.724 69.126C103.81 69.126 105.336 67.6 105.336 65.388V65.276C105.336 63.078 103.81 61.552 101.738 61.552C99.6655 61.552 98.1395 63.092 98.1395 65.29V65.402C98.1395 67.544 99.6375 69.126 101.724 69.126ZM108.969 69.126C110.047 69.126 110.705 68.762 111.251 68.076V69H112.413V64.17C112.413 62.126 111.139 61.552 109.739 61.552C108.325 61.552 106.995 62.168 106.841 63.834H108.003C108.115 62.938 108.675 62.518 109.683 62.518C110.803 62.518 111.251 63.008 111.251 64.17V64.702H110.201C108.325 64.702 106.533 65.276 106.533 66.97C106.533 68.468 107.611 69.126 108.969 69.126ZM109.081 68.202C108.059 68.202 107.695 67.726 107.695 66.97C107.695 65.892 108.773 65.528 110.243 65.528H111.251V66.438C111.251 67.572 110.313 68.202 109.081 68.202ZM117.453 69.126C118.517 69.126 119.539 68.454 119.959 67.74V69H121.121V58.178H119.959V62.854C119.539 62.14 118.783 61.552 117.565 61.552C115.549 61.552 114.149 63.134 114.149 65.374V65.486C114.149 67.768 115.535 69.126 117.453 69.126ZM117.579 68.16C116.347 68.16 115.353 67.278 115.353 65.43V65.318C115.353 63.54 116.221 62.518 117.677 62.518C119.105 62.518 120.001 63.4 120.001 65.276V65.388C120.001 67.264 118.937 68.16 117.579 68.16Z" fill="white"/>
</g>
<path d="M155.796 36.6H152.605C152.193 36.6 151.889 36.415 151.691 36.0451C151.493 35.6752 151.515 35.3176 151.756 34.9725L159.451 23.8642C159.622 23.6231 159.845 23.4553 160.12 23.3609C160.394 23.2666 160.677 23.2707 160.969 23.3733C161.261 23.4767 161.475 23.6575 161.612 23.9158C161.75 24.1742 161.801 24.4497 161.767 24.7425L160.943 31.4333H164.932C165.378 31.4333 165.692 31.6314 165.872 32.0275C166.053 32.4236 165.997 32.7939 165.704 33.1383L157.237 43.3167C157.049 43.5406 156.817 43.6869 156.543 43.7558C156.268 43.8247 156.002 43.7989 155.745 43.6783C155.487 43.5578 155.286 43.3728 155.14 43.1234C154.993 42.8741 154.938 42.6026 154.973 42.3092L155.796 36.6Z" fill="#FFF4D7"/>
<rect x="142.12" y="18.7352" width="33.5296" height="29.5296" rx="4.2648" stroke="#FFF4D7" stroke-width="1.47039"/>
<path d="M143.645 69H144.863V64.646H146.403L149.385 69H150.743L147.677 64.562C149.049 64.296 150.155 63.484 150.155 61.832V61.776C150.155 59.774 148.573 58.99 146.655 58.99H143.645V69ZM144.863 63.68V59.97H146.739C148.097 59.97 148.937 60.418 148.937 61.776V61.832C148.937 63.064 148.167 63.68 146.739 63.68H144.863ZM152.38 69H153.542V61.678H152.38V69ZM152.94 60.152C153.36 60.152 153.71 59.802 153.71 59.382C153.71 58.962 153.36 58.612 152.94 58.612C152.52 58.612 152.17 58.962 152.17 59.382C152.17 59.802 152.52 60.152 152.94 60.152ZM158.188 69.126C159.966 69.126 160.876 68.23 160.876 66.9C160.876 65.346 159.812 65.01 158.3 64.73C156.956 64.492 156.592 64.226 156.592 63.568C156.592 62.938 157.138 62.518 157.978 62.518C158.902 62.518 159.35 62.868 159.518 63.666H160.638C160.442 62.084 159.308 61.552 157.992 61.552C156.844 61.552 155.514 62.252 155.514 63.61C155.514 64.884 156.158 65.416 158.062 65.766C159.196 65.976 159.77 66.228 159.77 66.998C159.77 67.782 159.28 68.16 158.174 68.16C156.998 68.16 156.536 67.614 156.452 66.746H155.318C155.388 68.244 156.438 69.126 158.188 69.126ZM162.646 69H163.808V65.206L167.056 69H168.47L165.068 65.08L168.204 61.678H166.846L163.808 65.052V58.178H162.646V69ZM171.996 69.126C173.774 69.126 174.684 68.23 174.684 66.9C174.684 65.346 173.62 65.01 172.108 64.73C170.764 64.492 170.4 64.226 170.4 63.568C170.4 62.938 170.946 62.518 171.786 62.518C172.71 62.518 173.158 62.868 173.326 63.666H174.446C174.25 62.084 173.116 61.552 171.8 61.552C170.652 61.552 169.322 62.252 169.322 63.61C169.322 64.884 169.966 65.416 171.87 65.766C173.004 65.976 173.578 66.228 173.578 66.998C173.578 67.782 173.088 68.16 171.982 68.16C170.806 68.16 170.344 67.614 170.26 66.746H169.126C169.196 68.244 170.246 69.126 171.996 69.126Z" fill="white"/>
<ellipse cx="227.87" cy="33.5" rx="1.41544" ry="1.42481" stroke="#FFF4D7" stroke-width="2.94079" stroke-linecap="round"/>
<ellipse cx="219.377" cy="33.5" rx="1.41544" ry="1.42481" stroke="#FFF4D7" stroke-width="2.94079" stroke-linecap="round"/>
<ellipse cx="236.362" cy="33.5" rx="1.41544" ry="1.42481" stroke="#FFF4D7" stroke-width="2.94079" stroke-linecap="round"/>
<rect x="211.62" y="19.2099" width="33.5296" height="29.6164" rx="4.2648" stroke="#FFF4D7" stroke-width="1.47039"/>
<path d="M212.645 70.5977H213.765V62.1697L217.195 70.5977H217.573L220.891 62.1697V70.5977H222.109V60.5877H220.429L217.433 68.3857L214.339 60.5877H212.645V70.5977ZM227.603 69.7577C226.119 69.7577 225.209 68.6657 225.209 66.9997V66.8877C225.209 65.2077 226.133 64.1157 227.603 64.1157C229.059 64.1157 229.997 65.2077 229.997 66.9017V66.9997C229.997 68.6517 229.073 69.7577 227.603 69.7577ZM227.589 70.7237C229.675 70.7237 231.201 69.1977 231.201 66.9857V66.8737C231.201 64.6757 229.675 63.1497 227.603 63.1497C225.531 63.1497 224.005 64.6897 224.005 66.8877V66.9997C224.005 69.1417 225.503 70.7237 227.589 70.7237ZM233 70.5977H234.162V66.5797C234.162 64.7737 235.1 64.3117 236.57 64.2417V63.1497C235.254 63.1917 234.624 63.7657 234.162 64.5917V63.2757H233V70.5977ZM241.055 70.7237C242.707 70.7237 243.925 69.9537 244.177 68.4837H243.015C242.861 69.3377 242.203 69.7577 241.069 69.7577C239.571 69.7577 238.773 68.8337 238.717 67.1677H244.233V66.7897C244.233 64.1717 242.637 63.1497 240.943 63.1497C238.927 63.1497 237.513 64.6897 237.513 66.9017V67.0137C237.513 69.2677 238.983 70.7237 241.055 70.7237ZM238.759 66.2297C238.955 64.9277 239.753 64.1157 240.943 64.1157C242.147 64.1157 242.931 64.7177 243.043 66.2297H238.759Z" fill="white"/>
<defs>
<clipPath id="clip0_100_1631">
<rect width="66" height="54" fill="white" transform="translate(56.3845 18)"/>
</clipPath>
</defs>
</svg>
