<svg width="141" height="106" viewBox="0 0 141 106" fill="none" xmlns="http://www.w3.org/2000/svg">
<rect y="0.282684" width="141" height="105" rx="5" fill="#D3ECED"/>
<path d="M31.078 34.7827H33.332V31.1427H34.606C36.888 31.1427 38.358 30.1347 38.358 28.0207V27.9647C38.358 25.8507 36.972 24.7727 34.536 24.7727H31.078V34.7827ZM33.332 29.5607V26.4947H34.48C35.558 26.4947 36.174 26.9147 36.174 27.9787V28.0347C36.174 29.0287 35.586 29.5607 34.48 29.5607H33.332ZM39.6597 34.7827H41.6897V31.1147C41.6897 29.7147 42.5577 29.2247 44.0557 29.2387V27.3487C42.8657 27.3627 42.1517 27.8807 41.6897 28.8607V27.4607H39.6597V34.7827ZM48.6675 33.3967C47.5195 33.3967 46.8755 32.5567 46.8755 31.1567V31.0447C46.8755 29.6447 47.5475 28.8327 48.6675 28.8327C49.8015 28.8327 50.4595 29.6727 50.4595 31.0727V31.1707C50.4595 32.5567 49.8015 33.3967 48.6675 33.3967ZM48.6535 34.9367C50.8515 34.9367 52.5175 33.4667 52.5175 31.1567V31.0447C52.5175 28.7627 50.8655 27.2927 48.6675 27.2927C46.4695 27.2927 44.8035 28.7907 44.8035 31.0867V31.1987C44.8035 33.4807 46.4695 34.9367 48.6535 34.9367ZM56.6224 34.9367C57.7004 34.9367 58.5964 34.3067 58.9744 33.5647V34.7827H60.9904V24.1427H58.9744V28.5527C58.5684 27.8107 57.8404 27.2927 56.6644 27.2927C54.8304 27.2927 53.4444 28.7067 53.4444 31.1147V31.2267C53.4444 33.6627 54.8444 34.9367 56.6224 34.9367ZM57.2244 33.3547C56.2164 33.3547 55.5164 32.6407 55.5164 31.1847V31.0727C55.5164 29.6167 56.1464 28.8467 57.2804 28.8467C58.3864 28.8467 59.0304 29.5887 59.0304 31.0447V31.1567C59.0304 32.6407 58.2884 33.3547 57.2244 33.3547ZM65.2285 34.9367C66.4325 34.9367 67.1745 34.3767 67.5525 33.6347V34.7827H69.5685V27.4607H67.5525V31.7587C67.5525 32.8367 66.8805 33.3687 66.0265 33.3687C65.1585 33.3687 64.7525 32.8927 64.7525 31.8987V27.4607H62.7365V32.1787C62.7365 34.0967 63.8005 34.9367 65.2285 34.9367ZM74.6828 34.9367C76.8108 34.9367 78.0708 33.7327 78.1827 31.9967H76.3488C76.2508 32.9347 75.5928 33.4107 74.7808 33.4107C73.6468 33.4107 72.9888 32.6547 72.9888 31.1847V31.0727C72.9888 29.6727 73.6888 28.8887 74.7388 28.8887C75.5648 28.8887 76.0828 29.2807 76.2228 30.1347H78.1408C77.9588 28.0347 76.3908 27.2927 74.6968 27.2927C72.6108 27.2927 70.9168 28.7347 70.9168 31.1007V31.2127C70.9168 33.6067 72.5408 34.9367 74.6828 34.9367ZM82.1325 34.9227C82.6785 34.9227 83.0845 34.8247 83.3645 34.7267V33.1587C83.1265 33.2567 82.9025 33.2987 82.5945 33.2987C82.0765 33.2987 81.7825 33.0187 81.7825 32.4307V28.9027H83.3225V27.4607H81.7825V25.8787H79.7665V27.4607H78.8285V28.9027H79.7665V32.6127C79.7665 34.1387 80.5925 34.9227 82.1325 34.9227ZM84.7918 34.7827H86.8078V27.4607H84.7918V34.7827ZM85.7858 26.4667C86.4438 26.4667 86.9478 25.9907 86.9478 25.3607C86.9478 24.7307 86.4438 24.2547 85.7858 24.2547C85.1418 24.2547 84.6378 24.7307 84.6378 25.3607C84.6378 25.9907 85.1418 26.4667 85.7858 26.4667ZM90.6473 34.7827H92.9293L95.5893 27.4607H93.6293L91.8933 32.6967L90.1433 27.4607H87.9733L90.6473 34.7827ZM96.7411 34.7827H98.7571V27.4607H96.7411V34.7827ZM97.7351 26.4667C98.3931 26.4667 98.8971 25.9907 98.8971 25.3607C98.8971 24.7307 98.3931 24.2547 97.7351 24.2547C97.0911 24.2547 96.5871 24.7307 96.5871 25.3607C96.5871 25.9907 97.0911 26.4667 97.7351 26.4667ZM103.297 34.9227C103.843 34.9227 104.249 34.8247 104.529 34.7267V33.1587C104.291 33.2567 104.067 33.2987 103.759 33.2987C103.241 33.2987 102.947 33.0187 102.947 32.4307V28.9027H104.487V27.4607H102.947V25.8787H100.931V27.4607H99.9926V28.9027H100.931V32.6127C100.931 34.1387 101.757 34.9227 103.297 34.9227ZM106.824 37.2747H108.784L112.746 27.4607H110.8L109.162 31.8567L107.384 27.4607H105.2L108.112 34.0407L106.824 37.2747Z" fill="#293549"/>
<path d="M25.57 75.7827H39.94V73.6527H29.59L35.5 67.8927C38.14 65.3127 39.82 62.7327 39.82 60.0927C39.82 56.4027 37.3 54.0627 33.34 54.0627C29.26 54.0627 26.71 56.7327 26.38 60.9327H28.81C29.23 57.5727 30.85 56.1627 33.34 56.1627C35.77 56.1627 37.18 57.6027 37.18 60.0027C37.18 62.1927 36.04 64.1427 34.09 66.2127L25.57 75.1827V75.7827ZM50.0413 76.0527C54.1213 76.0527 57.3913 73.2927 57.3913 68.7627C57.3913 64.3827 54.5713 61.6527 50.7313 61.6527C48.6913 61.6527 47.2213 62.3127 46.3513 63.1227V56.5827H56.2513V54.3327H44.1913V65.8227H45.1513C46.2913 64.5327 47.7313 63.7527 50.2213 63.7527C52.9513 63.7527 54.7213 65.7327 54.7213 68.7627C54.7213 72.0027 52.9213 73.9527 50.0113 73.9527C46.7413 73.9527 45.8113 72.3327 45.3913 69.9927H42.9013C43.2013 73.5027 45.4213 76.0527 50.0413 76.0527ZM64.2505 62.3427C62.6605 62.3427 61.6105 61.2927 61.6105 59.2527C61.6105 57.2127 62.6605 56.1027 64.2505 56.1027C65.8705 56.1027 66.8905 57.3027 66.8905 59.2227C66.8905 61.2327 65.8705 62.3427 64.2505 62.3427ZM64.2505 64.2927C66.8305 64.2927 69.1705 62.1927 69.1705 59.2227C69.1705 56.3127 66.9205 54.1527 64.2505 54.1527C61.6405 54.1527 59.3305 56.3127 59.3305 59.2827C59.3305 62.1927 61.7005 64.2927 64.2505 64.2927ZM62.3605 75.7827H64.6405L77.7505 54.3327H75.4705L62.3605 75.7827ZM75.8905 74.0727C74.3005 74.0727 73.2505 73.0227 73.2505 70.9827C73.2505 68.9427 74.3005 67.8327 75.8905 67.8327C77.5105 67.8327 78.5305 69.0327 78.5305 70.9527C78.5305 72.9627 77.5105 74.0727 75.8905 74.0727ZM75.8905 76.0227C78.4705 76.0227 80.8105 73.9227 80.8105 70.9527C80.8105 68.0427 78.5605 65.8827 75.8905 65.8827C73.2805 65.8827 70.9705 68.0427 70.9705 71.0127C70.9705 73.9227 73.3405 76.0227 75.8905 76.0227Z" fill="#293549"/>
<path d="M97.5 53.616L96.7724 52.93L97.5 52.1583L98.2276 52.93L97.5 53.616ZM98.5 75.491C98.5 76.0433 98.0523 76.491 97.5 76.491C96.9477 76.491 96.5 76.0433 96.5 75.491L98.5 75.491ZM88.5224 61.68L96.7724 52.93L98.2276 54.302L89.9776 63.052L88.5224 61.68ZM98.2276 52.93L106.478 61.68L105.022 63.052L96.7724 54.302L98.2276 52.93ZM98.5 53.616L98.5 75.491L96.5 75.491L96.5 53.616L98.5 53.616Z" fill="#1E293B"/>
</svg>
