<svg width="142" height="106" viewBox="0 0 142 106" fill="none" xmlns="http://www.w3.org/2000/svg">
<rect x="0.599976" y="0.282684" width="141" height="105" rx="5" fill="#45999E"/>
<path d="M30.8763 34.9367C33.5783 34.9367 35.1043 33.5227 35.1043 30.7927V24.7727H32.8223V30.6527C32.8223 32.4867 32.2343 33.1307 30.8903 33.1307C29.5183 33.1307 29.0283 32.4027 29.0283 30.7367V24.7727H26.7463V30.8767C26.7463 33.5367 28.2443 34.9367 30.8763 34.9367ZM36.9296 34.7827H38.9596V30.5547C38.9596 29.4767 39.6176 28.9447 40.4856 28.9447C41.3816 28.9447 41.7736 29.4207 41.7736 30.4147V34.7827H43.8036V30.1207C43.8036 28.1607 42.7816 27.2927 41.3396 27.2927C40.1216 27.2927 39.3236 27.8947 38.9596 28.6227V27.4607H36.9296V34.7827ZM45.5429 37.2747H47.5729V33.6627C47.9509 34.3767 48.7769 34.9367 49.9109 34.9367C51.7309 34.9367 53.1029 33.5787 53.1029 31.1567V31.0447C53.1029 28.6227 51.7029 27.2927 49.9109 27.2927C48.8329 27.2927 47.9789 27.9087 47.5729 28.6087V27.4607H45.5429V37.2747ZM49.3089 33.3547C48.2029 33.3547 47.5029 32.6407 47.5029 31.1707V31.0587C47.5029 29.5887 48.2309 28.8467 49.2949 28.8467C50.3169 28.8467 51.0449 29.5747 51.0449 31.0587V31.1707C51.0449 32.5987 50.4289 33.3547 49.3089 33.3547ZM54.4569 34.7827H56.4869V31.1147C56.4869 29.7147 57.3549 29.2247 58.8529 29.2387V27.3487C57.6629 27.3627 56.9489 27.8807 56.4869 28.8607V27.4607H54.4569V34.7827ZM63.4647 33.3967C62.3167 33.3967 61.6727 32.5567 61.6727 31.1567V31.0447C61.6727 29.6447 62.3447 28.8327 63.4647 28.8327C64.5987 28.8327 65.2567 29.6727 65.2567 31.0727V31.1707C65.2567 32.5567 64.5987 33.3967 63.4647 33.3967ZM63.4507 34.9367C65.6487 34.9367 67.3147 33.4667 67.3147 31.1567V31.0447C67.3147 28.7627 65.6627 27.2927 63.4647 27.2927C61.2667 27.2927 59.6007 28.7907 59.6007 31.0867V31.1987C59.6007 33.4807 61.2667 34.9367 63.4507 34.9367ZM71.4197 34.9367C72.4977 34.9367 73.3937 34.3067 73.7717 33.5647V34.7827H75.7877V24.1427H73.7717V28.5527C73.3657 27.8107 72.6377 27.2927 71.4617 27.2927C69.6277 27.2927 68.2417 28.7067 68.2417 31.1147V31.2267C68.2417 33.6627 69.6417 34.9367 71.4197 34.9367ZM72.0217 33.3547C71.0137 33.3547 70.3137 32.6407 70.3137 31.1847V31.0727C70.3137 29.6167 70.9437 28.8467 72.0777 28.8467C73.1837 28.8467 73.8277 29.5887 73.8277 31.0447V31.1567C73.8277 32.6407 73.0857 33.3547 72.0217 33.3547ZM80.0257 34.9367C81.2297 34.9367 81.9717 34.3767 82.3497 33.6347V34.7827H84.3657V27.4607H82.3497V31.7587C82.3497 32.8367 81.6777 33.3687 80.8237 33.3687C79.9557 33.3687 79.5497 32.8927 79.5497 31.8987V27.4607H77.5337V32.1787C77.5337 34.0967 78.5977 34.9367 80.0257 34.9367ZM89.48 34.9367C91.608 34.9367 92.868 33.7327 92.98 31.9967H91.146C91.048 32.9347 90.39 33.4107 89.578 33.4107C88.444 33.4107 87.786 32.6547 87.786 31.1847V31.0727C87.786 29.6727 88.486 28.8887 89.536 28.8887C90.362 28.8887 90.88 29.2807 91.02 30.1347H92.938C92.756 28.0347 91.188 27.2927 89.494 27.2927C87.408 27.2927 85.714 28.7347 85.714 31.1007V31.2127C85.714 33.6067 87.338 34.9367 89.48 34.9367ZM96.9297 34.9227C97.4757 34.9227 97.8817 34.8247 98.1617 34.7267V33.1587C97.9237 33.2567 97.6997 33.2987 97.3917 33.2987C96.8737 33.2987 96.5797 33.0187 96.5797 32.4307V28.9027H98.1197V27.4607H96.5797V25.8787H94.5637V27.4607H93.6257V28.9027H94.5637V32.6127C94.5637 34.1387 95.3897 34.9227 96.9297 34.9227ZM99.5891 34.7827H101.605V27.4607H99.5891V34.7827ZM100.583 26.4667C101.241 26.4667 101.745 25.9907 101.745 25.3607C101.745 24.7307 101.241 24.2547 100.583 24.2547C99.9391 24.2547 99.4351 24.7307 99.4351 25.3607C99.4351 25.9907 99.9391 26.4667 100.583 26.4667ZM105.445 34.7827H107.727L110.387 27.4607H108.427L106.691 32.6967L104.941 27.4607H102.771L105.445 34.7827ZM114.501 34.9367C116.503 34.9367 117.763 34.0547 118.001 32.4727H116.083C115.957 33.0887 115.495 33.4947 114.557 33.4947C113.451 33.4947 112.793 32.7947 112.737 31.5767H118.015V31.0167C118.015 28.3987 116.335 27.2927 114.445 27.2927C112.317 27.2927 110.679 28.7907 110.679 31.1007V31.2127C110.679 33.5507 112.289 34.9367 114.501 34.9367ZM112.765 30.3307C112.919 29.2947 113.535 28.6927 114.445 28.6927C115.411 28.6927 115.971 29.2247 116.041 30.3307H112.765Z" fill="#293549"/>
<path d="M45.03 76.0527C49.11 76.0527 52.38 73.2927 52.38 68.7627C52.38 64.3827 49.56 61.6527 45.72 61.6527C43.68 61.6527 42.21 62.3127 41.34 63.1227V56.5827H51.24V54.3327H39.18V65.8227H40.14C41.28 64.5327 42.72 63.7527 45.21 63.7527C47.94 63.7527 49.71 65.7327 49.71 68.7627C49.71 72.0027 47.91 73.9527 45 73.9527C41.73 73.9527 40.8 72.3327 40.38 69.9927H37.89C38.19 73.5027 40.41 76.0527 45.03 76.0527ZM59.2392 62.3427C57.6492 62.3427 56.5992 61.2927 56.5992 59.2527C56.5992 57.2127 57.6492 56.1027 59.2392 56.1027C60.8592 56.1027 61.8792 57.3027 61.8792 59.2227C61.8792 61.2327 60.8592 62.3427 59.2392 62.3427ZM59.2392 64.2927C61.8192 64.2927 64.1592 62.1927 64.1592 59.2227C64.1592 56.3127 61.9092 54.1527 59.2392 54.1527C56.6292 54.1527 54.3192 56.3127 54.3192 59.2827C54.3192 62.1927 56.6892 64.2927 59.2392 64.2927ZM57.3492 75.7827H59.6292L72.7392 54.3327H70.4592L57.3492 75.7827ZM70.8792 74.0727C69.2892 74.0727 68.2392 73.0227 68.2392 70.9827C68.2392 68.9427 69.2892 67.8327 70.8792 67.8327C72.4992 67.8327 73.5192 69.0327 73.5192 70.9527C73.5192 72.9627 72.4992 74.0727 70.8792 74.0727ZM70.8792 76.0227C73.4592 76.0227 75.7992 73.9227 75.7992 70.9527C75.7992 68.0427 73.5492 65.8827 70.8792 65.8827C68.2692 65.8827 65.9592 68.0427 65.9592 71.0127C65.9592 73.9227 68.3292 76.0227 70.8792 76.0227Z" fill="#293549"/>
<path d="M91.6 76.616L90.8436 77.2702L91.6 78.1447L92.3563 77.2702L91.6 76.616ZM92.6 53.491C92.6 52.9387 92.1523 52.491 91.6 52.491C91.0477 52.491 90.6 52.9387 90.6 53.491L92.6 53.491ZM82.8436 68.0202L90.8436 77.2702L92.3563 75.9619L84.3563 66.7119L82.8436 68.0202ZM92.3563 77.2702L100.356 68.0202L98.8436 66.7119L90.8436 75.9619L92.3563 77.2702ZM92.6 76.616L92.6 53.491L90.6 53.491L90.6 76.616L92.6 76.616Z" fill="#33363F"/>
</svg>
