<svg width="142" height="106" viewBox="0 0 142 106" fill="none" xmlns="http://www.w3.org/2000/svg">
<rect x="0.199951" y="0.282684" width="141" height="105" rx="5" fill="#D3ECED"/>
<path d="M39.4114 33.7827H41.2734V29.7367H42.4634L45.0814 33.7827H47.0974L44.2834 29.4567C45.5294 29.1347 46.5094 28.3367 46.5094 26.7687V26.7127C46.5094 24.6687 44.9694 23.7727 42.7714 23.7727H39.4114V33.7827ZM41.2734 28.4067V25.2147H42.7714C43.9614 25.2147 44.6754 25.6067 44.6754 26.7547V26.8107C44.6754 27.8747 44.0174 28.4067 42.7714 28.4067H41.2734ZM51.3918 33.9227C53.2678 33.9227 54.5138 33.0827 54.7518 31.5427H53.1138C52.9878 32.2567 52.4558 32.6627 51.4338 32.6627C50.1738 32.6627 49.4738 31.8787 49.4178 30.4927H54.7798V30.0027C54.7798 27.3847 53.1418 26.3067 51.3218 26.3067C49.2358 26.3067 47.6818 27.8187 47.6818 30.0867V30.1987C47.6818 32.5087 49.2358 33.9227 51.3918 33.9227ZM49.4458 29.3587C49.6138 28.2247 50.2998 27.5387 51.3218 27.5387C52.3718 27.5387 53.0158 28.0987 53.0998 29.3587H49.4458ZM58.7849 33.9087C59.3029 33.9087 59.6669 33.8247 59.9329 33.7267V32.3827C59.6949 32.4807 59.4429 32.5227 59.1069 32.5227C58.5749 32.5227 58.2669 32.2287 58.2669 31.5847V27.7347H59.8769V26.4607H58.2669V24.8507H56.5729V26.4607H55.5929V27.7347H56.5729V31.7387C56.5729 33.1247 57.3289 33.9087 58.7849 33.9087ZM64.6809 33.9227C66.5569 33.9227 67.8029 33.0827 68.0409 31.5427H66.4029C66.2769 32.2567 65.7449 32.6627 64.7229 32.6627C63.4629 32.6627 62.7629 31.8787 62.7069 30.4927H68.0689V30.0027C68.0689 27.3847 66.4309 26.3067 64.6109 26.3067C62.5249 26.3067 60.9709 27.8187 60.9709 30.0867V30.1987C60.9709 32.5087 62.5249 33.9227 64.6809 33.9227ZM62.7349 29.3587C62.9029 28.2247 63.5889 27.5387 64.6109 27.5387C65.6609 27.5387 66.3049 28.0987 66.3889 29.3587H62.7349ZM69.582 33.7827H71.276V29.4707C71.276 28.3087 72.046 27.7207 72.998 27.7207C74.006 27.7207 74.454 28.2247 74.454 29.3307V33.7827H76.148V29.1767C76.148 27.1607 75.112 26.3067 73.642 26.3067C72.438 26.3067 71.626 26.9087 71.276 27.6227V26.4607H69.582V33.7827ZM80.5916 33.9087C81.1096 33.9087 81.4736 33.8247 81.7396 33.7267V32.3827C81.5016 32.4807 81.2496 32.5227 80.9136 32.5227C80.3816 32.5227 80.0736 32.2287 80.0736 31.5847V27.7347H81.6836V26.4607H80.0736V24.8507H78.3796V26.4607H77.3996V27.7347H78.3796V31.7387C78.3796 33.1247 79.1356 33.9087 80.5916 33.9087ZM83.3095 33.7827H85.0035V26.4607H83.3095V33.7827ZM84.1355 25.2567C84.6955 25.2567 85.1435 24.8367 85.1435 24.2907C85.1435 23.7307 84.6955 23.3107 84.1355 23.3107C83.5755 23.3107 83.1275 23.7307 83.1275 24.2907C83.1275 24.8367 83.5755 25.2567 84.1355 25.2567ZM90.3443 32.6067C89.0563 32.6067 88.3143 31.6687 88.3143 30.1707V30.0587C88.3143 28.5467 89.0843 27.6367 90.3443 27.6367C91.6043 27.6367 92.3603 28.5607 92.3603 30.0727V30.1707C92.3603 31.6687 91.6043 32.6067 90.3443 32.6067ZM90.3303 33.9227C92.4863 33.9227 94.0963 32.4387 94.0963 30.1567V30.0447C94.0963 27.8047 92.4863 26.3067 90.3443 26.3067C88.1883 26.3067 86.5783 27.8187 86.5783 30.0867V30.1987C86.5783 32.4247 88.1743 33.9227 90.3303 33.9227ZM95.6269 33.7827H97.3209V29.4707C97.3209 28.3087 98.0909 27.7207 99.0429 27.7207C100.051 27.7207 100.499 28.2247 100.499 29.3307V33.7827H102.193V29.1767C102.193 27.1607 101.157 26.3067 99.6869 26.3067C98.4829 26.3067 97.6709 26.9087 97.3209 27.6227V26.4607H95.6269V33.7827Z" fill="#293549"/>
<path d="M25.77 76.7827H40.14V74.6527H29.79L35.7 68.8927C38.34 66.3127 40.02 63.7327 40.02 61.0927C40.02 57.4027 37.5 55.0627 33.54 55.0627C29.46 55.0627 26.91 57.7327 26.58 61.9327H29.01C29.43 58.5727 31.05 57.1627 33.54 57.1627C35.97 57.1627 37.38 58.6027 37.38 61.0027C37.38 63.1927 36.24 65.1427 34.29 67.2127L25.77 76.1827V76.7827ZM51.9848 74.8927C48.4148 74.8927 46.1348 72.0727 46.1348 66.6427V65.4427C46.1348 60.1627 48.2948 57.1627 51.9248 57.1627C55.5548 57.1627 57.6548 60.4027 57.6548 65.3827V66.5827C57.6548 72.0127 55.7348 74.8927 51.9848 74.8927ZM51.9848 77.0527C57.2648 77.0527 60.2948 72.8527 60.2948 66.6127V65.4127C60.2948 59.2927 57.2048 55.0627 51.9248 55.0627C46.6748 55.0627 43.4648 59.1427 43.4648 65.4727V66.6727C43.4648 72.9127 46.8548 77.0527 51.9848 77.0527ZM68.0247 63.3427C66.4347 63.3427 65.3847 62.2927 65.3847 60.2527C65.3847 58.2127 66.4347 57.1027 68.0247 57.1027C69.6447 57.1027 70.6647 58.3027 70.6647 60.2227C70.6647 62.2327 69.6447 63.3427 68.0247 63.3427ZM68.0247 65.2927C70.6047 65.2927 72.9447 63.1927 72.9447 60.2227C72.9447 57.3127 70.6947 55.1527 68.0247 55.1527C65.4147 55.1527 63.1047 57.3127 63.1047 60.2827C63.1047 63.1927 65.4747 65.2927 68.0247 65.2927ZM66.1347 76.7827H68.4147L81.5247 55.3327H79.2447L66.1347 76.7827ZM79.6647 75.0727C78.0747 75.0727 77.0247 74.0227 77.0247 71.9827C77.0247 69.9427 78.0747 68.8327 79.6647 68.8327C81.2847 68.8327 82.3047 70.0327 82.3047 71.9527C82.3047 73.9627 81.2847 75.0727 79.6647 75.0727ZM79.6647 77.0227C82.2447 77.0227 84.5847 74.9227 84.5847 71.9527C84.5847 69.0427 82.3347 66.8827 79.6647 66.8827C77.0547 66.8827 74.7447 69.0427 74.7447 72.0127C74.7447 74.9227 77.1147 77.0227 79.6647 77.0227Z" fill="#293549"/>
<path d="M100.2 77.616L99.4436 78.2702L100.2 79.1447L100.956 78.2702L100.2 77.616ZM101.2 54.491C101.2 53.9387 100.752 53.491 100.2 53.491C99.6477 53.491 99.2 53.9387 99.2 54.491L101.2 54.491ZM91.4436 69.0202L99.4436 78.2702L100.956 76.9619L92.9563 67.7119L91.4436 69.0202ZM100.956 78.2702L108.956 69.0202L107.444 67.7119L99.4436 76.9619L100.956 78.2702ZM101.2 77.616L101.2 54.491L99.2 54.491L99.2 77.616L101.2 77.616Z" fill="#33363F"/>
</svg>
