<svg width="142" height="106" viewBox="0 0 142 106" fill="none" xmlns="http://www.w3.org/2000/svg">
<rect x="0.799927" y="0.282684" width="141" height="105" rx="5" fill="#45999E"/>
<path d="M24.0819 34.4247C22.2619 34.4247 20.9319 33.0107 20.9319 30.8267V30.7147C20.9319 28.5587 22.0939 27.1167 24.0539 27.1167C26.0139 27.1167 27.1619 28.6427 27.1619 30.7007V30.8127C27.1619 32.9827 25.9719 34.4247 24.0819 34.4247ZM24.0539 35.9227C27.0919 35.9227 29.0939 33.7247 29.0939 30.7987V30.6867C29.0939 27.7467 27.0359 25.6327 24.0539 25.6327C21.0859 25.6327 18.9859 27.8027 18.9859 30.7287V30.8407C18.9859 33.7247 20.9879 35.9227 24.0539 35.9227ZM32.6703 35.7827H34.6443L37.2903 28.4607H35.6243L33.7343 34.0467L31.8163 28.4607H29.9963L32.6703 35.7827ZM41.4918 35.9227C43.3678 35.9227 44.6138 35.0827 44.8518 33.5427H43.2138C43.0878 34.2567 42.5558 34.6627 41.5338 34.6627C40.2738 34.6627 39.5738 33.8787 39.5178 32.4927H44.8798V32.0027C44.8798 29.3847 43.2418 28.3067 41.4218 28.3067C39.3358 28.3067 37.7818 29.8187 37.7818 32.0867V32.1987C37.7818 34.5087 39.3358 35.9227 41.4918 35.9227ZM39.5458 31.3587C39.7138 30.2247 40.3998 29.5387 41.4218 29.5387C42.4718 29.5387 43.1158 30.0987 43.1998 31.3587H39.5458ZM46.3929 35.7827H48.0869V31.9747C48.0869 30.4207 48.9829 29.9447 50.4669 29.9307V28.3487C49.2349 28.3627 48.5489 28.9087 48.0869 29.8327V28.4607H46.3929V35.7827ZM54.5177 35.9087C55.0357 35.9087 55.3997 35.8247 55.6657 35.7267V34.3827C55.4277 34.4807 55.1757 34.5227 54.8397 34.5227C54.3077 34.5227 53.9997 34.2287 53.9997 33.5847V29.7347H55.6097V28.4607H53.9997V26.8507H52.3057V28.4607H51.3257V29.7347H52.3057V33.7387C52.3057 35.1247 53.0617 35.9087 54.5177 35.9087ZM57.2357 35.7827H58.9297V28.4607H57.2357V35.7827ZM58.0617 27.2567C58.6217 27.2567 59.0697 26.8367 59.0697 26.2907C59.0697 25.7307 58.6217 25.3107 58.0617 25.3107C57.5017 25.3107 57.0537 25.7307 57.0537 26.2907C57.0537 26.8367 57.5017 27.2567 58.0617 27.2567ZM60.9945 35.7827H62.6885V31.4007C62.6885 30.2807 63.4585 29.7207 64.2985 29.7207C65.1245 29.7207 65.6005 30.1827 65.6005 31.2607V35.7827H67.2945V31.4007C67.2945 30.2807 68.0645 29.7207 68.9045 29.7207C69.7445 29.7207 70.2065 30.1827 70.2065 31.2607V35.7827H71.9005V31.1487C71.9005 29.1327 70.8085 28.3067 69.4645 28.3067C68.5545 28.3067 67.5465 28.7127 66.9865 29.6227C66.6225 28.7127 65.8665 28.3067 64.9145 28.3067C63.8365 28.3067 63.0385 28.8947 62.6885 29.5807V28.4607H60.9945V35.7827ZM77.066 35.9227C78.942 35.9227 80.188 35.0827 80.426 33.5427H78.788C78.662 34.2567 78.13 34.6627 77.108 34.6627C75.848 34.6627 75.148 33.8787 75.092 32.4927H80.454V32.0027C80.454 29.3847 78.816 28.3067 76.996 28.3067C74.91 28.3067 73.356 29.8187 73.356 32.0867V32.1987C73.356 34.5087 74.91 35.9227 77.066 35.9227ZM75.12 31.3587C75.288 30.2247 75.974 29.5387 76.996 29.5387C78.046 29.5387 78.69 30.0987 78.774 31.3587H75.12ZM85.443 35.7827H87.305V31.5267H91.799V35.7827H93.675V25.7727H91.799V30.0287H87.305V25.7727H85.443V35.7827ZM99.0244 34.6067C97.7364 34.6067 96.9944 33.6687 96.9944 32.1707V32.0587C96.9944 30.5467 97.7644 29.6367 99.0244 29.6367C100.284 29.6367 101.04 30.5607 101.04 32.0727V32.1707C101.04 33.6687 100.284 34.6067 99.0244 34.6067ZM99.0104 35.9227C101.166 35.9227 102.776 34.4387 102.776 32.1567V32.0447C102.776 29.8047 101.166 28.3067 99.0244 28.3067C96.8684 28.3067 95.2584 29.8187 95.2584 32.0867V32.1987C95.2584 34.4247 96.8544 35.9227 99.0104 35.9227ZM106.757 35.9227C107.947 35.9227 108.717 35.3487 109.081 34.6347V35.7827H110.775V28.4607H109.081V32.8147C109.081 33.9767 108.283 34.5647 107.373 34.5647C106.393 34.5647 105.931 34.0607 105.931 32.9547V28.4607H104.237V33.1507C104.237 35.0967 105.315 35.9227 106.757 35.9227ZM112.784 35.7827H114.478V31.9747C114.478 30.4207 115.374 29.9447 116.858 29.9307V28.3487C115.626 28.3627 114.94 28.9087 114.478 29.8327V28.4607H112.784V35.7827ZM120.854 35.9227C122.73 35.9227 123.78 35.0687 123.78 33.5847C123.78 32.0307 122.758 31.6107 121.036 31.3447C119.874 31.1487 119.524 30.9387 119.524 30.4067C119.524 29.8887 119.958 29.5387 120.686 29.5387C121.47 29.5387 121.848 29.8467 121.988 30.5187H123.556C123.374 28.8667 122.184 28.3067 120.686 28.3067C119.314 28.3067 117.942 29.0347 117.942 30.5047C117.942 31.8767 118.656 32.4227 120.588 32.7307C121.666 32.9127 122.156 33.1367 122.156 33.7387C122.156 34.3547 121.75 34.6767 120.84 34.6767C119.846 34.6767 119.468 34.2427 119.384 33.5007H117.788C117.858 35.0547 118.964 35.9227 120.854 35.9227Z" fill="#293549"/>
<path d="M15.4999 75.0227C20.6299 75.0227 23.5699 71.0927 23.5699 63.9827V62.6327C23.5699 56.4527 20.9299 53.0327 15.8599 53.0327C11.3299 53.0327 8.44993 55.9127 8.44993 60.2027C8.44993 64.2527 11.3299 67.2227 15.4999 67.2227C17.9599 67.2227 20.0299 66.1127 21.0499 64.3727C20.9899 70.0727 18.9799 72.8927 15.5599 72.8927C12.7999 72.8927 11.5999 71.6027 11.1199 69.5027H8.59993C9.16993 72.9527 11.5399 75.0227 15.4999 75.0227ZM15.8899 65.1827C12.9799 65.1827 11.1199 63.1727 11.1199 60.0827C11.1199 57.0527 13.0399 55.0727 15.8599 55.0727C18.7399 55.0727 20.8099 57.0227 20.8099 60.5327C20.8099 63.3227 18.7699 65.1827 15.8899 65.1827ZM36.874 74.7827H39.424V70.2827H42.394V68.1527H39.424V53.3327H35.944L26.134 69.4427V70.2827H36.874V74.7827ZM29.434 68.1527L36.874 55.3127V68.1527H29.434ZM45.9996 74.7827H48.4896V65.2727C48.4896 62.4527 50.5596 60.9827 52.8696 60.9827C55.3896 60.9827 56.5596 62.2127 56.5596 64.9727V74.7827H59.0496V65.1527C59.0496 60.5927 56.7696 58.8227 53.5296 58.8227C50.9496 58.8227 49.2096 60.1127 48.4896 61.5827V51.5927H45.9996V74.7827ZM78.0488 75.0527C82.4888 75.0527 85.6688 72.7127 85.6688 68.8127C85.6688 65.8427 84.0488 64.0727 81.5288 63.4127C83.4788 62.6027 84.9188 61.1627 84.9188 58.7327C84.9188 55.7627 82.5488 53.0627 78.4688 53.0627C74.3888 53.0627 71.5988 55.8527 71.4488 59.2427H73.7288C73.9988 56.8127 75.7988 55.1927 78.4688 55.1927C81.0788 55.1927 82.3688 56.7527 82.3688 58.7927C82.3688 61.1327 81.1388 62.4527 78.3488 62.4527H76.8488V64.6427H78.4688C81.4988 64.6427 82.9988 66.0527 82.9988 68.8127C82.9988 71.3327 81.4688 72.9527 78.1088 72.9527C74.7188 72.9527 73.1888 71.0027 72.9488 68.4527H70.5488C70.6988 72.2027 73.4888 75.0527 78.0488 75.0527ZM97.7742 72.8927C94.2042 72.8927 91.9242 70.0727 91.9242 64.6427V63.4427C91.9242 58.1627 94.0842 55.1627 97.7142 55.1627C101.344 55.1627 103.444 58.4027 103.444 63.3827V64.5827C103.444 70.0127 101.524 72.8927 97.7742 72.8927ZM97.7742 75.0527C103.054 75.0527 106.084 70.8527 106.084 64.6127V63.4127C106.084 57.2927 102.994 53.0627 97.7142 53.0627C92.4642 53.0627 89.2542 57.1427 89.2542 63.4727V64.6727C89.2542 70.9127 92.6442 75.0527 97.7742 75.0527ZM110.394 74.7827H112.884V65.1827C112.884 62.3627 114.984 60.9827 117.024 60.9827C119.184 60.9827 120.354 62.1227 120.354 64.8827V74.7827H122.844V65.1827C122.844 62.3627 124.944 60.9827 126.984 60.9827C129.144 60.9827 130.314 62.1227 130.314 64.8827V74.7827H132.804V65.0627C132.804 60.5027 130.344 58.8227 127.524 58.8227C125.574 58.8227 123.234 59.7227 122.154 61.7627C121.344 59.6627 119.574 58.8227 117.564 58.8227C115.314 58.8227 113.604 60.0227 112.884 61.4927V59.0927H110.394V74.7827Z" fill="#293549"/>
</svg>
