<svg width="142" height="106" viewBox="0 0 142 106" fill="none" xmlns="http://www.w3.org/2000/svg">
<rect x="0.399902" y="0.282684" width="141" height="105" rx="5" fill="#D3ECED"/>
<path d="M44.3272 34.2827H46.2032V25.7427H48.9892V24.2727H41.5412V25.7427H44.3272V34.2827ZM52.0317 34.4227C53.2217 34.4227 53.9917 33.8487 54.3557 33.1347V34.2827H56.0497V26.9607H54.3557V31.3147C54.3557 32.4767 53.5577 33.0647 52.6477 33.0647C51.6677 33.0647 51.2057 32.5607 51.2057 31.4547V26.9607H49.5117V31.6507C49.5117 33.5967 50.5897 34.4227 52.0317 34.4227ZM58.0583 34.2827H59.7523V30.4747C59.7523 28.9207 60.6483 28.4447 62.1323 28.4307V26.8487C60.9003 26.8627 60.2143 27.4087 59.7523 28.3327V26.9607H58.0583V34.2827ZM63.6227 34.2827H65.3167V29.9707C65.3167 28.8087 66.0867 28.2207 67.0387 28.2207C68.0467 28.2207 68.4947 28.7247 68.4947 29.8307V34.2827H70.1887V29.6767C70.1887 27.6607 69.1527 26.8067 67.6827 26.8067C66.4787 26.8067 65.6667 27.4087 65.3167 28.1227V26.9607H63.6227V34.2827ZM75.4163 33.1067C74.1283 33.1067 73.3863 32.1687 73.3863 30.6707V30.5587C73.3863 29.0467 74.1563 28.1367 75.4163 28.1367C76.6763 28.1367 77.4323 29.0607 77.4323 30.5727V30.6707C77.4323 32.1687 76.6763 33.1067 75.4163 33.1067ZM75.4023 34.4227C77.5583 34.4227 79.1683 32.9387 79.1683 30.6567V30.5447C79.1683 28.3047 77.5583 26.8067 75.4163 26.8067C73.2603 26.8067 71.6503 28.3187 71.6503 30.5867V30.6987C71.6503 32.9247 73.2463 34.4227 75.4023 34.4227ZM82.3435 34.2827H84.3175L86.9635 26.9607H85.2975L83.4075 32.5467L81.4895 26.9607H79.6695L82.3435 34.2827ZM91.165 34.4227C93.041 34.4227 94.287 33.5827 94.525 32.0427H92.887C92.761 32.7567 92.229 33.1627 91.207 33.1627C89.947 33.1627 89.247 32.3787 89.191 30.9927H94.553V30.5027C94.553 27.8847 92.915 26.8067 91.095 26.8067C89.009 26.8067 87.455 28.3187 87.455 30.5867V30.6987C87.455 33.0087 89.009 34.4227 91.165 34.4227ZM89.219 29.8587C89.387 28.7247 90.073 28.0387 91.095 28.0387C92.145 28.0387 92.789 28.5987 92.873 29.8587H89.219ZM96.0661 34.2827H97.7601V30.4747C97.7601 28.9207 98.6561 28.4447 100.14 28.4307V26.8487C98.9081 26.8627 98.2221 27.4087 97.7601 28.3327V26.9607H96.0661V34.2827Z" fill="#293549"/>
<path d="M32.1899 76.2827H34.7999V54.8327H32.3699L27.3899 58.4327V60.8627L32.1899 57.4127V76.2827ZM48.7023 74.3927C45.1323 74.3927 42.8523 71.5727 42.8523 66.1427V64.9427C42.8523 59.6627 45.0123 56.6627 48.6423 56.6627C52.2723 56.6627 54.3723 59.9027 54.3723 64.8827V66.0827C54.3723 71.5127 52.4523 74.3927 48.7023 74.3927ZM48.7023 76.5527C53.9823 76.5527 57.0123 72.3527 57.0123 66.1127V64.9127C57.0123 58.7927 53.9223 54.5627 48.6423 54.5627C43.3923 54.5627 40.1823 58.6427 40.1823 64.9727V66.1727C40.1823 72.4127 43.5723 76.5527 48.7023 76.5527ZM64.7422 62.8427C63.1522 62.8427 62.1022 61.7927 62.1022 59.7527C62.1022 57.7127 63.1522 56.6027 64.7422 56.6027C66.3622 56.6027 67.3822 57.8027 67.3822 59.7227C67.3822 61.7327 66.3622 62.8427 64.7422 62.8427ZM64.7422 64.7927C67.3222 64.7927 69.6622 62.6927 69.6622 59.7227C69.6622 56.8127 67.4122 54.6527 64.7422 54.6527C62.1322 54.6527 59.8222 56.8127 59.8222 59.7827C59.8222 62.6927 62.1922 64.7927 64.7422 64.7927ZM62.8522 76.2827H65.1322L78.2422 54.8327H75.9622L62.8522 76.2827ZM76.3822 74.5727C74.7922 74.5727 73.7422 73.5227 73.7422 71.4827C73.7422 69.4427 74.7922 68.3327 76.3822 68.3327C78.0022 68.3327 79.0222 69.5327 79.0222 71.4527C79.0222 73.4627 78.0022 74.5727 76.3822 74.5727ZM76.3822 76.5227C78.9622 76.5227 81.3022 74.4227 81.3022 71.4527C81.3022 68.5427 79.0522 66.3827 76.3822 66.3827C73.7722 66.3827 71.4622 68.5427 71.4622 71.5127C71.4622 74.4227 73.8322 76.5227 76.3822 76.5227Z" fill="#293549"/>
<path d="M98.8999 54.116L98.1723 53.43L98.8999 52.6583L99.6275 53.43L98.8999 54.116ZM99.8999 75.991C99.8999 76.5433 99.4522 76.991 98.8999 76.991C98.3476 76.991 97.8999 76.5433 97.8999 75.991L99.8999 75.991ZM89.9223 62.18L98.1723 53.43L99.6275 54.802L91.3775 63.552L89.9223 62.18ZM99.6275 53.43L107.877 62.18L106.422 63.552L98.1723 54.802L99.6275 53.43ZM99.8999 54.116L99.8999 75.991L97.8999 75.991L97.8999 54.116L99.8999 54.116Z" fill="#1E293B"/>
</svg>
