<svg width="141" height="106" viewBox="0 0 141 106" fill="none" xmlns="http://www.w3.org/2000/svg">
<rect y="0.282684" width="141" height="105" rx="5" fill="#45999E"/>
<path d="M38.3811 33.4227C40.5931 33.4227 42.0631 32.0647 42.0631 30.3287C42.0631 28.3267 40.8451 27.6547 38.4931 27.3327C36.7571 27.0807 36.4211 26.6747 36.4211 25.8627C36.4211 25.0927 37.0091 24.5467 38.1431 24.5467C39.2911 24.5467 39.8931 24.9947 40.0751 26.0447H41.7831C41.5871 24.1267 40.2991 23.1467 38.1431 23.1467C36.0571 23.1467 34.6571 24.3787 34.6571 26.0167C34.6571 27.8927 35.7911 28.6207 38.1851 28.9427C39.8091 29.2087 40.2711 29.5587 40.2711 30.4827C40.2711 31.4067 39.4871 32.0227 38.3811 32.0227C36.6871 32.0227 36.2811 31.1827 36.1551 30.1747H34.3631C34.5031 32.0647 35.6511 33.4227 38.3811 33.4227ZM45.6438 33.4227C46.7638 33.4227 47.4078 33.0167 47.8838 32.3867V33.2827H49.5498V28.4807C49.5498 26.4787 48.2618 25.8067 46.6238 25.8067C44.9858 25.8067 43.6278 26.5207 43.4878 28.2287H45.1258C45.2098 27.5007 45.6438 27.0807 46.5258 27.0807C47.5198 27.0807 47.8558 27.5707 47.8558 28.5507V28.9287H46.9458C44.8458 28.9287 43.1938 29.5447 43.1938 31.2527C43.1938 32.7787 44.2998 33.4227 45.6438 33.4227ZM46.0498 32.2047C45.2098 32.2047 44.8738 31.7987 44.8738 31.1827C44.8738 30.2867 45.6998 29.9927 46.9878 29.9927H47.8558V30.7207C47.8558 31.6587 47.0858 32.2047 46.0498 32.2047ZM53.9834 33.4087C54.5014 33.4087 54.8654 33.3247 55.1314 33.2267V31.8827C54.8934 31.9807 54.6414 32.0227 54.3054 32.0227C53.7734 32.0227 53.4654 31.7287 53.4654 31.0847V27.2347H55.0754V25.9607H53.4654V24.3507H51.7714V25.9607H50.7914V27.2347H51.7714V31.2387C51.7714 32.6247 52.5274 33.4087 53.9834 33.4087ZM56.7014 33.2827H58.3954V25.9607H56.7014V33.2827ZM57.5274 24.7567C58.0874 24.7567 58.5354 24.3367 58.5354 23.7907C58.5354 23.2307 58.0874 22.8107 57.5274 22.8107C56.9674 22.8107 56.5194 23.2307 56.5194 23.7907C56.5194 24.3367 56.9674 24.7567 57.5274 24.7567ZM62.9661 33.4227C64.8421 33.4227 65.8921 32.5687 65.8921 31.0847C65.8921 29.5307 64.8701 29.1107 63.1481 28.8447C61.9861 28.6487 61.6361 28.4387 61.6361 27.9067C61.6361 27.3887 62.0701 27.0387 62.7981 27.0387C63.5821 27.0387 63.9601 27.3467 64.1001 28.0187H65.6681C65.4861 26.3667 64.2961 25.8067 62.7981 25.8067C61.4261 25.8067 60.0541 26.5347 60.0541 28.0047C60.0541 29.3767 60.7681 29.9227 62.7001 30.2307C63.7781 30.4127 64.2681 30.6367 64.2681 31.2387C64.2681 31.8547 63.8621 32.1767 62.9521 32.1767C61.9581 32.1767 61.5801 31.7427 61.4961 31.0007H59.9001C59.9701 32.5547 61.0761 33.4227 62.9661 33.4227ZM67.6721 33.2827H69.3661V27.2347H71.0321V25.9607H69.3661V24.9107C69.3661 24.2807 69.6461 23.8327 70.3321 23.8327C70.6401 23.8327 70.9061 23.8887 71.1021 23.9587V22.6427C70.7941 22.5447 70.5421 22.5027 70.1361 22.5027C68.5681 22.5027 67.6721 23.3707 67.6721 24.9807V25.9607H66.6781V27.2347H67.6721V33.2827ZM74.2317 33.4227C75.3517 33.4227 75.9957 33.0167 76.4717 32.3867V33.2827H78.1377V28.4807C78.1377 26.4787 76.8497 25.8067 75.2117 25.8067C73.5737 25.8067 72.2157 26.5207 72.0757 28.2287H73.7137C73.7977 27.5007 74.2317 27.0807 75.1137 27.0807C76.1077 27.0807 76.4437 27.5707 76.4437 28.5507V28.9287H75.5337C73.4337 28.9287 71.7817 29.5447 71.7817 31.2527C71.7817 32.7787 72.8877 33.4227 74.2317 33.4227ZM74.6377 32.2047C73.7977 32.2047 73.4617 31.7987 73.4617 31.1827C73.4617 30.2867 74.2877 29.9927 75.5757 29.9927H76.4437V30.7207C76.4437 31.6587 75.6737 32.2047 74.6377 32.2047ZM83.2853 33.4227C85.2733 33.4227 86.5473 32.2327 86.6733 30.5527H85.1193C85.0213 31.5887 84.2513 32.1207 83.3553 32.1207C82.1093 32.1207 81.3253 31.2807 81.3253 29.6847V29.5727C81.3253 28.0607 82.1513 27.1647 83.3133 27.1647C84.2093 27.1647 84.8533 27.5707 84.9933 28.5507H86.6313C86.4353 26.5347 84.9093 25.8067 83.2853 25.8067C81.2413 25.8067 79.5893 27.2767 79.5893 29.6007V29.7127C79.5893 32.0507 81.1853 33.4227 83.2853 33.4227ZM90.624 33.4087C91.142 33.4087 91.506 33.3247 91.772 33.2267V31.8827C91.534 31.9807 91.282 32.0227 90.946 32.0227C90.414 32.0227 90.106 31.7287 90.106 31.0847V27.2347H91.716V25.9607H90.106V24.3507H88.412V25.9607H87.432V27.2347H88.412V31.2387C88.412 32.6247 89.168 33.4087 90.624 33.4087ZM93.342 33.2827H95.036V25.9607H93.342V33.2827ZM94.168 24.7567C94.728 24.7567 95.176 24.3367 95.176 23.7907C95.176 23.2307 94.728 22.8107 94.168 22.8107C93.608 22.8107 93.16 23.2307 93.16 23.7907C93.16 24.3367 93.608 24.7567 94.168 24.7567ZM100.377 32.1067C99.0888 32.1067 98.3468 31.1687 98.3468 29.6707V29.5587C98.3468 28.0467 99.1168 27.1367 100.377 27.1367C101.637 27.1367 102.393 28.0607 102.393 29.5727V29.6707C102.393 31.1687 101.637 32.1067 100.377 32.1067ZM100.363 33.4227C102.519 33.4227 104.129 31.9387 104.129 29.6567V29.5447C104.129 27.3047 102.519 25.8067 100.377 25.8067C98.2208 25.8067 96.6108 27.3187 96.6108 29.5867V29.6987C96.6108 31.9247 98.2068 33.4227 100.363 33.4227ZM105.659 33.2827H107.353V28.9707C107.353 27.8087 108.123 27.2207 109.075 27.2207C110.083 27.2207 110.531 27.7247 110.531 28.8307V33.2827H112.225V28.6767C112.225 26.6607 111.189 25.8067 109.719 25.8067C108.515 25.8067 107.703 26.4087 107.353 27.1227V25.9607H105.659V33.2827Z" fill="#293549"/>
<path d="M37.7 77.5527C42.14 77.5527 45.32 75.2127 45.32 71.3127C45.32 68.3427 43.7 66.5727 41.18 65.9127C43.13 65.1027 44.57 63.6627 44.57 61.2327C44.57 58.2627 42.2 55.5627 38.12 55.5627C34.04 55.5627 31.25 58.3527 31.1 61.7427H33.38C33.65 59.3127 35.45 57.6927 38.12 57.6927C40.73 57.6927 42.02 59.2527 42.02 61.2927C42.02 63.6327 40.79 64.9527 38 64.9527H36.5V67.1427H38.12C41.15 67.1427 42.65 68.5527 42.65 71.3127C42.65 73.8327 41.12 75.4527 37.76 75.4527C34.37 75.4527 32.84 73.5027 32.6 70.9527H30.2C30.35 74.7027 33.14 77.5527 37.7 77.5527ZM50.7238 77.2827H53.3938L61.4338 56.1927V55.8327H47.3038V57.9327H58.1938L50.7238 77.2827ZM68.0455 63.8427C66.4555 63.8427 65.4055 62.7927 65.4055 60.7527C65.4055 58.7127 66.4555 57.6027 68.0455 57.6027C69.6655 57.6027 70.6855 58.8027 70.6855 60.7227C70.6855 62.7327 69.6655 63.8427 68.0455 63.8427ZM68.0455 65.7927C70.6255 65.7927 72.9655 63.6927 72.9655 60.7227C72.9655 57.8127 70.7155 55.6527 68.0455 55.6527C65.4355 55.6527 63.1255 57.8127 63.1255 60.7827C63.1255 63.6927 65.4955 65.7927 68.0455 65.7927ZM66.1555 77.2827H68.4355L81.5455 55.8327H79.2655L66.1555 77.2827ZM79.6855 75.5727C78.0955 75.5727 77.0455 74.5227 77.0455 72.4827C77.0455 70.4427 78.0955 69.3327 79.6855 69.3327C81.3055 69.3327 82.3255 70.5327 82.3255 72.4527C82.3255 74.4627 81.3055 75.5727 79.6855 75.5727ZM79.6855 77.5227C82.2655 77.5227 84.6055 75.4227 84.6055 72.4527C84.6055 69.5427 82.3555 67.3827 79.6855 67.3827C77.0755 67.3827 74.7655 69.5427 74.7655 72.5127C74.7655 75.4227 77.1355 77.5227 79.6855 77.5227Z" fill="#293549"/>
<path d="M101.5 55.116L100.772 54.43L101.5 53.6583L102.228 54.43L101.5 55.116ZM102.5 76.991C102.5 77.5433 102.052 77.991 101.5 77.991C100.948 77.991 100.5 77.5433 100.5 76.991L102.5 76.991ZM92.5224 63.18L100.772 54.43L102.228 55.802L93.9776 64.552L92.5224 63.18ZM102.228 54.43L110.478 63.18L109.022 64.552L100.772 55.802L102.228 54.43ZM102.5 55.116L102.5 76.991L100.5 76.991L100.5 55.116L102.5 55.116Z" fill="#1E293B"/>
</svg>
