<svg width="314" height="258" viewBox="0 0 314 258" fill="none" xmlns="http://www.w3.org/2000/svg">
<rect width="314" height="258" rx="5" fill="#1E283B"/>
<path d="M208.42 90.62H209.128V89.096C210.688 89 211.804 87.944 211.804 86.576C211.804 85.028 210.892 84.464 209.128 84.152V81.152C210.016 81.272 210.508 81.752 210.688 82.676H211.624C211.468 81.284 210.568 80.468 209.128 80.336V79.244H208.42V80.324C206.92 80.42 205.888 81.392 205.888 82.64C205.888 84.08 206.836 84.644 208.42 84.944V88.28C206.956 88.148 206.668 87.32 206.548 86.384H205.54C205.684 87.764 206.368 88.952 208.42 89.096V90.62ZM210.808 86.648C210.808 87.536 210.088 88.184 209.128 88.28V85.064C210.436 85.34 210.808 85.76 210.808 86.648ZM206.836 82.544C206.836 81.8 207.412 81.224 208.42 81.14V84.032C207.088 83.756 206.836 83.3 206.836 82.544ZM215.895 89.108C217.527 89.108 218.835 88.004 218.835 86.192C218.835 84.44 217.707 83.348 216.171 83.348C215.355 83.348 214.767 83.612 214.419 83.936V81.32H218.379V80.42H213.555V85.016H213.939C214.395 84.5 214.971 84.188 215.967 84.188C217.059 84.188 217.767 84.98 217.767 86.192C217.767 87.488 217.047 88.268 215.883 88.268C214.575 88.268 214.203 87.62 214.035 86.684H213.039C213.159 88.088 214.047 89.108 215.895 89.108ZM220.778 89.06C221.198 89.06 221.546 88.724 221.546 88.292C221.546 87.86 221.198 87.524 220.778 87.524C220.358 87.524 220.01 87.86 220.01 88.292C220.01 88.724 220.358 89.06 220.778 89.06ZM225.816 89.108C227.268 89.108 228.768 88.256 228.768 86.54C228.768 85.436 228.12 84.692 227.124 84.332C227.916 83.984 228.444 83.384 228.444 82.52C228.444 81.176 227.148 80.312 225.816 80.312C224.496 80.312 223.176 81.152 223.176 82.544C223.176 83.384 223.656 84.032 224.472 84.344C223.56 84.668 222.852 85.412 222.852 86.564C222.852 88.268 224.412 89.108 225.816 89.108ZM225.816 88.256C224.82 88.256 223.92 87.656 223.92 86.528C223.92 85.388 224.82 84.8 225.84 84.8C226.86 84.8 227.7 85.376 227.7 86.504C227.7 87.644 226.872 88.256 225.816 88.256ZM225.852 83.972C224.976 83.972 224.232 83.456 224.232 82.556C224.232 81.668 224.928 81.128 225.816 81.128C226.704 81.128 227.388 81.704 227.388 82.532C227.388 83.444 226.764 83.972 225.852 83.972ZM233.641 89H234.637V85.16C234.637 84.032 235.477 83.48 236.293 83.48C237.157 83.48 237.625 83.936 237.625 85.04V89H238.621V85.16C238.621 84.032 239.461 83.48 240.277 83.48C241.141 83.48 241.609 83.936 241.609 85.04V89H242.605V85.112C242.605 83.288 241.621 82.616 240.493 82.616C239.713 82.616 238.777 82.976 238.345 83.792C238.021 82.952 237.313 82.616 236.509 82.616C235.609 82.616 234.925 83.096 234.637 83.684V82.724H233.641V89ZM244.587 89H245.583V82.724H244.587V89ZM245.067 81.416C245.427 81.416 245.727 81.116 245.727 80.756C245.727 80.396 245.427 80.096 245.067 80.096C244.707 80.096 244.407 80.396 244.407 80.756C244.407 81.116 244.707 81.416 245.067 81.416ZM247.645 89H248.653V79.724H247.645V89ZM250.716 89H251.724V79.724H250.716V89ZM253.786 89H254.782V82.724H253.786V89ZM254.266 81.416C254.626 81.416 254.926 81.116 254.926 80.756C254.926 80.396 254.626 80.096 254.266 80.096C253.906 80.096 253.606 80.396 253.606 80.756C253.606 81.116 253.906 81.416 254.266 81.416ZM259.437 88.28C258.165 88.28 257.385 87.344 257.385 85.916V85.82C257.385 84.38 258.177 83.444 259.437 83.444C260.685 83.444 261.489 84.38 261.489 85.832V85.916C261.489 87.332 260.697 88.28 259.437 88.28ZM259.425 89.108C261.213 89.108 262.521 87.8 262.521 85.904V85.808C262.521 83.924 261.213 82.616 259.437 82.616C257.661 82.616 256.353 83.936 256.353 85.82V85.916C256.353 87.752 257.637 89.108 259.425 89.108ZM264.063 89H265.059V85.196C265.059 84.068 265.887 83.48 266.811 83.48C267.819 83.48 268.287 83.972 268.287 85.076V89H269.283V85.148C269.283 83.324 268.371 82.616 267.075 82.616C266.043 82.616 265.347 83.132 265.059 83.72V82.724H264.063V89Z" fill="white"/>
<path d="M252.316 116H253.36V107.42H252.388L250.396 108.86V109.832L252.316 108.452V116ZM258.165 116.108C259.797 116.108 261.105 115.004 261.105 113.192C261.105 111.44 259.977 110.348 258.441 110.348C257.625 110.348 257.037 110.612 256.689 110.936V108.32H260.649V107.42H255.825V112.016H256.209C256.665 111.5 257.241 111.188 258.237 111.188C259.329 111.188 260.037 111.98 260.037 113.192C260.037 114.488 259.317 115.268 258.153 115.268C256.845 115.268 256.473 114.62 256.305 113.684H255.309C255.429 115.088 256.317 116.108 258.165 116.108ZM263.849 110.624C263.213 110.624 262.793 110.204 262.793 109.388C262.793 108.572 263.213 108.128 263.849 108.128C264.497 108.128 264.905 108.608 264.905 109.376C264.905 110.18 264.497 110.624 263.849 110.624ZM263.849 111.404C264.881 111.404 265.817 110.564 265.817 109.376C265.817 108.212 264.917 107.348 263.849 107.348C262.805 107.348 261.881 108.212 261.881 109.4C261.881 110.564 262.829 111.404 263.849 111.404ZM263.093 116H264.005L269.249 107.42H268.337L263.093 116ZM268.505 115.316C267.869 115.316 267.449 114.896 267.449 114.08C267.449 113.264 267.869 112.82 268.505 112.82C269.153 112.82 269.561 113.3 269.561 114.068C269.561 114.872 269.153 115.316 268.505 115.316ZM268.505 116.096C269.537 116.096 270.473 115.256 270.473 114.068C270.473 112.904 269.573 112.04 268.505 112.04C267.461 112.04 266.537 112.904 266.537 114.092C266.537 115.256 267.485 116.096 268.505 116.096Z" fill="white"/>
<path d="M245.316 147H246.36V138.42H245.388L243.396 139.86V140.832L245.316 139.452V147ZM248.021 147H253.769V146.148H249.629L251.993 143.844C253.049 142.812 253.721 141.78 253.721 140.724C253.721 139.248 252.713 138.312 251.129 138.312C249.497 138.312 248.477 139.38 248.345 141.06H249.317C249.485 139.716 250.133 139.152 251.129 139.152C252.101 139.152 252.665 139.728 252.665 140.688C252.665 141.564 252.209 142.344 251.429 143.172L248.021 146.76V147ZM257.81 147.108C259.442 147.108 260.75 146.004 260.75 144.192C260.75 142.44 259.622 141.348 258.086 141.348C257.27 141.348 256.682 141.612 256.334 141.936V139.32H260.294V138.42H255.47V143.016H255.854C256.31 142.5 256.886 142.188 257.882 142.188C258.974 142.188 259.682 142.98 259.682 144.192C259.682 145.488 258.962 146.268 257.798 146.268C256.49 146.268 256.118 145.62 255.95 144.684H254.954C255.074 146.088 255.962 147.108 257.81 147.108ZM263.493 141.624C262.857 141.624 262.437 141.204 262.437 140.388C262.437 139.572 262.857 139.128 263.493 139.128C264.141 139.128 264.549 139.608 264.549 140.376C264.549 141.18 264.141 141.624 263.493 141.624ZM263.493 142.404C264.525 142.404 265.461 141.564 265.461 140.376C265.461 139.212 264.561 138.348 263.493 138.348C262.449 138.348 261.525 139.212 261.525 140.4C261.525 141.564 262.473 142.404 263.493 142.404ZM262.737 147H263.649L268.893 138.42H267.981L262.737 147ZM268.149 146.316C267.513 146.316 267.093 145.896 267.093 145.08C267.093 144.264 267.513 143.82 268.149 143.82C268.797 143.82 269.205 144.3 269.205 145.068C269.205 145.872 268.797 146.316 268.149 146.316ZM268.149 147.096C269.181 147.096 270.117 146.256 270.117 145.068C270.117 143.904 269.217 143.04 268.149 143.04C267.105 143.04 266.181 143.904 266.181 145.092C266.181 146.256 267.129 147.096 268.149 147.096Z" fill="white"/>
<path d="M236.764 179H237.784V177.2H238.972V176.348H237.784V170.42H236.392L232.468 176.864V177.2H236.764V179ZM233.788 176.348L236.764 171.212V176.348H233.788ZM244.17 179H245.19V177.2H246.378V176.348H245.19V170.42H243.798L239.874 176.864V177.2H244.17V179ZM241.194 176.348L244.17 171.212V176.348H241.194ZM249.013 173.624C248.377 173.624 247.957 173.204 247.957 172.388C247.957 171.572 248.377 171.128 249.013 171.128C249.661 171.128 250.069 171.608 250.069 172.376C250.069 173.18 249.661 173.624 249.013 173.624ZM249.013 174.404C250.045 174.404 250.981 173.564 250.981 172.376C250.981 171.212 250.081 170.348 249.013 170.348C247.969 170.348 247.045 171.212 247.045 172.4C247.045 173.564 247.993 174.404 249.013 174.404ZM248.257 179H249.169L254.413 170.42H253.501L248.257 179ZM253.669 178.316C253.033 178.316 252.613 177.896 252.613 177.08C252.613 176.264 253.033 175.82 253.669 175.82C254.317 175.82 254.725 176.3 254.725 177.068C254.725 177.872 254.317 178.316 253.669 178.316ZM253.669 179.096C254.701 179.096 255.637 178.256 255.637 177.068C255.637 175.904 254.737 175.04 253.669 175.04C252.625 175.04 251.701 175.904 251.701 177.092C251.701 178.256 252.649 179.096 253.669 179.096Z" fill="white"/>
<path d="M42.2 49.16C44.728 49.16 46.408 47.608 46.408 45.624C46.408 43.336 45.016 42.568 42.328 42.2C40.344 41.912 39.96 41.448 39.96 40.52C39.96 39.64 40.632 39.016 41.928 39.016C43.24 39.016 43.928 39.528 44.136 40.728H46.088C45.864 38.536 44.392 37.416 41.928 37.416C39.544 37.416 37.944 38.824 37.944 40.696C37.944 42.84 39.24 43.672 41.976 44.04C43.832 44.344 44.36 44.744 44.36 45.8C44.36 46.856 43.464 47.56 42.2 47.56C40.264 47.56 39.8 46.6 39.656 45.448H37.608C37.768 47.608 39.08 49.16 42.2 49.16ZM51.0301 49.16C52.3901 49.16 53.2701 48.504 53.6861 47.688V49H55.6221V40.632H53.6861V45.608C53.6861 46.936 52.7741 47.608 51.7341 47.608C50.6141 47.608 50.0861 47.032 50.0861 45.768V40.632H48.1501V45.992C48.1501 48.216 49.3821 49.16 51.0301 49.16ZM57.9176 49H59.8536V43.992C59.8536 42.712 60.7336 42.072 61.6936 42.072C62.6376 42.072 63.1816 42.6 63.1816 43.832V49H65.1176V43.992C65.1176 42.712 65.9976 42.072 66.9576 42.072C67.9176 42.072 68.4456 42.6 68.4456 43.832V49H70.3816V43.704C70.3816 41.4 69.1336 40.456 67.5976 40.456C66.5576 40.456 65.4056 40.92 64.7656 41.96C64.3496 40.92 63.4856 40.456 62.3976 40.456C61.1656 40.456 60.2536 41.128 59.8536 41.912V40.632H57.9176V49ZM72.6051 49H74.5411V43.992C74.5411 42.712 75.4211 42.072 76.3811 42.072C77.3251 42.072 77.8691 42.6 77.8691 43.832V49H79.8051V43.992C79.8051 42.712 80.6851 42.072 81.6451 42.072C82.6051 42.072 83.1331 42.6 83.1331 43.832V49H85.0691V43.704C85.0691 41.4 83.8211 40.456 82.2851 40.456C81.2451 40.456 80.0931 40.92 79.4531 41.96C79.0371 40.92 78.1731 40.456 77.0851 40.456C75.8531 40.456 74.9411 41.128 74.5411 41.912V40.632H72.6051V49ZM89.4846 49.16C90.7646 49.16 91.5006 48.696 92.0446 47.976V49H93.9486V43.512C93.9486 41.224 92.4766 40.456 90.6046 40.456C88.7326 40.456 87.1806 41.272 87.0206 43.224H88.8926C88.9886 42.392 89.4846 41.912 90.4926 41.912C91.6286 41.912 92.0126 42.472 92.0126 43.592V44.024H90.9726C88.5726 44.024 86.6846 44.728 86.6846 46.68C86.6846 48.424 87.9486 49.16 89.4846 49.16ZM89.9486 47.768C88.9886 47.768 88.6046 47.304 88.6046 46.6C88.6046 45.576 89.5486 45.24 91.0206 45.24H92.0126V46.072C92.0126 47.144 91.1326 47.768 89.9486 47.768ZM96.1676 49H98.1036V44.648C98.1036 42.872 99.1276 42.328 100.824 42.312V40.504C99.4156 40.52 98.6316 41.144 98.1036 42.2V40.632H96.1676V49ZM103.533 51.864H105.437L109.997 40.632H108.109L106.061 46.024L103.837 40.632H101.741L105.053 48.152L103.533 51.864Z" fill="#FFF4D7"/>
<path d="M235.804 209.108C237.616 209.108 238.768 207.956 238.768 206.24C238.768 204.668 237.664 203.432 235.96 203.432C234.964 203.432 234.16 203.9 233.752 204.596C233.8 202.328 234.712 201.164 236.008 201.164C236.968 201.164 237.4 201.596 237.592 202.388H238.588C238.36 201.008 237.412 200.312 236.08 200.312C234.112 200.312 232.72 201.92 232.72 205.004V205.208C232.72 207.356 233.464 209.108 235.804 209.108ZM235.804 208.292C234.652 208.292 233.824 207.548 233.824 206.144C233.824 205.028 234.64 204.248 235.792 204.248C236.956 204.248 237.7 205.052 237.7 206.288C237.7 207.5 236.932 208.292 235.804 208.292ZM242.961 209.108C244.413 209.108 245.913 208.256 245.913 206.54C245.913 205.436 245.265 204.692 244.269 204.332C245.061 203.984 245.589 203.384 245.589 202.52C245.589 201.176 244.293 200.312 242.961 200.312C241.641 200.312 240.321 201.152 240.321 202.544C240.321 203.384 240.801 204.032 241.617 204.344C240.705 204.668 239.997 205.412 239.997 206.564C239.997 208.268 241.557 209.108 242.961 209.108ZM242.961 208.256C241.965 208.256 241.065 207.656 241.065 206.528C241.065 205.388 241.965 204.8 242.985 204.8C244.005 204.8 244.845 205.376 244.845 206.504C244.845 207.644 244.017 208.256 242.961 208.256ZM242.997 203.972C242.121 203.972 241.377 203.456 241.377 202.556C241.377 201.668 242.073 201.128 242.961 201.128C243.849 201.128 244.533 201.704 244.533 202.532C244.533 203.444 243.909 203.972 242.997 203.972ZM248.743 203.624C248.107 203.624 247.687 203.204 247.687 202.388C247.687 201.572 248.107 201.128 248.743 201.128C249.391 201.128 249.799 201.608 249.799 202.376C249.799 203.18 249.391 203.624 248.743 203.624ZM248.743 204.404C249.775 204.404 250.711 203.564 250.711 202.376C250.711 201.212 249.811 200.348 248.743 200.348C247.699 200.348 246.775 201.212 246.775 202.4C246.775 203.564 247.723 204.404 248.743 204.404ZM247.987 209H248.899L254.143 200.42H253.231L247.987 209ZM253.399 208.316C252.763 208.316 252.343 207.896 252.343 207.08C252.343 206.264 252.763 205.82 253.399 205.82C254.047 205.82 254.455 206.3 254.455 207.068C254.455 207.872 254.047 208.316 253.399 208.316ZM253.399 209.096C254.431 209.096 255.367 208.256 255.367 207.068C255.367 205.904 254.467 205.04 253.399 205.04C252.355 205.04 251.431 205.904 251.431 207.092C251.431 208.256 252.379 209.096 253.399 209.096Z" fill="white"/>
<path d="M265 201.167L264.633 200.828L265 200.43L265.367 200.828L265 201.167ZM265.5 209.292C265.5 209.568 265.276 209.792 265 209.792C264.724 209.792 264.5 209.568 264.5 209.292L265.5 209.292ZM261.633 204.078L264.633 200.828L265.367 201.506L262.367 204.756L261.633 204.078ZM265.367 200.828L268.367 204.078L267.633 204.756L264.633 201.506L265.367 200.828ZM265.5 201.167L265.5 209.292L264.5 209.292L264.5 201.167L265.5 201.167Z" fill="white"/>
<path d="M265 171.167L264.633 170.828L265 170.429L265.367 170.828L265 171.167ZM265.5 179.292C265.5 179.568 265.276 179.792 265 179.792C264.724 179.792 264.5 179.568 264.5 179.292L265.5 179.292ZM261.633 174.078L264.633 170.828L265.367 171.506L262.367 174.756L261.633 174.078ZM265.367 170.828L268.367 174.078L267.633 174.756L264.633 171.506L265.367 170.828ZM265.5 171.167L265.5 179.292L264.5 179.292L264.5 171.167L265.5 171.167Z" fill="white"/>
<path d="M38.08 89H39.124V85.268H40.444L43 89H44.164L41.536 85.196C42.712 84.968 43.66 84.272 43.66 82.856V82.808C43.66 81.092 42.304 80.42 40.66 80.42H38.08V89ZM39.124 84.44V81.26H40.732C41.896 81.26 42.616 81.644 42.616 82.808V82.856C42.616 83.912 41.956 84.44 40.732 84.44H39.124ZM47.9354 89.108C49.3514 89.108 50.3954 88.448 50.6114 87.188H49.6154C49.4834 87.92 48.9194 88.28 47.9474 88.28C46.6634 88.28 45.9794 87.488 45.9314 86.06H50.6594V85.736C50.6594 83.492 49.2914 82.616 47.8394 82.616C46.1114 82.616 44.8994 83.936 44.8994 85.832V85.928C44.8994 87.86 46.1594 89.108 47.9354 89.108ZM45.9674 85.256C46.1354 84.14 46.8194 83.444 47.8394 83.444C48.8714 83.444 49.5434 83.96 49.6394 85.256H45.9674ZM53.7011 89H54.9731L57.2291 82.724H56.1971L54.3611 87.992L52.5011 82.724H51.4211L53.7011 89ZM60.9315 89.108C62.3475 89.108 63.3915 88.448 63.6075 87.188H62.6115C62.4795 87.92 61.9155 88.28 60.9435 88.28C59.6595 88.28 58.9755 87.488 58.9275 86.06H63.6555V85.736C63.6555 83.492 62.2875 82.616 60.8355 82.616C59.1075 82.616 57.8955 83.936 57.8955 85.832V85.928C57.8955 87.86 59.1555 89.108 60.9315 89.108ZM58.9635 85.256C59.1315 84.14 59.8155 83.444 60.8355 83.444C61.8675 83.444 62.5395 83.96 62.6355 85.256H58.9635ZM65.1838 89H66.1798V85.196C66.1798 84.068 67.0078 83.48 67.9318 83.48C68.9398 83.48 69.4078 83.972 69.4078 85.076V89H70.4038V85.148C70.4038 83.324 69.4918 82.616 68.1958 82.616C67.1638 82.616 66.4678 83.132 66.1798 83.72V82.724H65.1838V89ZM74.4797 89.108C75.4877 89.108 76.1837 88.592 76.4717 88.004V89H77.4677V82.724H76.4717V86.528C76.4717 87.656 75.6317 88.244 74.7437 88.244C73.7597 88.244 73.2917 87.752 73.2917 86.648V82.724H72.2957V86.696C72.2957 88.424 73.2317 89.108 74.4797 89.108ZM82.0487 89.108C83.4647 89.108 84.5087 88.448 84.7247 87.188H83.7287C83.5967 87.92 83.0327 88.28 82.0607 88.28C80.7767 88.28 80.0927 87.488 80.0447 86.06H84.7727V85.736C84.7727 83.492 83.4047 82.616 81.9527 82.616C80.2247 82.616 79.0127 83.936 79.0127 85.832V85.928C79.0127 87.86 80.2727 89.108 82.0487 89.108ZM80.0807 85.256C80.2487 84.14 80.9327 83.444 81.9527 83.444C82.9847 83.444 83.6567 83.96 83.7527 85.256H80.0807Z" fill="white"/>
<path d="M38.08 149H39.124V145.268H40.444L43 149H44.164L41.536 145.196C42.712 144.968 43.66 144.272 43.66 142.856V142.808C43.66 141.092 42.304 140.42 40.66 140.42H38.08V149ZM39.124 144.44V141.26H40.732C41.896 141.26 42.616 141.644 42.616 142.808V142.856C42.616 143.912 41.956 144.44 40.732 144.44H39.124ZM47.9354 149.108C49.3514 149.108 50.3954 148.448 50.6114 147.188H49.6154C49.4834 147.92 48.9194 148.28 47.9474 148.28C46.6634 148.28 45.9794 147.488 45.9314 146.06H50.6594V145.736C50.6594 143.492 49.2914 142.616 47.8394 142.616C46.1114 142.616 44.8994 143.936 44.8994 145.832V145.928C44.8994 147.86 46.1594 149.108 47.9354 149.108ZM45.9674 145.256C46.1354 144.14 46.8194 143.444 47.8394 143.444C48.8714 143.444 49.5434 143.96 49.6394 145.256H45.9674ZM54.0957 149.084C54.5037 149.084 54.7437 149.024 54.9477 148.952V148.112C54.7317 148.196 54.4917 148.244 54.1797 148.244C53.6757 148.244 53.3997 147.944 53.3997 147.332V143.564H54.8637V142.724H53.3997V141.296H52.4037V142.724H51.5037V143.564H52.4037V147.428C52.4037 148.412 52.9557 149.084 54.0957 149.084ZM58.5773 149.108C59.5853 149.108 60.2813 148.592 60.5693 148.004V149H61.5653V142.724H60.5693V146.528C60.5693 147.656 59.7293 148.244 58.8413 148.244C57.8573 148.244 57.3893 147.752 57.3893 146.648V142.724H56.3933V146.696C56.3933 148.424 57.3293 149.108 58.5773 149.108ZM63.5783 149H64.5743V145.556C64.5743 144.008 65.3783 143.612 66.6383 143.552V142.616C65.5103 142.652 64.9703 143.144 64.5743 143.852V142.724H63.5783V149ZM68.09 149H69.086V145.196C69.086 144.068 69.914 143.48 70.838 143.48C71.846 143.48 72.314 143.972 72.314 145.076V149H73.31V145.148C73.31 143.324 72.398 142.616 71.102 142.616C70.07 142.616 69.374 143.132 69.086 143.72V142.724H68.09V149ZM81.0537 148.28C79.7817 148.28 79.0017 147.344 79.0017 145.916V145.82C79.0017 144.38 79.7937 143.444 81.0537 143.444C82.3017 143.444 83.1057 144.38 83.1057 145.832V145.916C83.1057 147.332 82.3137 148.28 81.0537 148.28ZM81.0417 149.108C82.8297 149.108 84.1377 147.8 84.1377 145.904V145.808C84.1377 143.924 82.8297 142.616 81.0537 142.616C79.2777 142.616 77.9697 143.936 77.9697 145.82V145.916C77.9697 147.752 79.2537 149.108 81.0417 149.108ZM85.6799 149H86.6759V145.196C86.6759 144.068 87.5039 143.48 88.4279 143.48C89.4359 143.48 89.9039 143.972 89.9039 145.076V149H90.8999V145.148C90.8999 143.324 89.9879 142.616 88.6919 142.616C87.6599 142.616 86.9639 143.132 86.6759 143.72V142.724H85.6799V149ZM96.1595 149H97.2035V140.42H96.1595V149ZM99.3557 149H100.352V145.196C100.352 144.068 101.18 143.48 102.104 143.48C103.112 143.48 103.58 143.972 103.58 145.076V149H104.576V145.148C104.576 143.324 103.664 142.616 102.368 142.616C101.336 142.616 100.64 143.132 100.352 143.72V142.724H99.3557V149ZM107.982 149H109.254L111.51 142.724H110.478L108.642 147.992L106.782 142.724H105.702L107.982 149ZM115.213 149.108C116.629 149.108 117.673 148.448 117.889 147.188H116.893C116.761 147.92 116.197 148.28 115.225 148.28C113.941 148.28 113.257 147.488 113.209 146.06H117.937V145.736C117.937 143.492 116.569 142.616 115.117 142.616C113.389 142.616 112.177 143.936 112.177 145.832V145.928C112.177 147.86 113.437 149.108 115.213 149.108ZM113.245 145.256C113.413 144.14 114.097 143.444 115.117 143.444C116.149 143.444 116.821 143.96 116.917 145.256H113.245ZM121.468 149.108C122.992 149.108 123.772 148.34 123.772 147.2C123.772 145.868 122.86 145.58 121.564 145.34C120.412 145.136 120.1 144.908 120.1 144.344C120.1 143.804 120.568 143.444 121.288 143.444C122.08 143.444 122.464 143.744 122.608 144.428H123.568C123.4 143.072 122.428 142.616 121.3 142.616C120.316 142.616 119.176 143.216 119.176 144.38C119.176 145.472 119.728 145.928 121.36 146.228C122.332 146.408 122.824 146.624 122.824 147.284C122.824 147.956 122.404 148.28 121.456 148.28C120.448 148.28 120.052 147.812 119.98 147.068H119.008C119.068 148.352 119.968 149.108 121.468 149.108ZM127.197 149.084C127.605 149.084 127.845 149.024 128.049 148.952V148.112C127.833 148.196 127.593 148.244 127.281 148.244C126.777 148.244 126.501 147.944 126.501 147.332V143.564H127.965V142.724H126.501V141.296H125.505V142.724H124.605V143.564H125.505V147.428C125.505 148.412 126.057 149.084 127.197 149.084ZM129.555 149H130.551V145.16C130.551 144.032 131.391 143.48 132.207 143.48C133.071 143.48 133.539 143.936 133.539 145.04V149H134.535V145.16C134.535 144.032 135.375 143.48 136.191 143.48C137.055 143.48 137.523 143.936 137.523 145.04V149H138.519V145.112C138.519 143.288 137.535 142.616 136.407 142.616C135.627 142.616 134.691 142.976 134.259 143.792C133.935 142.952 133.227 142.616 132.423 142.616C131.523 142.616 130.839 143.096 130.551 143.684V142.724H129.555V149ZM143.045 149.108C144.461 149.108 145.505 148.448 145.721 147.188H144.725C144.593 147.92 144.029 148.28 143.057 148.28C141.773 148.28 141.089 147.488 141.041 146.06H145.769V145.736C145.769 143.492 144.401 142.616 142.949 142.616C141.221 142.616 140.009 143.936 140.009 145.832V145.928C140.009 147.86 141.269 149.108 143.045 149.108ZM141.077 145.256C141.245 144.14 141.929 143.444 142.949 143.444C143.981 143.444 144.653 143.96 144.749 145.256H141.077ZM147.297 149H148.293V145.196C148.293 144.068 149.121 143.48 150.045 143.48C151.053 143.48 151.521 143.972 151.521 145.076V149H152.517V145.148C152.517 143.324 151.605 142.616 150.309 142.616C149.277 142.616 148.581 143.132 148.293 143.72V142.724H147.297V149ZM156.377 149.084C156.785 149.084 157.025 149.024 157.229 148.952V148.112C157.013 148.196 156.773 148.244 156.461 148.244C155.957 148.244 155.681 147.944 155.681 147.332V143.564H157.145V142.724H155.681V141.296H154.685V142.724H153.785V143.564H154.685V147.428C154.685 148.412 155.237 149.084 156.377 149.084Z" fill="white"/>
<path d="M41.668 209.108C43.588 209.108 44.956 208.136 45.256 206.156H44.284C44.068 207.548 43.096 208.256 41.692 208.256C39.844 208.256 38.74 206.936 38.74 204.752V204.656C38.74 202.496 39.928 201.116 41.704 201.116C43.168 201.116 43.924 201.788 44.14 203.096H45.172C44.992 201.236 43.48 200.288 41.692 200.288C39.364 200.288 37.66 202.124 37.66 204.668V204.764C37.66 207.404 39.184 209.108 41.668 209.108ZM48.8976 209.108C49.9056 209.108 50.6016 208.592 50.8896 208.004V209H51.8856V202.724H50.8896V206.528C50.8896 207.656 50.0496 208.244 49.1616 208.244C48.1776 208.244 47.7096 207.752 47.7096 206.648V202.724H46.7136V206.696C46.7136 208.424 47.6496 209.108 48.8976 209.108ZM55.8426 209.108C57.3666 209.108 58.1466 208.34 58.1466 207.2C58.1466 205.868 57.2346 205.58 55.9386 205.34C54.7866 205.136 54.4746 204.908 54.4746 204.344C54.4746 203.804 54.9426 203.444 55.6626 203.444C56.4546 203.444 56.8386 203.744 56.9826 204.428H57.9426C57.7746 203.072 56.8026 202.616 55.6746 202.616C54.6906 202.616 53.5506 203.216 53.5506 204.38C53.5506 205.472 54.1026 205.928 55.7346 206.228C56.7066 206.408 57.1986 206.624 57.1986 207.284C57.1986 207.956 56.7786 208.28 55.8306 208.28C54.8226 208.28 54.4266 207.812 54.3546 207.068H53.3826C53.4426 208.352 54.3426 209.108 55.8426 209.108ZM61.5723 209.084C61.9803 209.084 62.2203 209.024 62.4243 208.952V208.112C62.2083 208.196 61.9683 208.244 61.6562 208.244C61.1523 208.244 60.8763 207.944 60.8763 207.332V203.564H62.3403V202.724H60.8763V201.296H59.8803V202.724H58.9803V203.564H59.8803V207.428C59.8803 208.412 60.4323 209.084 61.5723 209.084ZM66.5459 208.28C65.2739 208.28 64.4939 207.344 64.4939 205.916V205.82C64.4939 204.38 65.2859 203.444 66.5459 203.444C67.7939 203.444 68.5979 204.38 68.5979 205.832V205.916C68.5979 207.332 67.8059 208.28 66.5459 208.28ZM66.5339 209.108C68.3219 209.108 69.6299 207.8 69.6299 205.904V205.808C69.6299 203.924 68.3219 202.616 66.5459 202.616C64.7699 202.616 63.4619 203.936 63.4619 205.82V205.916C63.4619 207.752 64.7459 209.108 66.5339 209.108ZM71.1721 209H72.1681V205.16C72.1681 204.032 73.0081 203.48 73.8241 203.48C74.6881 203.48 75.1561 203.936 75.1561 205.04V209H76.1521V205.16C76.1521 204.032 76.9921 203.48 77.8081 203.48C78.6721 203.48 79.1401 203.936 79.1401 205.04V209H80.1361V205.112C80.1361 203.288 79.1521 202.616 78.0241 202.616C77.2441 202.616 76.3081 202.976 75.8761 203.792C75.5521 202.952 74.8441 202.616 74.0401 202.616C73.1401 202.616 72.4561 203.096 72.1681 203.684V202.724H71.1721V209ZM84.6619 209.108C86.0779 209.108 87.1219 208.448 87.3379 207.188H86.3419C86.2099 207.92 85.6459 208.28 84.6739 208.28C83.3899 208.28 82.7059 207.488 82.6579 206.06H87.3859V205.736C87.3859 203.492 86.0179 202.616 84.5659 202.616C82.8379 202.616 81.6259 203.936 81.6259 205.832V205.928C81.6259 207.86 82.8859 209.108 84.6619 209.108ZM82.6939 205.256C82.8619 204.14 83.5459 203.444 84.5659 203.444C85.5979 203.444 86.2699 203.96 86.3659 205.256H82.6939ZM88.9143 209H89.9103V205.556C89.9103 204.008 90.7143 203.612 91.9743 203.552V202.616C90.8463 202.652 90.3063 203.144 89.9103 203.852V202.724H88.9143V209ZM99.4458 209.108C101.15 209.108 102.41 208.016 102.41 206.576C102.41 204.956 101.402 204.38 99.4938 204.08C97.7418 203.816 97.4298 203.384 97.4298 202.544C97.4298 201.74 98.0418 201.152 99.2178 201.152C100.406 201.152 101.03 201.596 101.234 202.676H102.17C102.002 201.152 100.934 200.312 99.2178 200.312C97.5978 200.312 96.4578 201.32 96.4578 202.64C96.4578 204.164 97.5258 204.728 99.3258 205.004C100.958 205.268 101.402 205.676 101.402 206.648C101.402 207.62 100.55 208.268 99.4458 208.268C97.7178 208.268 97.3098 207.404 97.1777 206.384H96.1698C96.3258 207.848 97.1538 209.108 99.4458 209.108ZM105.697 209.108C106.621 209.108 107.185 208.796 107.653 208.208V209H108.649V204.86C108.649 203.108 107.557 202.616 106.357 202.616C105.145 202.616 104.005 203.144 103.873 204.572H104.869C104.965 203.804 105.445 203.444 106.309 203.444C107.269 203.444 107.653 203.864 107.653 204.86V205.316H106.753C105.145 205.316 103.609 205.808 103.609 207.26C103.609 208.544 104.533 209.108 105.697 209.108ZM105.793 208.316C104.917 208.316 104.605 207.908 104.605 207.26C104.605 206.336 105.529 206.024 106.789 206.024H107.653V206.804C107.653 207.776 106.849 208.316 105.793 208.316ZM112.514 209.084C112.922 209.084 113.162 209.024 113.366 208.952V208.112C113.15 208.196 112.91 208.244 112.598 208.244C112.094 208.244 111.818 207.944 111.818 207.332V203.564H113.282V202.724H111.818V201.296H110.822V202.724H109.922V203.564H110.822V207.428C110.822 208.412 111.374 209.084 112.514 209.084ZM114.895 209H115.891V202.724H114.895V209ZM115.375 201.416C115.735 201.416 116.035 201.116 116.035 200.756C116.035 200.396 115.735 200.096 115.375 200.096C115.015 200.096 114.715 200.396 114.715 200.756C114.715 201.116 115.015 201.416 115.375 201.416ZM119.874 209.108C121.398 209.108 122.178 208.34 122.178 207.2C122.178 205.868 121.266 205.58 119.97 205.34C118.818 205.136 118.506 204.908 118.506 204.344C118.506 203.804 118.974 203.444 119.694 203.444C120.486 203.444 120.87 203.744 121.014 204.428H121.974C121.806 203.072 120.834 202.616 119.706 202.616C118.722 202.616 117.582 203.216 117.582 204.38C117.582 205.472 118.134 205.928 119.766 206.228C120.738 206.408 121.23 206.624 121.23 207.284C121.23 207.956 120.81 208.28 119.862 208.28C118.854 208.28 118.458 207.812 118.386 207.068H117.414C117.474 208.352 118.374 209.108 119.874 209.108ZM123.912 209H124.908V203.564H126.444V202.724H124.908V201.596C124.908 200.96 125.172 200.516 125.82 200.516C126.096 200.516 126.348 200.576 126.528 200.648V199.808C126.276 199.724 126.108 199.688 125.784 199.688C124.536 199.688 123.912 200.432 123.912 201.704V202.724H123.012V203.564H123.912V209ZM129.299 209.108C130.223 209.108 130.787 208.796 131.255 208.208V209H132.251V204.86C132.251 203.108 131.159 202.616 129.959 202.616C128.747 202.616 127.607 203.144 127.475 204.572H128.471C128.567 203.804 129.047 203.444 129.911 203.444C130.871 203.444 131.255 203.864 131.255 204.86V205.316H130.355C128.747 205.316 127.211 205.808 127.211 207.26C127.211 208.544 128.135 209.108 129.299 209.108ZM129.395 208.316C128.519 208.316 128.207 207.908 128.207 207.26C128.207 206.336 129.131 206.024 130.391 206.024H131.255V206.804C131.255 207.776 130.451 208.316 129.395 208.316ZM136.811 209.108C138.323 209.108 139.415 208.1 139.547 206.744H138.623C138.515 207.764 137.711 208.28 136.823 208.28C135.611 208.28 134.771 207.464 134.771 205.928V205.832C134.771 204.356 135.647 203.444 136.787 203.444C137.651 203.444 138.371 203.816 138.527 204.812H139.511C139.319 203.216 138.095 202.616 136.787 202.616C135.107 202.616 133.739 203.912 133.739 205.832V205.928C133.739 207.872 135.059 209.108 136.811 209.108ZM142.959 209.084C143.367 209.084 143.607 209.024 143.811 208.952V208.112C143.595 208.196 143.355 208.244 143.043 208.244C142.539 208.244 142.263 207.944 142.263 207.332V203.564H143.727V202.724H142.263V201.296H141.267V202.724H140.367V203.564H141.267V207.428C141.267 208.412 141.819 209.084 142.959 209.084ZM145.341 209H146.337V202.724H145.341V209ZM145.821 201.416C146.181 201.416 146.481 201.116 146.481 200.756C146.481 200.396 146.181 200.096 145.821 200.096C145.461 200.096 145.161 200.396 145.161 200.756C145.161 201.116 145.461 201.416 145.821 201.416ZM150.991 208.28C149.719 208.28 148.939 207.344 148.939 205.916V205.82C148.939 204.38 149.731 203.444 150.991 203.444C152.239 203.444 153.043 204.38 153.043 205.832V205.916C153.043 207.332 152.251 208.28 150.991 208.28ZM150.979 209.108C152.767 209.108 154.075 207.8 154.075 205.904V205.808C154.075 203.924 152.767 202.616 150.991 202.616C149.215 202.616 147.907 203.936 147.907 205.82V205.916C147.907 207.752 149.191 209.108 150.979 209.108ZM155.617 209H156.613V205.196C156.613 204.068 157.441 203.48 158.365 203.48C159.373 203.48 159.841 203.972 159.841 205.076V209H160.837V205.148C160.837 203.324 159.925 202.616 158.629 202.616C157.597 202.616 156.901 203.132 156.613 203.72V202.724H155.617V209Z" fill="white"/>
<path d="M38.08 179H43.3V178.148H39.124V175.04H42.316V174.188H39.124V171.272H43.084V170.42H38.08V179ZM44.8049 179H45.8009V175.16C45.8009 174.032 46.6409 173.48 47.4569 173.48C48.3209 173.48 48.7889 173.936 48.7889 175.04V179H49.7849V175.16C49.7849 174.032 50.6249 173.48 51.4409 173.48C52.3049 173.48 52.7729 173.936 52.7729 175.04V179H53.7689V175.112C53.7689 173.288 52.7849 172.616 51.6569 172.616C50.8769 172.616 49.9409 172.976 49.5089 173.792C49.1849 172.952 48.4769 172.616 47.6729 172.616C46.7729 172.616 46.0889 173.096 45.8009 173.684V172.724H44.8049V179ZM55.7268 181.184H56.7228V177.968C57.0828 178.592 57.8148 179.108 58.8468 179.108C60.5748 179.108 61.7028 177.788 61.7028 175.868V175.772C61.7028 173.816 60.4908 172.616 58.8468 172.616C57.9348 172.616 57.0828 173.168 56.7228 173.78V172.724H55.7268V181.184ZM58.7508 178.28C57.5268 178.28 56.6868 177.524 56.6868 175.916V175.82C56.6868 174.212 57.5748 173.444 58.7388 173.444C59.7948 173.444 60.6708 174.236 60.6708 175.82V175.916C60.6708 177.44 59.9988 178.28 58.7508 178.28ZM63.2742 179H64.2822V169.724H63.2742V179ZM68.9365 178.28C67.6645 178.28 66.8845 177.344 66.8845 175.916V175.82C66.8845 174.38 67.6765 173.444 68.9365 173.444C70.1845 173.444 70.9885 174.38 70.9885 175.832V175.916C70.9885 177.332 70.1965 178.28 68.9365 178.28ZM68.9245 179.108C70.7125 179.108 72.0205 177.8 72.0205 175.904V175.808C72.0205 173.924 70.7125 172.616 68.9365 172.616C67.1605 172.616 65.8525 173.936 65.8525 175.82V175.916C65.8525 177.752 67.1365 179.108 68.9245 179.108ZM73.9509 181.184H74.9589L78.4269 172.724H77.4069L75.6669 177.224L73.7469 172.724H72.6789L75.1389 178.352L73.9509 181.184ZM82.1307 179.108C83.5467 179.108 84.5907 178.448 84.8067 177.188H83.8107C83.6787 177.92 83.1147 178.28 82.1427 178.28C80.8587 178.28 80.1747 177.488 80.1267 176.06H84.8547V175.736C84.8547 173.492 83.4867 172.616 82.0347 172.616C80.3067 172.616 79.0947 173.936 79.0947 175.832V175.928C79.0947 177.86 80.3547 179.108 82.1307 179.108ZM80.1627 175.256C80.3307 174.14 81.0147 173.444 82.0347 173.444C83.0667 173.444 83.7387 173.96 83.8347 175.256H80.1627ZM88.951 179.108C90.367 179.108 91.411 178.448 91.627 177.188H90.631C90.499 177.92 89.935 178.28 88.963 178.28C87.679 178.28 86.995 177.488 86.947 176.06H91.675V175.736C91.675 173.492 90.307 172.616 88.855 172.616C87.127 172.616 85.915 173.936 85.915 175.832V175.928C85.915 177.86 87.175 179.108 88.951 179.108ZM86.983 175.256C87.151 174.14 87.835 173.444 88.855 173.444C89.887 173.444 90.559 173.96 90.655 175.256H86.983ZM96.4511 179H101.671V178.148H97.4951V175.04H100.687V174.188H97.4951V171.272H101.455V170.42H96.4511V179ZM103.176 179H104.172V175.196C104.172 174.068 105 173.48 105.924 173.48C106.932 173.48 107.4 173.972 107.4 175.076V179H108.396V175.148C108.396 173.324 107.484 172.616 106.188 172.616C105.156 172.616 104.46 173.132 104.172 173.72V172.724H103.176V179ZM112.856 181.292C114.608 181.292 115.844 180.404 115.856 178.58V172.724H114.86V173.732C114.5 173.12 113.852 172.616 112.808 172.616C111.08 172.616 109.88 174.032 109.88 175.736V175.82C109.88 177.548 111.092 178.796 112.736 178.796C113.648 178.796 114.5 178.22 114.86 177.608V178.52C114.86 179.864 114.08 180.452 112.844 180.452C111.776 180.452 111.176 180.08 111.032 179.36H110.012C110.18 180.416 110.996 181.292 112.856 181.292ZM112.844 177.968C111.788 177.968 110.912 177.152 110.912 175.784V175.688C110.912 174.368 111.656 173.444 112.904 173.444C114.128 173.444 114.896 174.26 114.896 175.664V175.748C114.896 177.152 114.008 177.968 112.844 177.968ZM119.443 179.108C120.367 179.108 120.931 178.796 121.399 178.208V179H122.395V174.86C122.395 173.108 121.303 172.616 120.103 172.616C118.891 172.616 117.751 173.144 117.619 174.572H118.615C118.711 173.804 119.191 173.444 120.055 173.444C121.015 173.444 121.399 173.864 121.399 174.86V175.316H120.499C118.891 175.316 117.355 175.808 117.355 177.26C117.355 178.544 118.279 179.108 119.443 179.108ZM119.539 178.316C118.663 178.316 118.351 177.908 118.351 177.26C118.351 176.336 119.275 176.024 120.535 176.024H121.399V176.804C121.399 177.776 120.595 178.316 119.539 178.316ZM126.86 181.292C128.612 181.292 129.848 180.404 129.86 178.58V172.724H128.864V173.732C128.504 173.12 127.856 172.616 126.812 172.616C125.084 172.616 123.884 174.032 123.884 175.736V175.82C123.884 177.548 125.096 178.796 126.74 178.796C127.652 178.796 128.504 178.22 128.864 177.608V178.52C128.864 179.864 128.084 180.452 126.848 180.452C125.78 180.452 125.18 180.08 125.036 179.36H124.016C124.184 180.416 125 181.292 126.86 181.292ZM126.848 177.968C125.792 177.968 124.916 177.152 124.916 175.784V175.688C124.916 174.368 125.66 173.444 126.908 173.444C128.132 173.444 128.9 174.26 128.9 175.664V175.748C128.9 177.152 128.012 177.968 126.848 177.968ZM134.443 179.108C135.859 179.108 136.903 178.448 137.119 177.188H136.123C135.991 177.92 135.427 178.28 134.455 178.28C133.171 178.28 132.487 177.488 132.439 176.06H137.167V175.736C137.167 173.492 135.799 172.616 134.347 172.616C132.619 172.616 131.407 173.936 131.407 175.832V175.928C131.407 177.86 132.667 179.108 134.443 179.108ZM132.475 175.256C132.643 174.14 133.327 173.444 134.347 173.444C135.379 173.444 136.051 173.96 136.147 175.256H132.475ZM138.696 179H139.692V175.16C139.692 174.032 140.532 173.48 141.348 173.48C142.212 173.48 142.68 173.936 142.68 175.04V179H143.676V175.16C143.676 174.032 144.516 173.48 145.332 173.48C146.196 173.48 146.664 173.936 146.664 175.04V179H147.66V175.112C147.66 173.288 146.676 172.616 145.548 172.616C144.768 172.616 143.832 172.976 143.4 173.792C143.076 172.952 142.368 172.616 141.564 172.616C140.664 172.616 139.98 173.096 139.692 173.684V172.724H138.696V179ZM152.185 179.108C153.601 179.108 154.645 178.448 154.861 177.188H153.865C153.733 177.92 153.169 178.28 152.197 178.28C150.913 178.28 150.229 177.488 150.181 176.06H154.909V175.736C154.909 173.492 153.541 172.616 152.089 172.616C150.361 172.616 149.149 173.936 149.149 175.832V175.928C149.149 177.86 150.409 179.108 152.185 179.108ZM150.217 175.256C150.385 174.14 151.069 173.444 152.089 173.444C153.121 173.444 153.793 173.96 153.889 175.256H150.217ZM156.438 179H157.434V175.196C157.434 174.068 158.262 173.48 159.186 173.48C160.194 173.48 160.662 173.972 160.662 175.076V179H161.658V175.148C161.658 173.324 160.746 172.616 159.45 172.616C158.418 172.616 157.722 173.132 157.434 173.72V172.724H156.438V179ZM165.518 179.084C165.926 179.084 166.166 179.024 166.37 178.952V178.112C166.154 178.196 165.914 178.244 165.602 178.244C165.098 178.244 164.822 177.944 164.822 177.332V173.564H166.286V172.724H164.822V171.296H163.826V172.724H162.926V173.564H163.826V177.428C163.826 178.412 164.378 179.084 165.518 179.084Z" fill="white"/>
<path d="M38.08 119H39.04V111.776L41.98 119H42.304L45.148 111.776V119H46.192V110.42H44.752L42.184 117.104L39.532 110.42H38.08V119ZM49.8573 119.108C50.7813 119.108 51.3453 118.796 51.8133 118.208V119H52.8093V114.86C52.8093 113.108 51.7173 112.616 50.5173 112.616C49.3053 112.616 48.1653 113.144 48.0333 114.572H49.0293C49.1253 113.804 49.6053 113.444 50.4693 113.444C51.4293 113.444 51.8133 113.864 51.8133 114.86V115.316H50.9133C49.3053 115.316 47.7693 115.808 47.7693 117.26C47.7693 118.544 48.6933 119.108 49.8573 119.108ZM49.9533 118.316C49.0773 118.316 48.7653 117.908 48.7653 117.26C48.7653 116.336 49.6893 116.024 50.9493 116.024H51.8133V116.804C51.8133 117.776 51.0093 118.316 49.9533 118.316ZM54.7658 119H55.7618V115.556C55.7618 114.008 56.5658 113.612 57.8258 113.552V112.616C56.6978 112.652 56.1578 113.144 55.7618 113.852V112.724H54.7658V119ZM59.2775 119H60.2735V115.748L63.0575 119H64.2695L61.3535 115.64L64.0415 112.724H62.8775L60.2735 115.616V109.724H59.2775V119ZM67.7987 119.108C69.2147 119.108 70.2587 118.448 70.4747 117.188H69.4787C69.3467 117.92 68.7827 118.28 67.8107 118.28C66.5267 118.28 65.8427 117.488 65.7947 116.06H70.5227V115.736C70.5227 113.492 69.1547 112.616 67.7027 112.616C65.9747 112.616 64.7627 113.936 64.7627 115.832V115.928C64.7627 117.86 66.0227 119.108 67.7987 119.108ZM65.8307 115.256C65.9987 114.14 66.6827 113.444 67.7027 113.444C68.7347 113.444 69.4067 113.96 69.5027 115.256H65.8307ZM73.959 119.084C74.367 119.084 74.607 119.024 74.811 118.952V118.112C74.595 118.196 74.355 118.244 74.043 118.244C73.539 118.244 73.263 117.944 73.263 117.332V113.564H74.727V112.724H73.263V111.296H72.267V112.724H71.367V113.564H72.267V117.428C72.267 118.412 72.819 119.084 73.959 119.084ZM82.3364 119.108C84.0404 119.108 85.3004 118.016 85.3004 116.576C85.3004 114.956 84.2924 114.38 82.3844 114.08C80.6324 113.816 80.3204 113.384 80.3204 112.544C80.3204 111.74 80.9324 111.152 82.1084 111.152C83.2964 111.152 83.9204 111.596 84.1244 112.676H85.0604C84.8924 111.152 83.8244 110.312 82.1084 110.312C80.4884 110.312 79.3484 111.32 79.3484 112.64C79.3484 114.164 80.4164 114.728 82.2164 115.004C83.8484 115.268 84.2924 115.676 84.2924 116.648C84.2924 117.62 83.4404 118.268 82.3364 118.268C80.6084 118.268 80.2004 117.404 80.0684 116.384H79.0604C79.2164 117.848 80.0444 119.108 82.3364 119.108ZM87.0158 119H88.0118V115.196C88.0118 114.068 88.8398 113.48 89.7638 113.48C90.7718 113.48 91.2398 113.972 91.2398 115.076V119H92.2358V115.148C92.2358 113.324 91.3238 112.616 90.0278 112.616C88.9958 112.616 88.2998 113.132 88.0118 113.72V109.724H87.0158V119ZM95.7597 119.108C96.6837 119.108 97.2477 118.796 97.7157 118.208V119H98.7117V114.86C98.7117 113.108 97.6197 112.616 96.4197 112.616C95.2077 112.616 94.0677 113.144 93.9357 114.572H94.9317C95.0277 113.804 95.5077 113.444 96.3717 113.444C97.3317 113.444 97.7157 113.864 97.7157 114.86V115.316H96.8157C95.2077 115.316 93.6717 115.808 93.6717 117.26C93.6717 118.544 94.5957 119.108 95.7597 119.108ZM95.8557 118.316C94.9797 118.316 94.6677 117.908 94.6677 117.26C94.6677 116.336 95.5917 116.024 96.8517 116.024H97.7157V116.804C97.7157 117.776 96.9117 118.316 95.8557 118.316ZM100.668 119H101.664V115.556C101.664 114.008 102.468 113.612 103.728 113.552V112.616C102.6 112.652 102.06 113.144 101.664 113.852V112.724H100.668V119ZM107.572 119.108C108.988 119.108 110.032 118.448 110.248 117.188H109.252C109.12 117.92 108.556 118.28 107.584 118.28C106.3 118.28 105.616 117.488 105.568 116.06H110.296V115.736C110.296 113.492 108.928 112.616 107.476 112.616C105.748 112.616 104.536 113.936 104.536 115.832V115.928C104.536 117.86 105.796 119.108 107.572 119.108ZM105.604 115.256C105.772 114.14 106.456 113.444 107.476 113.444C108.508 113.444 109.18 113.96 109.276 115.256H105.604Z" fill="white"/>
</svg>
