<svg width="32" height="30" viewBox="0 0 32 30" fill="none" xmlns="http://www.w3.org/2000/svg">
<path d="M15.9427 17.0551L15.2586 17.7845L15.9427 18.4261L16.6268 17.7845L15.9427 17.0551ZM16.9427 6.22272C16.9427 5.67043 16.495 5.22272 15.9427 5.22272C15.3904 5.22272 14.9427 5.67043 14.9427 6.22272L16.9427 6.22272ZM8.84198 11.7665L15.2586 17.7845L16.6268 16.3257L10.2101 10.3077L8.84198 11.7665ZM16.6268 17.7845L23.0435 11.7665L21.6753 10.3077L15.2586 16.3257L16.6268 17.7845ZM16.9427 17.0551L16.9427 6.22272L14.9427 6.22272L14.9427 17.0551L16.9427 17.0551Z" fill="#FFF4D7"/>
<path d="M6.95941 19.4623L6.95941 20.6659C6.95941 21.9954 8.10855 23.0731 9.52608 23.0731L22.3594 23.0731C23.7769 23.0731 24.9261 21.9954 24.9261 20.6659V19.4623" stroke="#FFF4D7" stroke-width="2"/>
</svg>
