<svg width="25" height="25" viewBox="0 0 25 25" fill="none" xmlns="http://www.w3.org/2000/svg">
<path d="M9.35439 15.6H6.16322C5.75145 15.6 5.44675 15.415 5.2491 15.0451C5.05145 14.6752 5.07307 14.3176 5.31395 13.9725L13.0088 2.86417C13.1804 2.62306 13.4034 2.45531 13.6779 2.36093C13.9524 2.26656 14.2355 2.27069 14.5272 2.37333C14.8189 2.47667 15.0333 2.6575 15.1706 2.91583C15.3078 3.17417 15.3593 3.44972 15.325 3.7425L14.5015 10.4333H18.4904C18.9365 10.4333 19.2498 10.6314 19.4303 11.0275C19.6108 11.4236 19.5548 11.7939 19.2625 12.1383L10.7956 22.3167C10.6068 22.5406 10.3752 22.6869 10.1007 22.7558C9.82621 22.8247 9.56028 22.7989 9.30292 22.6783C9.04557 22.5578 8.84381 22.3728 8.69763 22.1234C8.55145 21.8741 8.49586 21.6026 8.53086 21.3092L9.35439 15.6Z" fill="#FFF4D7"/>
</svg>
