<svg width="16" height="15" viewBox="0 0 16 15" fill="none" xmlns="http://www.w3.org/2000/svg">
<path d="M14.3684 14.2615L9.30783 9.81339C8.85599 10.1311 8.33638 10.3826 7.74899 10.568C7.16161 10.7533 6.53657 10.846 5.87387 10.846C4.2322 10.846 2.84295 10.3461 1.70613 9.34634C0.569314 8.34659 0.000602448 7.12548 0 5.68304C0 4.24006 0.568711 3.01896 1.70613 2.01973C2.84356 1.0205 4.2328 0.520625 5.87387 0.520096C7.51554 0.520096 8.90479 1.01997 10.0416 2.01973C11.1784 3.01949 11.7471 4.24059 11.7477 5.68304C11.7477 6.26552 11.6423 6.81491 11.4315 7.33121C11.2206 7.8475 10.9344 8.30422 10.573 8.70137L15.6561 13.1693C15.8218 13.3149 15.9046 13.4936 15.9046 13.7055C15.9046 13.9173 15.8143 14.1026 15.6335 14.2615C15.4679 14.4071 15.257 14.4799 15.001 14.4799C14.7449 14.4799 14.5341 14.4071 14.3684 14.2615ZM5.87387 9.25738C7.00346 9.25738 7.96377 8.90974 8.75478 8.21447C9.5458 7.51919 9.941 6.67538 9.9404 5.68304C9.9404 4.69016 9.54489 3.84609 8.75388 3.15081C7.96286 2.45554 7.00286 2.10816 5.87387 2.10869C4.74428 2.10869 3.78398 2.45633 2.99296 3.15161C2.20195 3.84688 1.80674 4.69069 1.80735 5.68304C1.80735 6.67591 2.20285 7.51998 2.99387 8.21526C3.78488 8.91054 4.74488 9.25791 5.87387 9.25738Z" fill="#213324"/>
</svg>
